%
M48
M72
T01C0.0126
T02C0.0138
T03C0.0236
T04C0.0315
T05C0.0320
T06C0.0551
%
T01
X6021Y12660
X7006Y14176
X5155Y15298
X4880Y17089
X4880Y17483
X4880Y17897
X5529Y18211
X4486Y18684
X7124Y17227
X7301Y17936
T02
X7734Y18664
X8167Y19078
X8384Y18625
X8876Y18625
X9683Y18625
X11041Y19196
X11750Y18349
X12222Y18802
X12773Y18093
X12399Y17503
X12399Y17089
X12399Y16696
X12399Y16302
X12399Y15908
X12399Y15495
X11710Y15849
X10982Y14786
X9899Y15613
X11829Y17109
X12990Y18822
X15766Y15928
X12478Y10987
X11710Y10771
X11691Y10101
X12596Y8900
X11435Y7798
X11455Y6794
X11947Y6558
X10490Y6597
X9880Y7877
X10037Y8290
X8718Y8330
X8344Y7916
X7636Y8251
X7458Y7778
X6888Y7778
X6514Y7778
X6770Y9038
X7675Y10278
X7695Y11026
X8462Y10790
X8187Y11774
X7931Y12975
X7970Y13428
X5726Y13664
X3994Y13684
X4014Y13172
X8462Y8900
X13462Y7286
X7025Y18900
X6140Y19471
X9604Y20436
T03
X13994Y17365
X14466Y14708
X15511Y3892
X15511Y3210
X10810Y3190
X10810Y3852
X5970Y3833
X5990Y3151
T04
X9301Y10901
X10051Y10901
X10801Y10901
T05
X10479Y2286
X11879Y2286
X7017Y2306
X5617Y2306
T06
X3951Y3554
X8851Y3554
X13751Y3554
M30
