G75*
%MOIN*%
%OFA0B0*%
%FSLAX24Y24*%
%IPPOS*%
%LPD*%
%AMOC8*
5,1,8,0,0,1.08239X$1,22.5*
%
%ADD10R,0.0595X0.0595*%
%ADD11R,0.0631X0.0356*%
%ADD12R,0.1773X0.2049*%
%ADD13R,0.0513X0.0474*%
%ADD14R,0.0474X0.0513*%
%ADD15R,0.0671X0.0592*%
%ADD16R,0.2580X0.1330*%
%ADD17C,0.0907*%
%ADD18R,0.0316X0.0690*%
%ADD19R,0.0552X0.0789*%
%ADD20R,0.0690X0.0316*%
%ADD21R,0.0789X0.0552*%
%ADD22OC8,0.0710*%
%ADD23C,0.0710*%
%ADD24C,0.0378*%
%ADD25R,0.0476X0.0476*%
%ADD26C,0.0366*%
%ADD27C,0.0476*%
D10*
X009301Y010901D03*
X010051Y010901D03*
X010801Y010901D03*
D11*
X003907Y004504D03*
X003907Y005004D03*
X003907Y005504D03*
X003907Y006004D03*
X008707Y006004D03*
X008707Y005504D03*
X008707Y005004D03*
X008707Y004504D03*
X013507Y004504D03*
X013507Y005004D03*
X013507Y005504D03*
X013507Y006004D03*
D12*
X014944Y005254D03*
X010144Y005254D03*
X005344Y005254D03*
D13*
X004551Y006619D03*
X004551Y007289D03*
X003751Y007289D03*
X003751Y006619D03*
X007851Y006789D03*
X007851Y006119D03*
X008651Y006619D03*
X008651Y007289D03*
X012651Y006789D03*
X012651Y006119D03*
X013451Y006619D03*
X013451Y007289D03*
D14*
X011699Y010097D03*
X011699Y010767D03*
X008473Y010794D03*
X008473Y010125D03*
D15*
X007693Y010286D03*
X007693Y011034D03*
X012483Y010994D03*
X012483Y010246D03*
D16*
X015351Y001554D03*
D17*
X013751Y003554D03*
X008851Y003554D03*
X003951Y003554D03*
D18*
X006612Y019265D03*
X007006Y019265D03*
X007399Y019265D03*
X011435Y019284D03*
X011829Y019284D03*
X012222Y019284D03*
X012616Y019284D03*
X013010Y019284D03*
X013403Y019284D03*
D19*
X013915Y020810D03*
X010923Y020810D03*
X007911Y020790D03*
X006100Y020790D03*
D20*
X004260Y018271D03*
X004260Y017877D03*
X004260Y017483D03*
X004260Y017089D03*
X004260Y016696D03*
X004260Y016302D03*
X005008Y013664D03*
X005008Y013271D03*
X014949Y015515D03*
X014949Y015908D03*
X014949Y016302D03*
X014949Y016696D03*
X014949Y017089D03*
X014949Y017483D03*
D21*
X016474Y017995D03*
X016474Y015003D03*
X005785Y015790D03*
X003482Y014176D03*
X003482Y012759D03*
X005785Y018782D03*
D22*
X007017Y002306D03*
X011879Y002286D03*
D23*
X010479Y002286D03*
X005617Y002306D03*
D24*
X006514Y007778D03*
X006888Y007778D03*
X007458Y007778D03*
X007636Y008251D03*
X008344Y007916D03*
X008718Y008330D03*
X008462Y008900D03*
X007675Y010278D03*
X007695Y011026D03*
X008462Y010790D03*
X008187Y011774D03*
X007931Y012975D03*
X007970Y013428D03*
X009899Y015613D03*
X010982Y014786D03*
X011710Y015849D03*
X012399Y015908D03*
X012399Y016302D03*
X012399Y016696D03*
X012399Y017089D03*
X012399Y017503D03*
X011829Y017109D03*
X011750Y018349D03*
X012222Y018802D03*
X012773Y018093D03*
X012990Y018822D03*
X011041Y019196D03*
X009683Y018625D03*
X008876Y018625D03*
X008384Y018625D03*
X008167Y019078D03*
X007734Y018664D03*
X007025Y018900D03*
X006140Y019471D03*
X009604Y020436D03*
X012399Y015495D03*
X015766Y015928D03*
X012478Y010987D03*
X011710Y010771D03*
X011691Y010101D03*
X012596Y008900D03*
X011435Y007798D03*
X011455Y006794D03*
X011947Y006558D03*
X010490Y006597D03*
X009880Y007877D03*
X010037Y008290D03*
X006770Y009038D03*
X004014Y013172D03*
X003994Y013684D03*
X005726Y013664D03*
X013462Y007286D03*
D25*
X015511Y003892D03*
X015511Y003210D03*
X010810Y003190D03*
X010810Y003852D03*
X005970Y003833D03*
X005990Y003151D03*
D26*
X006021Y012660D03*
X007006Y014176D03*
X005155Y015298D03*
X004880Y017089D03*
X004880Y017483D03*
X004880Y017897D03*
X005529Y018211D03*
X004486Y018684D03*
X007124Y017227D03*
X007301Y017936D03*
D27*
X013994Y017365D03*
X014466Y014708D03*
M02*
