G75*
%MOIN*%
%OFA0B0*%
%FSLAX24Y24*%
%IPPOS*%
%LPD*%
%AMOC8*
5,1,8,0,0,1.08239X$1,22.5*
%
%ADD10R,0.0515X0.0515*%
%ADD11R,0.0551X0.0276*%
%ADD12R,0.1693X0.1969*%
%ADD13R,0.0433X0.0394*%
%ADD14R,0.0394X0.0433*%
%ADD15R,0.0591X0.0512*%
%ADD16R,0.2500X0.1250*%
%ADD17C,0.0827*%
%ADD18R,0.0236X0.0610*%
%ADD19R,0.0472X0.0709*%
%ADD20R,0.0610X0.0236*%
%ADD21R,0.0709X0.0472*%
%ADD22OC8,0.0630*%
%ADD23C,0.0630*%
%ADD24C,0.0160*%
%ADD25C,0.0100*%
%ADD26C,0.0298*%
%ADD27C,0.0098*%
%ADD28R,0.0396X0.0396*%
%ADD29C,0.0286*%
%ADD30C,0.0396*%
%ADD31C,0.0240*%
D10*
X009301Y010901D03*
X010051Y010901D03*
X010801Y010901D03*
D11*
X008707Y006004D03*
X008707Y005504D03*
X008707Y005004D03*
X008707Y004504D03*
X003907Y004504D03*
X003907Y005004D03*
X003907Y005504D03*
X003907Y006004D03*
X013507Y006004D03*
X013507Y005504D03*
X013507Y005004D03*
X013507Y004504D03*
D12*
X014944Y005254D03*
X010144Y005254D03*
X005344Y005254D03*
D13*
X004551Y006619D03*
X004551Y007289D03*
X003751Y007289D03*
X003751Y006619D03*
X007851Y006789D03*
X007851Y006119D03*
X008651Y006619D03*
X008651Y007289D03*
X012651Y006789D03*
X012651Y006119D03*
X013451Y006619D03*
X013451Y007289D03*
D14*
X011699Y010097D03*
X011699Y010767D03*
X008473Y010794D03*
X008473Y010125D03*
D15*
X007693Y010286D03*
X007693Y011034D03*
X012483Y010994D03*
X012483Y010246D03*
D16*
X015351Y001554D03*
D17*
X013751Y003554D03*
X008851Y003554D03*
X003951Y003554D03*
D18*
X006612Y019265D03*
X007006Y019265D03*
X007399Y019265D03*
X011435Y019284D03*
X011829Y019284D03*
X012222Y019284D03*
X012616Y019284D03*
X013010Y019284D03*
X013403Y019284D03*
D19*
X013915Y020810D03*
X010923Y020810D03*
X007911Y020790D03*
X006100Y020790D03*
D20*
X004260Y018271D03*
X004260Y017877D03*
X004260Y017483D03*
X004260Y017089D03*
X004260Y016696D03*
X004260Y016302D03*
X005008Y013664D03*
X005008Y013271D03*
X014949Y015515D03*
X014949Y015908D03*
X014949Y016302D03*
X014949Y016696D03*
X014949Y017089D03*
X014949Y017483D03*
D21*
X016474Y017995D03*
X016474Y015003D03*
X005785Y015790D03*
X003482Y014176D03*
X003482Y012759D03*
X005785Y018782D03*
D22*
X007017Y002306D03*
X011879Y002286D03*
D23*
X010479Y002286D03*
X005617Y002306D03*
D24*
X003212Y002574D02*
X003210Y000814D01*
X016806Y000814D01*
X016812Y006254D01*
X013954Y006254D01*
X013983Y006225D01*
X013983Y005934D01*
X015006Y005934D01*
X015109Y005891D01*
X015188Y005813D01*
X015231Y005710D01*
X015231Y002798D01*
X015188Y002695D01*
X015109Y002617D01*
X015006Y002574D01*
X013095Y002574D01*
X012992Y002617D01*
X012913Y002695D01*
X012871Y002798D01*
X012871Y005580D01*
X012729Y005723D01*
X012351Y005723D01*
X012234Y005840D01*
X012234Y005917D01*
X012231Y005920D01*
X012222Y005924D01*
X012196Y005955D01*
X012168Y005983D01*
X012164Y005992D01*
X012078Y006093D01*
X012050Y006121D01*
X012046Y006130D01*
X012039Y006138D01*
X012027Y006176D01*
X012013Y006209D01*
X011877Y006209D01*
X011769Y006254D01*
X010573Y006254D01*
X010559Y006248D01*
X010421Y006248D01*
X010407Y006254D01*
X009154Y006254D01*
X009183Y006225D01*
X009183Y005934D01*
X010206Y005934D01*
X010309Y005891D01*
X010388Y005813D01*
X010431Y005710D01*
X010431Y002798D01*
X010388Y002695D01*
X010309Y002617D01*
X010206Y002574D01*
X008295Y002574D01*
X008192Y002617D01*
X008113Y002695D01*
X008071Y002798D01*
X008071Y005480D01*
X007829Y005723D01*
X007551Y005723D01*
X007434Y005840D01*
X007434Y005877D01*
X007396Y005893D01*
X007325Y005964D01*
X007207Y006082D01*
X007169Y006174D01*
X007169Y006254D01*
X004881Y006254D01*
X004850Y006223D01*
X004401Y006223D01*
X004401Y006204D01*
X004383Y006162D01*
X004383Y005934D01*
X005406Y005934D01*
X005509Y005891D01*
X005588Y005813D01*
X005631Y005710D01*
X005631Y002798D01*
X005588Y002695D01*
X005509Y002617D01*
X005406Y002574D01*
X003212Y002574D01*
X003212Y002456D02*
X006502Y002456D01*
X006502Y002519D02*
X006502Y002093D01*
X006803Y001791D01*
X007230Y001791D01*
X007532Y002093D01*
X007532Y002519D01*
X007230Y002821D01*
X006803Y002821D01*
X006502Y002519D01*
X006597Y002615D02*
X005504Y002615D01*
X005620Y002773D02*
X006755Y002773D01*
X006502Y002298D02*
X003212Y002298D01*
X003212Y002139D02*
X006502Y002139D01*
X006614Y001981D02*
X003212Y001981D01*
X003212Y001822D02*
X006772Y001822D01*
X007261Y001822D02*
X011615Y001822D01*
X011666Y001771D02*
X012092Y001771D01*
X012394Y002073D01*
X012394Y002500D01*
X012092Y002801D01*
X011666Y002801D01*
X011364Y002500D01*
X011364Y002073D01*
X011666Y001771D01*
X011456Y001981D02*
X007420Y001981D01*
X007532Y002139D02*
X011364Y002139D01*
X011364Y002298D02*
X007532Y002298D01*
X007532Y002456D02*
X011364Y002456D01*
X011479Y002615D02*
X010304Y002615D01*
X010420Y002773D02*
X011637Y002773D01*
X012121Y002773D02*
X012881Y002773D01*
X012871Y002932D02*
X010431Y002932D01*
X010431Y003090D02*
X012871Y003090D01*
X012871Y003249D02*
X010431Y003249D01*
X010431Y003407D02*
X012871Y003407D01*
X012871Y003566D02*
X010431Y003566D01*
X010431Y003724D02*
X012871Y003724D01*
X012871Y003883D02*
X010431Y003883D01*
X010431Y004041D02*
X012871Y004041D01*
X012871Y004200D02*
X010431Y004200D01*
X010431Y004358D02*
X012871Y004358D01*
X012871Y004517D02*
X010431Y004517D01*
X010431Y004675D02*
X012871Y004675D01*
X012871Y004834D02*
X010431Y004834D01*
X010431Y004992D02*
X012871Y004992D01*
X012871Y005151D02*
X010431Y005151D01*
X010431Y005309D02*
X012871Y005309D01*
X012871Y005468D02*
X010431Y005468D01*
X010431Y005626D02*
X012825Y005626D01*
X013151Y005626D02*
X013898Y005626D01*
X013898Y005654D02*
X013898Y004187D01*
X014015Y004070D01*
X014951Y004070D01*
X014951Y002854D01*
X013151Y002854D01*
X013151Y005654D01*
X013898Y005654D01*
X013898Y005468D02*
X013151Y005468D01*
X013151Y005309D02*
X013898Y005309D01*
X013898Y005151D02*
X013151Y005151D01*
X013151Y004992D02*
X013898Y004992D01*
X013898Y004834D02*
X013151Y004834D01*
X013151Y004675D02*
X013898Y004675D01*
X013898Y004517D02*
X013151Y004517D01*
X013151Y004358D02*
X013898Y004358D01*
X013898Y004200D02*
X013151Y004200D01*
X013151Y004041D02*
X014951Y004041D01*
X014951Y003883D02*
X013151Y003883D01*
X013151Y003724D02*
X014951Y003724D01*
X014951Y003566D02*
X013151Y003566D01*
X013151Y003407D02*
X014951Y003407D01*
X014951Y003249D02*
X013151Y003249D01*
X013151Y003090D02*
X014951Y003090D01*
X014951Y002932D02*
X013151Y002932D01*
X012997Y002615D02*
X012279Y002615D01*
X012394Y002456D02*
X016807Y002456D01*
X016807Y002298D02*
X012394Y002298D01*
X012394Y002139D02*
X016807Y002139D01*
X016807Y001981D02*
X012302Y001981D01*
X012143Y001822D02*
X016807Y001822D01*
X016807Y001664D02*
X003211Y001664D01*
X003211Y001505D02*
X016806Y001505D01*
X016806Y001347D02*
X003211Y001347D01*
X003211Y001188D02*
X016806Y001188D01*
X016806Y001030D02*
X003211Y001030D01*
X003211Y000871D02*
X016806Y000871D01*
X016808Y002615D02*
X015104Y002615D01*
X015220Y002773D02*
X016808Y002773D01*
X016808Y002932D02*
X015231Y002932D01*
X015231Y003090D02*
X016808Y003090D01*
X016808Y003249D02*
X015231Y003249D01*
X015231Y003407D02*
X016808Y003407D01*
X016809Y003566D02*
X015231Y003566D01*
X015231Y003724D02*
X016809Y003724D01*
X016809Y003883D02*
X015231Y003883D01*
X015231Y004041D02*
X016809Y004041D01*
X016809Y004200D02*
X015231Y004200D01*
X015231Y004358D02*
X016809Y004358D01*
X016810Y004517D02*
X015231Y004517D01*
X015231Y004675D02*
X016810Y004675D01*
X016810Y004834D02*
X015231Y004834D01*
X015231Y004992D02*
X016810Y004992D01*
X016810Y005151D02*
X015231Y005151D01*
X015231Y005309D02*
X016810Y005309D01*
X016811Y005468D02*
X015231Y005468D01*
X015231Y005626D02*
X016811Y005626D01*
X016811Y005785D02*
X015200Y005785D01*
X013983Y005943D02*
X016811Y005943D01*
X016811Y006102D02*
X013983Y006102D01*
X013847Y007326D02*
X013847Y007560D01*
X013742Y007666D01*
X013160Y007666D01*
X013054Y007560D01*
X013054Y007326D01*
X012248Y007326D01*
X011764Y007798D01*
X011764Y007864D01*
X011714Y007984D01*
X011621Y008077D01*
X011500Y008127D01*
X011369Y008127D01*
X011249Y008077D01*
X011156Y007984D01*
X011106Y007864D01*
X011106Y007733D01*
X011147Y007634D01*
X011097Y007634D01*
X010799Y007933D01*
X010799Y008563D01*
X010526Y008835D01*
X008791Y008835D01*
X008791Y008966D01*
X008741Y009087D01*
X008649Y009179D01*
X008528Y009229D01*
X008397Y009229D01*
X008276Y009179D01*
X008227Y009130D01*
X007344Y009130D01*
X006303Y008090D01*
X006303Y008033D01*
X006235Y007965D01*
X006185Y007844D01*
X006185Y007733D01*
X005152Y007733D01*
X005090Y007795D01*
X004955Y007930D01*
X003387Y007930D01*
X003218Y007761D01*
X003223Y012343D01*
X003911Y012343D01*
X004016Y012448D01*
X004016Y012843D01*
X004079Y012843D01*
X004200Y012893D01*
X004249Y012942D01*
X005005Y012942D01*
X005035Y012972D01*
X005387Y012972D01*
X005493Y013078D01*
X005493Y013433D01*
X005540Y013385D01*
X005661Y013335D01*
X005792Y013335D01*
X005913Y013385D01*
X006005Y013478D01*
X006055Y013599D01*
X006055Y013730D01*
X006005Y013851D01*
X005917Y013939D01*
X005917Y014074D01*
X005782Y014209D01*
X005155Y014836D01*
X005138Y014877D01*
X003985Y016003D01*
X003985Y016004D01*
X004639Y016004D01*
X004745Y016109D01*
X004745Y016495D01*
X004639Y016600D01*
X003880Y016600D01*
X003775Y016495D01*
X003775Y016444D01*
X003656Y016325D01*
X003506Y016471D01*
X003503Y016680D01*
X003495Y018185D01*
X003501Y018295D01*
X005184Y019979D01*
X008829Y019979D01*
X008925Y020019D01*
X009436Y020530D01*
X009811Y020530D01*
X010230Y020111D01*
X010303Y020038D01*
X010399Y019999D01*
X014854Y019999D01*
X015199Y019667D01*
X015236Y019577D01*
X015466Y019347D01*
X015466Y016063D01*
X015437Y015993D01*
X015437Y015863D01*
X015487Y015742D01*
X015579Y015649D01*
X015700Y015599D01*
X015831Y015599D01*
X015952Y015649D01*
X016044Y015742D01*
X016094Y015863D01*
X016094Y015993D01*
X016066Y016063D01*
X016066Y017579D01*
X016784Y017579D01*
X016781Y015419D01*
X016045Y015419D01*
X015940Y015314D01*
X015940Y014692D01*
X016045Y014587D01*
X016780Y014587D01*
X016770Y007326D01*
X014677Y007326D01*
X014677Y007441D01*
X014542Y007575D01*
X012987Y009130D01*
X012831Y009130D01*
X012783Y009179D01*
X012662Y009229D01*
X012531Y009229D01*
X012410Y009179D01*
X012317Y009087D01*
X012267Y008966D01*
X012267Y008835D01*
X012317Y008714D01*
X012410Y008622D01*
X012531Y008572D01*
X012662Y008572D01*
X012783Y008622D01*
X012814Y008653D01*
X014141Y007326D01*
X013847Y007326D01*
X013847Y007370D02*
X014097Y007370D01*
X013939Y007528D02*
X013847Y007528D01*
X013780Y007687D02*
X011878Y007687D01*
X011764Y007845D02*
X013622Y007845D01*
X013463Y008004D02*
X011695Y008004D01*
X011175Y008004D02*
X010799Y008004D01*
X010799Y008162D02*
X013305Y008162D01*
X013146Y008321D02*
X010799Y008321D01*
X010799Y008479D02*
X012988Y008479D01*
X012829Y008638D02*
X012798Y008638D01*
X012394Y008638D02*
X010724Y008638D01*
X010565Y008796D02*
X012284Y008796D01*
X012267Y008955D02*
X008791Y008955D01*
X008715Y009113D02*
X012344Y009113D01*
X011970Y009701D02*
X012076Y009806D01*
X012076Y009848D01*
X012113Y009810D01*
X012853Y009810D01*
X012958Y009916D01*
X012958Y010577D01*
X012915Y010620D01*
X012958Y010664D01*
X012958Y011325D01*
X012853Y011430D01*
X012113Y011430D01*
X012008Y011325D01*
X012008Y011126D01*
X011970Y011163D01*
X011427Y011163D01*
X011322Y011058D01*
X011322Y010476D01*
X011365Y010432D01*
X011322Y010388D01*
X011322Y010361D01*
X008850Y010361D01*
X008850Y010416D01*
X008807Y010460D01*
X008850Y010503D01*
X008850Y011085D01*
X008745Y011191D01*
X008202Y011191D01*
X008168Y011157D01*
X008168Y011364D01*
X008063Y011469D01*
X007323Y011469D01*
X007218Y011364D01*
X007218Y010703D01*
X007261Y010660D01*
X007218Y010616D01*
X007218Y009955D01*
X007323Y009850D01*
X008063Y009850D01*
X008074Y009861D01*
X008097Y009861D01*
X008097Y009834D01*
X008202Y009728D01*
X008745Y009728D01*
X008850Y009834D01*
X008850Y009841D01*
X011322Y009841D01*
X011322Y009806D01*
X011427Y009701D01*
X011970Y009701D01*
X012016Y009747D02*
X016773Y009747D01*
X016773Y009589D02*
X006980Y009589D01*
X006980Y009747D02*
X008183Y009747D01*
X008462Y010101D02*
X008443Y010121D01*
X007852Y010121D01*
X007695Y010278D01*
X007218Y010223D02*
X006980Y010223D01*
X006980Y010381D02*
X007218Y010381D01*
X007218Y010540D02*
X006980Y010540D01*
X006980Y010698D02*
X007223Y010698D01*
X007218Y010857D02*
X006980Y010857D01*
X006980Y011015D02*
X007218Y011015D01*
X007218Y011174D02*
X006980Y011174D01*
X006980Y011332D02*
X007218Y011332D01*
X006980Y011491D02*
X016775Y011491D01*
X016776Y011649D02*
X006980Y011649D01*
X006980Y011808D02*
X016776Y011808D01*
X016776Y011966D02*
X006980Y011966D01*
X006980Y012125D02*
X016776Y012125D01*
X016777Y012283D02*
X006980Y012283D01*
X006980Y012442D02*
X016777Y012442D01*
X016777Y012600D02*
X006980Y012600D01*
X006980Y012759D02*
X007683Y012759D01*
X007652Y012789D02*
X007745Y012696D01*
X007866Y012646D01*
X007996Y012646D01*
X008117Y012696D01*
X008210Y012789D01*
X008260Y012910D01*
X008260Y013041D01*
X008210Y013162D01*
X008189Y013182D01*
X008249Y013242D01*
X008299Y013363D01*
X008299Y013493D01*
X008249Y013614D01*
X008200Y013663D01*
X008200Y017644D01*
X008853Y018296D01*
X008941Y018296D01*
X009062Y018346D01*
X009155Y018439D01*
X009205Y018559D01*
X009205Y018690D01*
X009155Y018811D01*
X009062Y018904D01*
X008941Y018954D01*
X008810Y018954D01*
X008690Y018904D01*
X008630Y018844D01*
X008570Y018904D01*
X008469Y018946D01*
X008496Y019012D01*
X008496Y019143D01*
X008446Y019264D01*
X008353Y019356D01*
X008233Y019407D01*
X008164Y019407D01*
X008075Y019495D01*
X007698Y019495D01*
X007698Y019644D01*
X007592Y019750D01*
X007207Y019750D01*
X007203Y019746D01*
X007198Y019750D01*
X006813Y019750D01*
X006809Y019746D01*
X006805Y019750D01*
X006419Y019750D01*
X006373Y019703D01*
X006326Y019750D01*
X006205Y019800D01*
X006074Y019800D01*
X005953Y019750D01*
X005861Y019658D01*
X005811Y019537D01*
X005811Y019406D01*
X005861Y019285D01*
X005947Y019199D01*
X005356Y019199D01*
X005251Y019093D01*
X005251Y018472D01*
X005356Y018366D01*
X006214Y018366D01*
X006320Y018472D01*
X006320Y018879D01*
X006419Y018780D01*
X006720Y018780D01*
X006747Y018714D01*
X006839Y018622D01*
X006960Y018572D01*
X007091Y018572D01*
X007212Y018622D01*
X007304Y018714D01*
X007331Y018780D01*
X007426Y018780D01*
X007405Y018730D01*
X007405Y018599D01*
X007439Y018517D01*
X007424Y018502D01*
X007360Y018453D01*
X007358Y018436D01*
X007347Y018425D01*
X007347Y018344D01*
X007337Y018264D01*
X007340Y018259D01*
X007237Y018259D01*
X007118Y018210D01*
X007027Y018119D01*
X006978Y018000D01*
X006978Y017872D01*
X007027Y017753D01*
X007071Y017709D01*
X007071Y017624D01*
X007057Y017553D01*
X007059Y017550D01*
X006941Y017501D01*
X006850Y017410D01*
X006801Y017291D01*
X006801Y017163D01*
X006850Y017044D01*
X006894Y017000D01*
X006894Y014479D01*
X006823Y014450D01*
X006732Y014359D01*
X006683Y014240D01*
X006683Y014112D01*
X006732Y013993D01*
X006823Y013902D01*
X006904Y013868D01*
X005988Y013868D01*
X006055Y013710D02*
X006745Y013710D01*
X006587Y013551D02*
X006035Y013551D01*
X005920Y013393D02*
X006428Y013393D01*
X006270Y013234D02*
X005493Y013234D01*
X005490Y013076D02*
X006111Y013076D01*
X006019Y012983D02*
X005957Y012983D01*
X005839Y012934D01*
X005748Y012843D01*
X005698Y012725D01*
X005698Y012596D01*
X005748Y012477D01*
X005839Y012386D01*
X005957Y012337D01*
X006086Y012337D01*
X006204Y012386D01*
X006295Y012477D01*
X006344Y012596D01*
X006344Y012658D01*
X006520Y012833D01*
X006520Y009254D01*
X006491Y009225D01*
X006441Y009104D01*
X006441Y008973D01*
X006491Y008852D01*
X006583Y008759D01*
X006704Y008709D01*
X006835Y008709D01*
X006956Y008759D01*
X007048Y008852D01*
X007098Y008973D01*
X007098Y009104D01*
X007048Y009225D01*
X006980Y009293D01*
X006980Y012882D01*
X007386Y013297D01*
X007386Y013136D01*
X007521Y013001D01*
X007602Y012920D01*
X007602Y012910D01*
X007652Y012789D01*
X007602Y012917D02*
X007014Y012917D01*
X007169Y013076D02*
X007446Y013076D01*
X007386Y013234D02*
X007324Y013234D01*
X006904Y013868D02*
X006019Y012983D01*
X005821Y012917D02*
X004224Y012917D01*
X004016Y012759D02*
X005713Y012759D01*
X005698Y012600D02*
X004016Y012600D01*
X004010Y012442D02*
X005783Y012442D01*
X006259Y012442D02*
X006520Y012442D01*
X006520Y012600D02*
X006344Y012600D01*
X006445Y012759D02*
X006520Y012759D01*
X006520Y012283D02*
X003223Y012283D01*
X003223Y012125D02*
X006520Y012125D01*
X006520Y011966D02*
X003223Y011966D01*
X003222Y011808D02*
X006520Y011808D01*
X006520Y011649D02*
X003222Y011649D01*
X003222Y011491D02*
X006520Y011491D01*
X006520Y011332D02*
X003222Y011332D01*
X003222Y011174D02*
X006520Y011174D01*
X006520Y011015D02*
X003222Y011015D01*
X003221Y010857D02*
X006520Y010857D01*
X006520Y010698D02*
X003221Y010698D01*
X003221Y010540D02*
X006520Y010540D01*
X006520Y010381D02*
X003221Y010381D01*
X003221Y010223D02*
X006520Y010223D01*
X006520Y010064D02*
X003221Y010064D01*
X003220Y009906D02*
X006520Y009906D01*
X006520Y009747D02*
X003220Y009747D01*
X003220Y009589D02*
X006520Y009589D01*
X006520Y009430D02*
X003220Y009430D01*
X003220Y009272D02*
X006520Y009272D01*
X006444Y009113D02*
X003220Y009113D01*
X003219Y008955D02*
X006448Y008955D01*
X006547Y008796D02*
X003219Y008796D01*
X003219Y008638D02*
X006851Y008638D01*
X006992Y008796D02*
X007009Y008796D01*
X007091Y008955D02*
X007168Y008955D01*
X007095Y009113D02*
X007326Y009113D01*
X007001Y009272D02*
X016772Y009272D01*
X016773Y009430D02*
X006980Y009430D01*
X006980Y009906D02*
X007267Y009906D01*
X007218Y010064D02*
X006980Y010064D01*
X008168Y011174D02*
X008185Y011174D01*
X008168Y011332D02*
X008962Y011332D01*
X008969Y011339D02*
X008863Y011233D01*
X008863Y010569D01*
X008969Y010464D01*
X009633Y010464D01*
X009676Y010507D01*
X009719Y010464D01*
X010383Y010464D01*
X010426Y010507D01*
X010469Y010464D01*
X011133Y010464D01*
X011238Y010569D01*
X011238Y011233D01*
X011133Y011339D01*
X010469Y011339D01*
X010426Y011296D01*
X010383Y011339D01*
X009719Y011339D01*
X009676Y011296D01*
X009633Y011339D01*
X008969Y011339D01*
X008863Y011174D02*
X008762Y011174D01*
X008850Y011015D02*
X008863Y011015D01*
X008850Y010857D02*
X008863Y010857D01*
X008850Y010698D02*
X008863Y010698D01*
X008850Y010540D02*
X008893Y010540D01*
X008850Y010381D02*
X011322Y010381D01*
X011322Y010540D02*
X011208Y010540D01*
X011238Y010698D02*
X011322Y010698D01*
X011322Y010857D02*
X011238Y010857D01*
X011238Y011015D02*
X011322Y011015D01*
X011238Y011174D02*
X012008Y011174D01*
X012015Y011332D02*
X011139Y011332D01*
X010462Y011332D02*
X010389Y011332D01*
X009712Y011332D02*
X009639Y011332D01*
X008462Y010101D02*
X011691Y010101D01*
X011829Y010239D01*
X012478Y010239D01*
X012958Y010223D02*
X016774Y010223D01*
X016774Y010381D02*
X012958Y010381D01*
X012958Y010540D02*
X016774Y010540D01*
X016774Y010698D02*
X012958Y010698D01*
X012958Y010857D02*
X016775Y010857D01*
X016775Y011015D02*
X012958Y011015D01*
X012958Y011174D02*
X016775Y011174D01*
X016775Y011332D02*
X012951Y011332D01*
X012958Y010064D02*
X016773Y010064D01*
X016773Y009906D02*
X012948Y009906D01*
X013004Y009113D02*
X016772Y009113D01*
X016772Y008955D02*
X013163Y008955D01*
X013321Y008796D02*
X016772Y008796D01*
X016771Y008638D02*
X013480Y008638D01*
X013638Y008479D02*
X016771Y008479D01*
X016771Y008321D02*
X013797Y008321D01*
X013955Y008162D02*
X016771Y008162D01*
X016770Y008004D02*
X014114Y008004D01*
X014272Y007845D02*
X016770Y007845D01*
X016770Y007687D02*
X014431Y007687D01*
X014589Y007528D02*
X016770Y007528D01*
X016770Y007370D02*
X014677Y007370D01*
X013054Y007370D02*
X012203Y007370D01*
X012041Y007528D02*
X013054Y007528D01*
X012069Y006102D02*
X009183Y006102D01*
X009183Y005943D02*
X012206Y005943D01*
X012289Y005785D02*
X010400Y005785D01*
X009098Y005654D02*
X009098Y004187D01*
X009215Y004070D01*
X010151Y004070D01*
X010151Y002854D01*
X008351Y002854D01*
X008351Y005654D01*
X009098Y005654D01*
X009098Y005626D02*
X008351Y005626D01*
X008351Y005468D02*
X009098Y005468D01*
X009098Y005309D02*
X008351Y005309D01*
X008351Y005151D02*
X009098Y005151D01*
X009098Y004992D02*
X008351Y004992D01*
X008351Y004834D02*
X009098Y004834D01*
X009098Y004675D02*
X008351Y004675D01*
X008351Y004517D02*
X009098Y004517D01*
X009098Y004358D02*
X008351Y004358D01*
X008351Y004200D02*
X009098Y004200D01*
X008351Y004041D02*
X010151Y004041D01*
X010151Y003883D02*
X008351Y003883D01*
X008351Y003724D02*
X010151Y003724D01*
X010151Y003566D02*
X008351Y003566D01*
X008351Y003407D02*
X010151Y003407D01*
X010151Y003249D02*
X008351Y003249D01*
X008351Y003090D02*
X010151Y003090D01*
X010151Y002932D02*
X008351Y002932D01*
X008071Y002932D02*
X005631Y002932D01*
X005631Y003090D02*
X008071Y003090D01*
X008071Y003249D02*
X005631Y003249D01*
X005631Y003407D02*
X008071Y003407D01*
X008071Y003566D02*
X005631Y003566D01*
X005631Y003724D02*
X008071Y003724D01*
X008071Y003883D02*
X005631Y003883D01*
X005631Y004041D02*
X008071Y004041D01*
X008071Y004200D02*
X005631Y004200D01*
X005631Y004358D02*
X008071Y004358D01*
X008071Y004517D02*
X005631Y004517D01*
X005631Y004675D02*
X008071Y004675D01*
X008071Y004834D02*
X005631Y004834D01*
X005631Y004992D02*
X008071Y004992D01*
X008071Y005151D02*
X005631Y005151D01*
X005631Y005309D02*
X008071Y005309D01*
X008071Y005468D02*
X005631Y005468D01*
X005631Y005626D02*
X007925Y005626D01*
X007489Y005785D02*
X005600Y005785D01*
X004383Y005943D02*
X007346Y005943D01*
X007199Y006102D02*
X004383Y006102D01*
X004298Y005654D02*
X004298Y004187D01*
X004415Y004070D01*
X005351Y004070D01*
X005351Y002854D01*
X003213Y002854D01*
X003216Y005654D01*
X004298Y005654D01*
X004298Y005626D02*
X003216Y005626D01*
X003216Y005468D02*
X004298Y005468D01*
X004298Y005309D02*
X003215Y005309D01*
X003215Y005151D02*
X004298Y005151D01*
X004298Y004992D02*
X003215Y004992D01*
X003215Y004834D02*
X004298Y004834D01*
X004298Y004675D02*
X003215Y004675D01*
X003215Y004517D02*
X004298Y004517D01*
X004298Y004358D02*
X003214Y004358D01*
X003214Y004200D02*
X004298Y004200D01*
X005351Y004041D02*
X003214Y004041D01*
X003214Y003883D02*
X005351Y003883D01*
X005351Y003724D02*
X003214Y003724D01*
X003213Y003566D02*
X005351Y003566D01*
X005351Y003407D02*
X003213Y003407D01*
X003213Y003249D02*
X005351Y003249D01*
X005351Y003090D02*
X003213Y003090D01*
X003213Y002932D02*
X005351Y002932D01*
X007278Y002773D02*
X008081Y002773D01*
X008197Y002615D02*
X007437Y002615D01*
X011045Y007687D02*
X011125Y007687D01*
X011106Y007845D02*
X010886Y007845D01*
X011381Y009747D02*
X008764Y009747D01*
X006692Y008479D02*
X003219Y008479D01*
X003219Y008321D02*
X006534Y008321D01*
X006375Y008162D02*
X003218Y008162D01*
X003218Y008004D02*
X006274Y008004D01*
X006185Y007845D02*
X005040Y007845D01*
X003302Y007845D02*
X003218Y007845D01*
X005493Y013393D02*
X005533Y013393D01*
X005917Y014027D02*
X006718Y014027D01*
X006683Y014185D02*
X005806Y014185D01*
X005648Y014344D02*
X006726Y014344D01*
X006894Y014502D02*
X005489Y014502D01*
X005331Y014661D02*
X006894Y014661D01*
X006894Y014819D02*
X005172Y014819D01*
X005035Y014978D02*
X006894Y014978D01*
X006894Y015136D02*
X004873Y015136D01*
X004710Y015295D02*
X006894Y015295D01*
X006894Y015453D02*
X006293Y015453D01*
X006320Y015479D02*
X006320Y016101D01*
X006214Y016206D01*
X005356Y016206D01*
X005251Y016101D01*
X005251Y015479D01*
X005356Y015374D01*
X006214Y015374D01*
X006320Y015479D01*
X006320Y015612D02*
X006894Y015612D01*
X006894Y015770D02*
X006320Y015770D01*
X006320Y015929D02*
X006894Y015929D01*
X006894Y016087D02*
X006320Y016087D01*
X006894Y016246D02*
X004745Y016246D01*
X004745Y016404D02*
X006894Y016404D01*
X006894Y016563D02*
X004677Y016563D01*
X004639Y016791D02*
X004680Y016832D01*
X004697Y016816D01*
X004816Y016766D01*
X004944Y016766D01*
X005063Y016816D01*
X005154Y016906D01*
X005203Y017025D01*
X005203Y017154D01*
X005154Y017272D01*
X005140Y017286D01*
X005154Y017300D01*
X005203Y017419D01*
X005203Y017547D01*
X005154Y017666D01*
X005130Y017690D01*
X005154Y017714D01*
X005203Y017832D01*
X005203Y017961D01*
X005154Y018079D01*
X005063Y018170D01*
X004944Y018220D01*
X004816Y018220D01*
X004745Y018190D01*
X004745Y018463D01*
X004733Y018475D01*
X004760Y018501D01*
X004809Y018620D01*
X004809Y018748D01*
X004760Y018867D01*
X004669Y018958D01*
X004550Y019007D01*
X004422Y019007D01*
X004303Y018958D01*
X004212Y018867D01*
X004163Y018748D01*
X004163Y018745D01*
X004109Y018691D01*
X004046Y018645D01*
X004043Y018626D01*
X004030Y018612D01*
X004030Y018569D01*
X003880Y018569D01*
X003775Y018463D01*
X003775Y018078D01*
X003779Y018074D01*
X003775Y018070D01*
X003775Y017684D01*
X003779Y017680D01*
X003775Y017676D01*
X003775Y017290D01*
X003779Y017286D01*
X003775Y017282D01*
X003775Y016897D01*
X003880Y016791D01*
X004639Y016791D01*
X005127Y016880D02*
X006894Y016880D01*
X006894Y016721D02*
X003503Y016721D01*
X003504Y016563D02*
X003842Y016563D01*
X003735Y016404D02*
X003575Y016404D01*
X003226Y016381D02*
X003636Y015980D01*
X004919Y014727D01*
X005277Y015453D02*
X004548Y015453D01*
X004386Y015612D02*
X005251Y015612D01*
X005251Y015770D02*
X004224Y015770D01*
X004061Y015929D02*
X005251Y015929D01*
X005251Y016087D02*
X004722Y016087D01*
X005203Y017038D02*
X006856Y017038D01*
X006801Y017197D02*
X005185Y017197D01*
X005176Y017355D02*
X006827Y017355D01*
X006971Y017514D02*
X005203Y017514D01*
X005148Y017672D02*
X007071Y017672D01*
X006995Y017831D02*
X005202Y017831D01*
X005191Y017989D02*
X006978Y017989D01*
X007056Y018148D02*
X005086Y018148D01*
X005258Y018465D02*
X004743Y018465D01*
X004745Y018306D02*
X007342Y018306D01*
X007375Y018465D02*
X006313Y018465D01*
X006320Y018623D02*
X006838Y018623D01*
X007213Y018623D02*
X007405Y018623D01*
X008155Y019416D02*
X011530Y019416D01*
X011530Y019574D02*
X007698Y019574D01*
X007609Y019733D02*
X011599Y019733D01*
X011636Y019769D02*
X011530Y019664D01*
X011530Y018905D01*
X011599Y018837D01*
X011599Y018755D01*
X011568Y018778D01*
X011513Y018834D01*
X011494Y018834D01*
X011479Y018846D01*
X011401Y018835D01*
X009921Y018852D01*
X009869Y018904D01*
X009748Y018954D01*
X009617Y018954D01*
X009497Y018904D01*
X009404Y018811D01*
X009354Y018690D01*
X009354Y018559D01*
X009404Y018439D01*
X009497Y018346D01*
X009617Y018296D01*
X009748Y018296D01*
X009869Y018346D01*
X009915Y018392D01*
X011336Y018376D01*
X011421Y018311D01*
X011421Y018284D01*
X011471Y018163D01*
X011564Y018070D01*
X011684Y018020D01*
X011706Y018020D01*
X011599Y017913D01*
X011438Y017753D01*
X011303Y017618D01*
X011303Y016077D01*
X011295Y015994D01*
X011303Y015984D01*
X011303Y015971D01*
X011332Y015941D01*
X009966Y015941D01*
X009965Y015942D01*
X009834Y015942D01*
X009713Y015892D01*
X009621Y015799D01*
X009571Y015678D01*
X009571Y015548D01*
X009621Y015427D01*
X009713Y015334D01*
X009834Y015284D01*
X009965Y015284D01*
X010086Y015334D01*
X010178Y015427D01*
X010201Y015481D01*
X011300Y015481D01*
X011517Y015265D01*
X012164Y015265D01*
X012213Y015216D01*
X012334Y015166D01*
X012465Y015166D01*
X012586Y015216D01*
X012678Y015309D01*
X012728Y015430D01*
X012728Y015560D01*
X012679Y015678D01*
X012973Y015678D01*
X013367Y015285D01*
X014501Y015285D01*
X014569Y015217D01*
X015328Y015217D01*
X015434Y015322D01*
X015434Y015707D01*
X015430Y015711D01*
X015434Y015716D01*
X015434Y016101D01*
X015430Y016105D01*
X015434Y016109D01*
X015434Y016495D01*
X015430Y016499D01*
X015434Y016503D01*
X015434Y016888D01*
X015430Y016893D01*
X015434Y016897D01*
X015434Y017282D01*
X015328Y017388D01*
X014569Y017388D01*
X014501Y017319D01*
X014273Y017319D01*
X014174Y017221D01*
X013873Y017221D01*
X013496Y017598D01*
X013404Y017690D01*
X013437Y017723D01*
X013633Y017919D01*
X013633Y018837D01*
X013701Y018905D01*
X013701Y019664D01*
X013596Y019769D01*
X013211Y019769D01*
X013207Y019765D01*
X013202Y019769D01*
X012817Y019769D01*
X012813Y019765D01*
X012809Y019769D01*
X012423Y019769D01*
X012419Y019765D01*
X012415Y019769D01*
X012030Y019769D01*
X012025Y019765D01*
X012021Y019769D01*
X011636Y019769D01*
X011530Y019257D02*
X008449Y019257D01*
X008496Y019099D02*
X011530Y019099D01*
X011530Y018940D02*
X009781Y018940D01*
X009584Y018940D02*
X008974Y018940D01*
X008777Y018940D02*
X008482Y018940D01*
X008966Y018306D02*
X009593Y018306D01*
X009773Y018306D02*
X011421Y018306D01*
X011486Y018148D02*
X008704Y018148D01*
X008546Y017989D02*
X011675Y017989D01*
X011516Y017831D02*
X008387Y017831D01*
X008229Y017672D02*
X011358Y017672D01*
X011303Y017514D02*
X008200Y017514D01*
X008200Y017355D02*
X011303Y017355D01*
X011303Y017197D02*
X008200Y017197D01*
X008200Y017038D02*
X011303Y017038D01*
X011303Y016880D02*
X008200Y016880D01*
X008200Y016721D02*
X011303Y016721D01*
X011303Y016563D02*
X008200Y016563D01*
X008200Y016404D02*
X011303Y016404D01*
X011303Y016246D02*
X008200Y016246D01*
X008200Y016087D02*
X011303Y016087D01*
X011329Y015453D02*
X010189Y015453D01*
X009990Y015295D02*
X011487Y015295D01*
X012664Y015295D02*
X013357Y015295D01*
X013199Y015453D02*
X012728Y015453D01*
X012707Y015612D02*
X013040Y015612D01*
X013739Y017355D02*
X014536Y017355D01*
X015361Y017355D02*
X015466Y017355D01*
X015466Y017197D02*
X015434Y017197D01*
X015434Y017038D02*
X015466Y017038D01*
X015466Y016880D02*
X015434Y016880D01*
X015434Y016721D02*
X015466Y016721D01*
X015466Y016563D02*
X015434Y016563D01*
X015434Y016404D02*
X015466Y016404D01*
X015466Y016246D02*
X015434Y016246D01*
X015434Y016087D02*
X015466Y016087D01*
X015437Y015929D02*
X015434Y015929D01*
X015434Y015770D02*
X015475Y015770D01*
X015434Y015612D02*
X015670Y015612D01*
X015861Y015612D02*
X016781Y015612D01*
X016782Y015770D02*
X016056Y015770D01*
X016094Y015929D02*
X016782Y015929D01*
X016782Y016087D02*
X016066Y016087D01*
X016066Y016246D02*
X016782Y016246D01*
X016782Y016404D02*
X016066Y016404D01*
X016066Y016563D02*
X016783Y016563D01*
X016783Y016721D02*
X016066Y016721D01*
X016066Y016880D02*
X016783Y016880D01*
X016783Y017038D02*
X016066Y017038D01*
X016066Y017197D02*
X016784Y017197D01*
X016784Y017355D02*
X016066Y017355D01*
X016066Y017514D02*
X016784Y017514D01*
X015466Y017514D02*
X013580Y017514D01*
X013422Y017672D02*
X015466Y017672D01*
X015466Y017831D02*
X013545Y017831D01*
X013633Y017989D02*
X015466Y017989D01*
X015466Y018148D02*
X013633Y018148D01*
X013633Y018306D02*
X015466Y018306D01*
X015466Y018465D02*
X013633Y018465D01*
X013633Y018623D02*
X015466Y018623D01*
X015466Y018782D02*
X013633Y018782D01*
X013701Y018940D02*
X015466Y018940D01*
X015466Y019099D02*
X013701Y019099D01*
X013701Y019257D02*
X015466Y019257D01*
X015397Y019416D02*
X013701Y019416D01*
X013701Y019574D02*
X015239Y019574D01*
X015130Y019733D02*
X013633Y019733D01*
X014965Y019891D02*
X005096Y019891D01*
X004938Y019733D02*
X005936Y019733D01*
X005826Y019574D02*
X004779Y019574D01*
X004621Y019416D02*
X005811Y019416D01*
X005889Y019257D02*
X004462Y019257D01*
X004304Y019099D02*
X005256Y019099D01*
X005251Y018940D02*
X004687Y018940D01*
X004795Y018782D02*
X005251Y018782D01*
X005251Y018623D02*
X004809Y018623D01*
X004285Y018940D02*
X004145Y018940D01*
X004177Y018782D02*
X003987Y018782D01*
X004041Y018623D02*
X003828Y018623D01*
X003776Y018465D02*
X003670Y018465D01*
X003775Y018306D02*
X003511Y018306D01*
X003495Y018148D02*
X003775Y018148D01*
X003775Y017989D02*
X003496Y017989D01*
X003497Y017831D02*
X003775Y017831D01*
X003775Y017672D02*
X003498Y017672D01*
X003499Y017514D02*
X003775Y017514D01*
X003775Y017355D02*
X003499Y017355D01*
X003500Y017197D02*
X003775Y017197D01*
X003775Y017038D02*
X003501Y017038D01*
X003502Y016880D02*
X003792Y016880D01*
X003243Y016677D02*
X003246Y016440D01*
X003226Y016381D01*
X003243Y016677D02*
X003235Y018191D01*
X003246Y018408D01*
X005077Y020239D01*
X008777Y020239D01*
X009329Y020790D01*
X009919Y020790D01*
X010451Y020259D01*
X014958Y020259D01*
X015490Y019747D01*
X015434Y015453D02*
X016781Y015453D01*
X016780Y014502D02*
X008200Y014502D01*
X008200Y014344D02*
X016780Y014344D01*
X016779Y014185D02*
X008200Y014185D01*
X008200Y014027D02*
X016779Y014027D01*
X016779Y013868D02*
X008200Y013868D01*
X008200Y013710D02*
X016779Y013710D01*
X016778Y013551D02*
X008275Y013551D01*
X008299Y013393D02*
X016778Y013393D01*
X016778Y013234D02*
X008241Y013234D01*
X008245Y013076D02*
X016778Y013076D01*
X016777Y012917D02*
X008260Y012917D01*
X008179Y012759D02*
X016777Y012759D01*
X015971Y014661D02*
X008200Y014661D01*
X008200Y014819D02*
X015940Y014819D01*
X015940Y014978D02*
X008200Y014978D01*
X008200Y015136D02*
X015940Y015136D01*
X015940Y015295D02*
X015406Y015295D01*
X011599Y018782D02*
X011564Y018782D01*
X010292Y020050D02*
X008956Y020050D01*
X009114Y020208D02*
X010134Y020208D01*
X009975Y020367D02*
X009273Y020367D01*
X009431Y020525D02*
X009817Y020525D01*
X009392Y018782D02*
X009167Y018782D01*
X009205Y018623D02*
X009354Y018623D01*
X009393Y018465D02*
X009165Y018465D01*
X009802Y015929D02*
X008200Y015929D01*
X008200Y015770D02*
X009608Y015770D01*
X009571Y015612D02*
X008200Y015612D01*
X008200Y015453D02*
X009610Y015453D01*
X009809Y015295D02*
X008200Y015295D01*
X006417Y018782D02*
X006320Y018782D01*
X006344Y019733D02*
X006402Y019733D01*
X005077Y020239D02*
X003246Y018408D01*
D25*
X004260Y018517D02*
X004260Y018271D01*
X004260Y018517D02*
X004486Y018684D01*
X004279Y017897D02*
X004260Y017877D01*
X004279Y017897D02*
X004880Y017897D01*
X004880Y017483D02*
X004260Y017483D01*
X004260Y017089D02*
X004880Y017089D01*
X004260Y016302D02*
X003958Y016302D01*
X003636Y015980D01*
X004919Y014727D02*
X004939Y014727D01*
X005687Y013979D01*
X005687Y013704D01*
X005726Y013664D01*
X005008Y013664D02*
X004988Y013684D01*
X003994Y013684D01*
X004014Y013172D02*
X004909Y013172D01*
X005008Y013271D01*
X006021Y012660D02*
X007242Y013881D01*
X007380Y014019D01*
X007380Y017483D01*
X007301Y017601D01*
X007301Y017936D01*
X007577Y018330D02*
X007665Y018399D01*
X007577Y018330D01*
X007577Y013822D01*
X006750Y012975D01*
X006750Y009058D01*
X006770Y009038D01*
X007439Y008900D02*
X006533Y007995D01*
X006533Y007798D01*
X006514Y007778D01*
X006888Y007778D02*
X007458Y007778D01*
X007636Y008251D02*
X007990Y008605D01*
X010431Y008605D01*
X010569Y008467D01*
X010569Y007837D01*
X011002Y007404D01*
X011435Y007404D01*
X011947Y006893D01*
X011947Y006873D01*
X011947Y006558D01*
X012262Y006263D02*
X012262Y006991D01*
X011435Y007798D01*
X011455Y006794D02*
X011277Y006597D01*
X010490Y006597D01*
X009880Y007326D02*
X009525Y006971D01*
X008305Y006971D01*
X008147Y007129D01*
X007577Y007129D01*
X007419Y006971D01*
X007419Y006223D01*
X007537Y006105D01*
X007833Y006105D01*
X007852Y006125D01*
X007851Y006119D02*
X007851Y006054D01*
X008351Y005554D01*
X008651Y006054D02*
X008651Y006619D01*
X008651Y006676D01*
X008651Y006754D01*
X007851Y006754D01*
X008049Y007306D02*
X004880Y007306D01*
X004860Y007286D01*
X004565Y007286D01*
X004151Y007154D02*
X004151Y006354D01*
X004451Y006654D01*
X004551Y006654D01*
X004151Y006354D02*
X004151Y006254D01*
X003951Y006054D01*
X003451Y006354D02*
X003751Y006654D01*
X003758Y006637D02*
X003423Y006637D01*
X003285Y006774D01*
X003285Y007503D01*
X003482Y007700D01*
X004860Y007700D01*
X005057Y007503D01*
X007970Y007503D01*
X008325Y007857D01*
X008344Y007916D01*
X008364Y007621D02*
X008049Y007306D01*
X008364Y007621D02*
X008521Y007621D01*
X008659Y007621D01*
X008659Y008251D01*
X008718Y008330D01*
X008462Y008900D02*
X007439Y008900D01*
X008659Y007306D02*
X009388Y007306D01*
X009525Y007444D01*
X009525Y008074D01*
X009742Y008290D01*
X010037Y008290D01*
X009880Y007877D02*
X009880Y007326D01*
X007851Y006154D02*
X007851Y006119D01*
X004151Y007154D02*
X004051Y007254D01*
X003751Y007254D01*
X003451Y006354D02*
X003451Y005654D01*
X008187Y011755D02*
X008600Y011755D01*
X008777Y011932D01*
X008777Y012877D01*
X007931Y012975D02*
X007872Y012975D01*
X007616Y013231D01*
X007616Y013526D01*
X007773Y013684D01*
X007773Y018054D01*
X008384Y018625D01*
X008738Y018507D02*
X008876Y018625D01*
X008738Y018507D02*
X007970Y017739D01*
X007970Y013428D01*
X007006Y014176D02*
X007124Y014353D01*
X007124Y017227D01*
X007665Y018399D02*
X007734Y018467D01*
X007734Y018664D01*
X008167Y019078D02*
X007980Y019265D01*
X007399Y019265D01*
X007025Y019245D02*
X007025Y018900D01*
X007025Y019245D02*
X007006Y019265D01*
X006612Y019265D02*
X006346Y019265D01*
X006140Y019471D01*
X005431Y018271D02*
X005470Y018172D01*
X005529Y018211D01*
X005313Y015456D02*
X005254Y015397D01*
X005313Y015456D02*
X005155Y015298D01*
X009604Y020436D02*
X009722Y020436D01*
X009781Y020377D01*
X011021Y019255D02*
X011041Y019235D01*
X011041Y019196D01*
X011415Y018605D02*
X011750Y018349D01*
X012084Y018487D02*
X011829Y018743D01*
X011829Y019284D01*
X012222Y019284D02*
X012222Y018802D01*
X012084Y018487D02*
X012084Y018074D01*
X011829Y017818D01*
X011533Y017523D01*
X011533Y016066D01*
X011710Y015849D01*
X011396Y015711D02*
X011612Y015495D01*
X012399Y015495D01*
X012399Y015908D02*
X013069Y015908D01*
X013462Y015515D01*
X014949Y015515D01*
X014949Y015908D02*
X013502Y015908D01*
X013108Y016302D01*
X012399Y016302D01*
X012399Y016696D02*
X013147Y016696D01*
X013541Y016302D01*
X014949Y016302D01*
X014949Y016696D02*
X013581Y016696D01*
X013187Y017089D01*
X012399Y017089D01*
X012399Y017503D02*
X013266Y017503D01*
X013777Y016991D01*
X014270Y016991D01*
X014368Y017089D01*
X014949Y017089D01*
X013403Y018015D02*
X013207Y017818D01*
X012222Y017818D01*
X011986Y017582D01*
X011986Y017267D01*
X011829Y017109D01*
X012773Y018093D02*
X012616Y018251D01*
X012616Y019284D01*
X012990Y019265D02*
X012990Y018822D01*
X012990Y019265D02*
X013010Y019284D01*
X013403Y019284D02*
X013403Y018015D01*
X011415Y018605D02*
X009683Y018625D01*
X009998Y015711D02*
X009899Y015613D01*
X009998Y015711D02*
X011396Y015711D01*
X012596Y008900D02*
X012892Y008900D01*
X014447Y007345D01*
X014447Y006204D01*
X013451Y005954D02*
X013451Y006619D01*
X013451Y006637D01*
X013451Y006654D01*
X013451Y006754D01*
X012651Y006754D01*
X012262Y006263D02*
X012380Y006125D01*
X012655Y006125D01*
X012651Y006154D02*
X013251Y005554D01*
D26*
X013462Y007286D03*
X012596Y008900D03*
X011691Y010101D03*
X011710Y010771D03*
X012478Y010987D03*
X010037Y008290D03*
X009880Y007877D03*
X010490Y006597D03*
X011455Y006794D03*
X011947Y006558D03*
X011435Y007798D03*
X008718Y008330D03*
X008344Y007916D03*
X007636Y008251D03*
X007458Y007778D03*
X006888Y007778D03*
X006514Y007778D03*
X006770Y009038D03*
X007675Y010278D03*
X007695Y011026D03*
X008462Y010790D03*
X008187Y011774D03*
X007931Y012975D03*
X007970Y013428D03*
X009899Y015613D03*
X010982Y014786D03*
X011710Y015849D03*
X012399Y015908D03*
X012399Y016302D03*
X012399Y016696D03*
X012399Y017089D03*
X012399Y017503D03*
X011829Y017109D03*
X011750Y018349D03*
X012222Y018802D03*
X012773Y018093D03*
X012990Y018822D03*
X011041Y019196D03*
X009683Y018625D03*
X008876Y018625D03*
X008384Y018625D03*
X008167Y019078D03*
X007734Y018664D03*
X007025Y018900D03*
X006140Y019471D03*
X009604Y020436D03*
X012399Y015495D03*
X015766Y015928D03*
X008462Y008900D03*
X005726Y013664D03*
X003994Y013684D03*
X004014Y013172D03*
D27*
X007693Y011034D02*
X007695Y011034D01*
X007695Y011026D01*
X007695Y010286D02*
X007695Y010278D01*
X007693Y010278D02*
X007693Y010286D01*
X007695Y010286D01*
X007693Y010278D02*
X007675Y010278D01*
X008462Y010101D02*
X008473Y010101D01*
X008473Y010125D01*
X008462Y010790D02*
X008462Y010794D01*
X008473Y010794D01*
X008659Y007306D02*
X008659Y007289D01*
X008651Y007289D01*
X008651Y006676D02*
X008651Y006619D01*
X007851Y006754D02*
X007851Y006789D01*
X007851Y006125D02*
X007851Y006119D01*
X007852Y006125D02*
X007851Y006125D01*
X004551Y006619D02*
X004551Y006654D01*
X004551Y007286D02*
X004551Y007289D01*
X004551Y007286D02*
X004565Y007286D01*
X003751Y007254D02*
X003751Y007289D01*
X003751Y006654D02*
X003751Y006637D01*
X003758Y006637D01*
X003758Y006619D01*
X003751Y006619D01*
X011691Y010101D02*
X011699Y010101D01*
X011699Y010097D01*
X011699Y010767D02*
X011699Y010771D01*
X011710Y010771D01*
X012478Y010987D02*
X012483Y010987D01*
X012483Y010994D01*
X012483Y010246D02*
X012483Y010239D01*
X012478Y010239D01*
X013451Y007289D02*
X013451Y007286D01*
X013462Y007286D01*
X013451Y006637D02*
X013451Y006619D01*
X012651Y006754D02*
X012651Y006789D01*
X012651Y006154D02*
X012651Y006119D01*
X012651Y006125D01*
X012655Y006125D01*
D28*
X010810Y003852D03*
X010810Y003190D03*
X015511Y003210D03*
X015511Y003892D03*
X005970Y003833D03*
X005990Y003151D03*
D29*
X006021Y012660D03*
X007006Y014176D03*
X005155Y015298D03*
X004880Y017089D03*
X004880Y017483D03*
X004880Y017897D03*
X005529Y018211D03*
X004486Y018684D03*
X007124Y017227D03*
X007301Y017936D03*
D30*
X013994Y017365D03*
X014466Y014708D03*
D31*
X015766Y015928D02*
X015766Y019471D01*
X015490Y019747D01*
M02*
