G75*
%MOIN*%
%OFA0B0*%
%FSLAX24Y24*%
%IPPOS*%
%LPD*%
%AMOC8*
5,1,8,0,0,1.08239X$1,22.5*
%
%ADD10R,0.0178X0.0434*%
%ADD11R,0.2442X0.0880*%
%ADD12R,0.0595X0.0595*%
%ADD13R,0.0631X0.0356*%
%ADD14R,0.1773X0.2049*%
%ADD15R,0.0592X0.0671*%
%ADD16R,0.0513X0.0474*%
%ADD17R,0.0474X0.0513*%
%ADD18R,0.0671X0.0592*%
%ADD19R,0.0789X0.1497*%
%ADD20R,0.0789X0.1025*%
%ADD21R,0.0710X0.1143*%
%ADD22R,0.2580X0.1330*%
%ADD23R,0.0167X0.0474*%
%ADD24R,0.0474X0.0167*%
%ADD25R,0.0560X0.0960*%
%ADD26R,0.1497X0.0946*%
%ADD27C,0.0907*%
%ADD28R,0.0781X0.0363*%
%ADD29R,0.0493X0.0505*%
%ADD30OC8,0.0710*%
%ADD31C,0.0710*%
%ADD32C,0.0378*%
%ADD33R,0.0476X0.0476*%
%ADD34C,0.0366*%
%ADD35C,0.0476*%
D10*
X007393Y009307D03*
X007590Y009307D03*
X007787Y009307D03*
X007984Y009307D03*
X008181Y009307D03*
X008377Y009307D03*
X008574Y009307D03*
X008771Y009307D03*
X008968Y009307D03*
X009165Y009307D03*
X009362Y009307D03*
X009558Y009307D03*
X009755Y009307D03*
X009952Y009307D03*
X010149Y009307D03*
X010346Y009307D03*
X010543Y009307D03*
X010740Y009307D03*
X010936Y009307D03*
X011133Y009307D03*
X011330Y009307D03*
X011527Y009307D03*
X011724Y009307D03*
X011921Y009307D03*
X012118Y009307D03*
X012314Y009307D03*
X012511Y009307D03*
X012708Y009307D03*
X012708Y012496D03*
X012511Y012496D03*
X012314Y012496D03*
X012118Y012496D03*
X011921Y012496D03*
X011724Y012496D03*
X011527Y012496D03*
X011330Y012496D03*
X011133Y012496D03*
X010936Y012496D03*
X010740Y012496D03*
X010543Y012496D03*
X010346Y012496D03*
X010149Y012496D03*
X009952Y012496D03*
X009755Y012496D03*
X009558Y012496D03*
X009362Y012496D03*
X009165Y012496D03*
X008968Y012496D03*
X008771Y012496D03*
X008574Y012496D03*
X008377Y012496D03*
X008181Y012496D03*
X007984Y012496D03*
X007787Y012496D03*
X007590Y012496D03*
X007393Y012496D03*
D11*
X010051Y010901D03*
D12*
X010051Y010901D03*
X010801Y010901D03*
X009301Y010901D03*
D13*
X010694Y006004D03*
X010694Y005504D03*
X010694Y005004D03*
X010694Y004504D03*
X005894Y004504D03*
X005894Y005004D03*
X005894Y005504D03*
X005894Y006004D03*
X015494Y006004D03*
X015494Y005504D03*
X015494Y005004D03*
X015494Y004504D03*
D14*
X014057Y005254D03*
X009257Y005254D03*
X004457Y005254D03*
D15*
X005977Y003833D03*
X005977Y003171D03*
X006725Y003171D03*
X006725Y003833D03*
X010796Y003833D03*
X010796Y003190D03*
X011544Y003190D03*
X011544Y003833D03*
X015518Y003872D03*
X015498Y003230D03*
X016246Y003230D03*
X016266Y003872D03*
D16*
X016251Y006119D03*
X016251Y006789D03*
X016457Y007493D03*
X016457Y008163D03*
X015451Y007289D03*
X015451Y006619D03*
X012100Y007811D03*
X011431Y007811D03*
X010566Y007870D03*
X010473Y007269D03*
X010473Y006600D03*
X011451Y006789D03*
X011451Y006119D03*
X009896Y007870D03*
X009011Y007909D03*
X008342Y007909D03*
X006772Y009031D03*
X006772Y009700D03*
X005970Y009026D03*
X005970Y008357D03*
X005851Y007289D03*
X005851Y006619D03*
X006651Y006789D03*
X006651Y006119D03*
X003600Y013093D03*
X003600Y013763D03*
X008540Y020423D03*
X009210Y020423D03*
X010983Y014782D03*
X011652Y014782D03*
X011571Y013839D03*
X011571Y013170D03*
X012528Y013177D03*
X012528Y013846D03*
X013210Y013723D03*
X013880Y013723D03*
X013347Y013053D03*
X013347Y012384D03*
X013351Y011822D03*
X013351Y011152D03*
X014433Y011822D03*
X014433Y012491D03*
X015444Y013684D03*
X016114Y013684D03*
D17*
X013378Y010419D03*
X013378Y009750D03*
X013371Y009152D03*
X013371Y008482D03*
X013362Y007834D03*
X012693Y007834D03*
X010017Y013515D03*
X010017Y014185D03*
X008466Y014078D03*
X008466Y013409D03*
X006877Y011282D03*
X006877Y010612D03*
X005158Y009023D03*
X005158Y008354D03*
X005787Y015807D03*
X005787Y016476D03*
X005513Y018667D03*
X005513Y019337D03*
X010905Y019782D03*
X011381Y019785D03*
X011381Y020454D03*
X010905Y020452D03*
X013965Y018613D03*
X013965Y017944D03*
X012536Y015060D03*
X012536Y014391D03*
D18*
X010789Y013989D03*
X010789Y013241D03*
D19*
X014317Y010571D03*
X015892Y010571D03*
D20*
X016000Y009091D03*
X014405Y009091D03*
D21*
X015281Y012150D03*
X016384Y012150D03*
X012502Y005054D03*
X011399Y005054D03*
X007702Y005054D03*
X006599Y005054D03*
D22*
X015351Y001554D03*
D23*
X010279Y015131D03*
X010082Y015131D03*
X009885Y015131D03*
X009689Y015131D03*
X009492Y015131D03*
X009295Y015131D03*
X009098Y015131D03*
X008901Y015131D03*
X008704Y015131D03*
X008507Y015131D03*
X008311Y015131D03*
X008114Y015131D03*
X007917Y015131D03*
X007720Y015131D03*
X007523Y015131D03*
X007326Y015131D03*
X007326Y019659D03*
X007523Y019659D03*
X007720Y019659D03*
X007917Y019659D03*
X008114Y019659D03*
X008311Y019659D03*
X008507Y019659D03*
X008704Y019659D03*
X008901Y019659D03*
X009098Y019659D03*
X009295Y019659D03*
X009492Y019659D03*
X009689Y019659D03*
X009885Y019659D03*
X010082Y019659D03*
X010279Y019659D03*
D24*
X011067Y018872D03*
X011067Y018675D03*
X011067Y018478D03*
X011067Y018281D03*
X011067Y018084D03*
X011067Y017887D03*
X011067Y017691D03*
X011067Y017494D03*
X011067Y017297D03*
X011067Y017100D03*
X011067Y016903D03*
X011067Y016706D03*
X011067Y016509D03*
X011067Y016313D03*
X011067Y016116D03*
X011067Y015919D03*
X006539Y015919D03*
X006539Y016116D03*
X006539Y016313D03*
X006539Y016509D03*
X006539Y016706D03*
X006539Y016903D03*
X006539Y017100D03*
X006539Y017297D03*
X006539Y017494D03*
X006539Y017691D03*
X006539Y017887D03*
X006539Y018084D03*
X006539Y018281D03*
X006539Y018478D03*
X006539Y018675D03*
X006539Y018872D03*
D25*
X013564Y014698D03*
X014474Y014698D03*
X015384Y014698D03*
D26*
X014474Y017138D03*
D27*
X003951Y003554D03*
X008851Y003554D03*
X013751Y003554D03*
D28*
X006415Y012678D03*
X006415Y013178D03*
X006415Y013678D03*
X006415Y014178D03*
X004565Y014178D03*
X004565Y013678D03*
X004565Y013178D03*
X004565Y012678D03*
D29*
X004575Y014708D03*
X003886Y014708D03*
X005834Y014806D03*
X006523Y014806D03*
D30*
X007017Y002306D03*
X011879Y002286D03*
D31*
X010479Y002286D03*
X005617Y002306D03*
D32*
X006514Y007778D03*
X006888Y007778D03*
X007458Y007778D03*
X007636Y008251D03*
X008344Y007916D03*
X008718Y008330D03*
X008462Y008900D03*
X007675Y010278D03*
X007695Y011026D03*
X008462Y010790D03*
X008187Y011774D03*
X007931Y012975D03*
X007970Y013428D03*
X009899Y015613D03*
X010982Y014786D03*
X011710Y015849D03*
X012399Y015908D03*
X012399Y016302D03*
X012399Y016696D03*
X012399Y017089D03*
X012399Y017503D03*
X011829Y017109D03*
X011750Y018349D03*
X012222Y018802D03*
X012773Y018093D03*
X012990Y018822D03*
X011041Y019196D03*
X009683Y018625D03*
X008876Y018625D03*
X008384Y018625D03*
X008167Y019078D03*
X007734Y018664D03*
X007025Y018900D03*
X006140Y019471D03*
X009604Y020436D03*
X012399Y015495D03*
X015766Y015928D03*
X012478Y010987D03*
X011710Y010771D03*
X011691Y010101D03*
X012596Y008900D03*
X011435Y007798D03*
X011455Y006794D03*
X011947Y006558D03*
X010490Y006597D03*
X009880Y007877D03*
X010037Y008290D03*
X006770Y009038D03*
X004014Y013172D03*
X003994Y013684D03*
X005726Y013664D03*
X013462Y007286D03*
D33*
X015511Y003892D03*
X015511Y003210D03*
X010810Y003190D03*
X010810Y003852D03*
X005970Y003833D03*
X005990Y003151D03*
D34*
X006021Y012660D03*
X007006Y014176D03*
X005155Y015298D03*
X004880Y017089D03*
X004880Y017483D03*
X004880Y017897D03*
X005529Y018211D03*
X004486Y018684D03*
X007124Y017227D03*
X007301Y017936D03*
D35*
X013994Y017365D03*
X014466Y014708D03*
M02*
