M48
INCH
T01C0.0315
T02C0.0433
%
T01
X+005176Y+010974
X+005146Y+011904
X+005156Y+012744
X+008436Y+012664
X+008426Y+011824
X+008456Y+010894
X+011576Y+010974
X+011546Y+011904
X+011556Y+012744
X+014756Y+012744
X+014746Y+011904
X+014776Y+010974
X+017816Y+010974
X+017786Y+011904
X+017796Y+012744
T02
X+006296Y+011004
X+006286Y+011954
X+006276Y+012754
X+009556Y+012674
X+009566Y+011874
X+009576Y+010924
X+012696Y+011004
X+012686Y+011954
X+012676Y+012754
X+015876Y+012754
X+015886Y+011954
X+015896Y+011004
X+018936Y+011004
X+018926Y+011954
X+018916Y+012754
T00
M30
