G04 Layer: TopSilkLayer*
G04 EasyEDA v6.4.17, 2021-03-02T09:49:47--3:00*
G04 75982556833f470fbfa1e054b907e15e,59636247558045d2802cba280e4ac9d9,10*
G04 Gerber Generator version 0.2*
G04 Scale: 100 percent, Rotated: No, Reflected: No *
G04 Dimensions in inches *
G04 leading zeros omitted , absolute positions ,3 integer and 6 decimal *
%FSLAX36Y36*%
%MOIN*%

%ADD10C,0.0100*%
%ADD51C,0.0079*%
%ADD52C,0.0059*%
%ADD53C,0.0047*%
%ADD54C,0.0060*%
%ADD55C,0.0051*%
%ADD56C,0.0059*%
%ADD57C,0.0080*%

%LPD*%
D57*
X-1160000Y670400D02*
G01*
X-1160000Y632200D01*
X-1160000Y632200D02*
G01*
X-1138200Y632200D01*
X-1111600Y670400D02*
G01*
X-1126200Y632200D01*
X-1111600Y670400D02*
G01*
X-1097100Y632200D01*
X-1120700Y644900D02*
G01*
X-1102500Y644900D01*
X-1085100Y670400D02*
G01*
X-1085100Y632200D01*
X-1073100Y670400D02*
G01*
X-1073100Y632200D01*
X-1047599Y670400D02*
G01*
X-1073100Y644900D01*
X-1064000Y654000D02*
G01*
X-1047599Y632200D01*
X-1021100Y670400D02*
G01*
X-1035600Y632200D01*
X-1021100Y670400D02*
G01*
X-1006500Y632200D01*
X-1030200Y644900D02*
G01*
X-1012000Y644900D01*
X-966500Y670400D02*
G01*
X-966500Y632200D01*
X-966500Y670400D02*
G01*
X-953800Y670400D01*
X-948400Y668500D01*
X-944700Y664900D01*
X-942899Y661300D01*
X-941100Y655800D01*
X-941100Y646700D01*
X-942899Y641300D01*
X-944700Y637600D01*
X-948400Y634000D01*
X-953800Y632200D01*
X-966500Y632200D01*
X-929100Y657600D02*
G01*
X-929100Y632200D01*
X-929100Y646700D02*
G01*
X-927299Y652200D01*
X-923600Y655800D01*
X-920000Y657600D01*
X-914500Y657600D01*
X-902500Y670400D02*
G01*
X-900699Y668500D01*
X-898900Y670400D01*
X-900699Y672200D01*
X-902500Y670400D01*
X-900699Y657600D02*
G01*
X-900699Y632200D01*
X-886900Y657600D02*
G01*
X-876000Y632200D01*
X-865100Y657600D02*
G01*
X-876000Y632200D01*
X-853100Y646700D02*
G01*
X-831300Y646700D01*
X-831300Y650400D01*
X-833100Y654000D01*
X-834900Y655800D01*
X-838500Y657600D01*
X-844000Y657600D01*
X-847600Y655800D01*
X-851300Y652200D01*
X-853100Y646700D01*
X-853100Y643100D01*
X-851300Y637600D01*
X-847600Y634000D01*
X-844000Y632200D01*
X-838500Y632200D01*
X-834900Y634000D01*
X-831300Y637600D01*
X-819300Y657600D02*
G01*
X-819300Y632200D01*
X-819300Y646700D02*
G01*
X-817500Y652200D01*
X-813800Y655800D01*
X-810200Y657600D01*
X-804700Y657600D01*
X-1160000Y597600D02*
G01*
X-1149100Y572200D01*
X-1138200Y597600D02*
G01*
X-1149100Y572200D01*
X-1126200Y603100D02*
G01*
X-1122500Y604900D01*
X-1117100Y610400D01*
X-1117100Y572200D01*
X-1103300Y581300D02*
G01*
X-1105100Y579500D01*
X-1103300Y577600D01*
X-1101500Y579500D01*
X-1103300Y581300D01*
X-1078500Y610400D02*
G01*
X-1084000Y608500D01*
X-1087600Y603100D01*
X-1089500Y594000D01*
X-1089500Y588500D01*
X-1087600Y579500D01*
X-1084000Y574000D01*
X-1078500Y572200D01*
X-1074900Y572200D01*
X-1069500Y574000D01*
X-1065800Y579500D01*
X-1064000Y588500D01*
X-1064000Y594000D01*
X-1065800Y603100D01*
X-1069500Y608500D01*
X-1074900Y610400D01*
X-1078500Y610400D01*
X-1146100Y537400D02*
G01*
X-1147700Y540500D01*
X-1150900Y543700D01*
X-1154100Y545300D01*
X-1160500Y545300D01*
X-1163600Y543700D01*
X-1166800Y540500D01*
X-1168400Y537400D01*
X-1170000Y532600D01*
X-1170000Y524599D01*
X-1168400Y519899D01*
X-1166800Y516700D01*
X-1163600Y513499D01*
X-1160500Y511900D01*
X-1154100Y511900D01*
X-1150900Y513499D01*
X-1147700Y516700D01*
X-1146100Y519899D01*
X-1146100Y524599D01*
X-1154100Y524599D02*
G01*
X-1146100Y524599D01*
X-1116500Y534200D02*
G01*
X-1116500Y511900D01*
X-1116500Y529400D02*
G01*
X-1119700Y532600D01*
X-1122900Y534200D01*
X-1127700Y534200D01*
X-1130900Y532600D01*
X-1134000Y529400D01*
X-1135600Y524599D01*
X-1135600Y521500D01*
X-1134000Y516700D01*
X-1130900Y513499D01*
X-1127700Y511900D01*
X-1122900Y511900D01*
X-1119700Y513499D01*
X-1116500Y516700D01*
X-1106000Y545300D02*
G01*
X-1106000Y511900D01*
X-1106000Y529400D02*
G01*
X-1102900Y532600D01*
X-1099700Y534200D01*
X-1094900Y534200D01*
X-1091700Y532600D01*
X-1088500Y529400D01*
X-1087000Y524599D01*
X-1087000Y521500D01*
X-1088500Y516700D01*
X-1091700Y513499D01*
X-1094900Y511900D01*
X-1099700Y511900D01*
X-1102900Y513499D01*
X-1106000Y516700D01*
X-1076500Y534200D02*
G01*
X-1076500Y511900D01*
X-1076500Y524599D02*
G01*
X-1074900Y529400D01*
X-1071700Y532600D01*
X-1068500Y534200D01*
X-1063700Y534200D01*
X-1053200Y545300D02*
G01*
X-1051600Y543700D01*
X-1050000Y545300D01*
X-1051600Y546900D01*
X-1053200Y545300D01*
X-1051600Y534200D02*
G01*
X-1051600Y511900D01*
X-1039500Y524599D02*
G01*
X-1020500Y524599D01*
X-1020500Y527800D01*
X-1022000Y531000D01*
X-1023600Y532600D01*
X-1026800Y534200D01*
X-1031600Y534200D01*
X-1034799Y532600D01*
X-1038000Y529400D01*
X-1039500Y524599D01*
X-1039500Y521500D01*
X-1038000Y516700D01*
X-1034799Y513499D01*
X-1031600Y511900D01*
X-1026800Y511900D01*
X-1023600Y513499D01*
X-1020500Y516700D01*
X-1010000Y545300D02*
G01*
X-1010000Y511900D01*
X-975000Y545300D02*
G01*
X-975000Y511900D01*
X-975000Y545300D02*
G01*
X-960600Y545300D01*
X-955900Y543700D01*
X-954300Y542099D01*
X-952700Y539000D01*
X-952700Y535800D01*
X-954300Y532600D01*
X-955900Y531000D01*
X-960600Y529400D01*
X-975000Y529400D02*
G01*
X-960600Y529400D01*
X-955900Y527800D01*
X-954300Y526200D01*
X-952700Y523000D01*
X-952700Y518300D01*
X-954300Y515100D01*
X-955900Y513499D01*
X-960600Y511900D01*
X-975000Y511900D01*
X-942200Y524599D02*
G01*
X-923100Y524599D01*
X-923100Y527800D01*
X-924700Y531000D01*
X-926300Y532600D01*
X-929500Y534200D01*
X-934200Y534200D01*
X-937400Y532600D01*
X-940600Y529400D01*
X-942200Y524599D01*
X-942200Y521500D01*
X-940600Y516700D01*
X-937400Y513499D01*
X-934200Y511900D01*
X-929500Y511900D01*
X-926300Y513499D01*
X-923100Y516700D01*
X-907800Y545300D02*
G01*
X-907800Y518300D01*
X-906200Y513499D01*
X-903000Y511900D01*
X-899900Y511900D01*
X-912599Y534200D02*
G01*
X-901500Y534200D01*
X-884600Y545300D02*
G01*
X-884600Y518300D01*
X-883000Y513499D01*
X-879799Y511900D01*
X-876600Y511900D01*
X-889400Y534200D02*
G01*
X-878199Y534200D01*
X-847000Y534200D02*
G01*
X-847000Y511900D01*
X-847000Y529400D02*
G01*
X-850200Y532600D01*
X-853400Y534200D01*
X-858199Y534200D01*
X-861400Y532600D01*
X-864500Y529400D01*
X-866100Y524599D01*
X-866100Y521500D01*
X-864500Y516700D01*
X-861400Y513499D01*
X-858199Y511900D01*
X-853400Y511900D01*
X-850200Y513499D01*
X-847000Y516700D01*
X-836500Y534200D02*
G01*
X-836500Y511900D01*
X-836500Y527800D02*
G01*
X-831800Y532600D01*
X-828600Y534200D01*
X-823800Y534200D01*
X-820600Y532600D01*
X-819000Y527800D01*
X-819000Y511900D01*
X-808500Y545300D02*
G01*
X-807000Y543700D01*
X-805399Y545300D01*
X-807000Y546900D01*
X-808500Y545300D01*
X-807000Y534200D02*
G01*
X-807000Y511900D01*
X-794900Y534200D02*
G01*
X-794900Y511900D01*
X-794900Y527800D02*
G01*
X-790100Y532600D01*
X-786900Y534200D01*
X-782100Y534200D01*
X-779000Y532600D01*
X-777400Y527800D01*
X-777400Y511900D01*
D54*
X488050Y6551D02*
G01*
X483949Y4451D01*
X479850Y350D01*
X477849Y-3648D01*
X477849Y-11848D01*
X479850Y-15948D01*
X483949Y-20048D01*
X488050Y-22149D01*
X494250Y-24148D01*
X504449Y-24148D01*
X510550Y-22149D01*
X514650Y-20048D01*
X518750Y-15948D01*
X520750Y-11848D01*
X520750Y-3648D01*
X518750Y350D01*
X514650Y4451D01*
X510550Y6551D01*
X477849Y36351D02*
G01*
X520750Y20050D01*
X477849Y36351D02*
G01*
X520750Y52751D01*
X506449Y26151D02*
G01*
X506449Y46650D01*
X477849Y66251D02*
G01*
X520750Y66251D01*
X477849Y66251D02*
G01*
X520750Y94851D01*
X477849Y94851D02*
G01*
X520750Y94851D01*
X161410Y138720D02*
G01*
X160409Y140520D01*
X158610Y142320D01*
X156809Y143220D01*
X153209Y143220D01*
X151410Y142320D01*
X149509Y140520D01*
X148610Y138720D01*
X147710Y135920D01*
X147710Y131420D01*
X148610Y128720D01*
X149509Y126920D01*
X151410Y125020D01*
X153209Y124119D01*
X156809Y124119D01*
X158610Y125020D01*
X160409Y126920D01*
X161410Y128720D01*
X167410Y143220D02*
G01*
X167410Y124119D01*
X180109Y143220D02*
G01*
X180109Y124119D01*
X167410Y134120D02*
G01*
X180109Y134120D01*
X191509Y143220D02*
G01*
X189710Y142320D01*
X187909Y140520D01*
X187009Y138720D01*
X186110Y135920D01*
X186110Y131420D01*
X187009Y128720D01*
X187909Y126920D01*
X189710Y125020D01*
X191509Y124119D01*
X195210Y124119D01*
X197009Y125020D01*
X198810Y126920D01*
X199710Y128720D01*
X200610Y131420D01*
X200610Y135920D01*
X199710Y138720D01*
X198810Y140520D01*
X197009Y142320D01*
X195210Y143220D01*
X191509Y143220D01*
X206610Y143220D02*
G01*
X206610Y124119D01*
X219410Y143220D02*
G01*
X206610Y130520D01*
X211209Y135020D02*
G01*
X219410Y124119D01*
X225409Y143220D02*
G01*
X225409Y124119D01*
X225409Y143220D02*
G01*
X237210Y143220D01*
X225409Y134120D02*
G01*
X232609Y134120D01*
X225409Y124119D02*
G01*
X237210Y124119D01*
X-1325290Y118419D02*
G01*
X-1325290Y89820D01*
X-1325290Y89820D02*
G01*
X-1308990Y89820D01*
X-1299990Y113020D02*
G01*
X-1297289Y114320D01*
X-1293190Y118419D01*
X-1293190Y89820D01*
X-560770Y442360D02*
G01*
X-560770Y413660D01*
X-560770Y413660D02*
G01*
X-544370Y413660D01*
X-535370Y442360D02*
G01*
X-535370Y413660D01*
X-535370Y442360D02*
G01*
X-517670Y442360D01*
X-535370Y428660D02*
G01*
X-524470Y428660D01*
X-535370Y413660D02*
G01*
X-517670Y413660D01*
X-508670Y442360D02*
G01*
X-508670Y413660D01*
X-508670Y442360D02*
G01*
X-499170Y442360D01*
X-495070Y440960D01*
X-492270Y438259D01*
X-490970Y435560D01*
X-489570Y431460D01*
X-489570Y424560D01*
X-490970Y420560D01*
X-492270Y417759D01*
X-495070Y415060D01*
X-499170Y413660D01*
X-508670Y413660D01*
X-480570Y436860D02*
G01*
X-477870Y438259D01*
X-473770Y442360D01*
X-473770Y413660D01*
X-39690Y543319D02*
G01*
X-39690Y514719D01*
X-39690Y514719D02*
G01*
X-23290Y514719D01*
X-14290Y543319D02*
G01*
X-14290Y514719D01*
X-14290Y543319D02*
G01*
X3410Y543319D01*
X-14290Y529720D02*
G01*
X-3389Y529720D01*
X-14290Y514719D02*
G01*
X3410Y514719D01*
X12409Y543319D02*
G01*
X12409Y514719D01*
X12409Y543319D02*
G01*
X21910Y543319D01*
X26009Y541919D01*
X28810Y539220D01*
X30110Y536520D01*
X31510Y532420D01*
X31510Y525620D01*
X30110Y521520D01*
X28810Y518720D01*
X26009Y516020D01*
X21910Y514719D01*
X12409Y514719D01*
X41910Y536520D02*
G01*
X41910Y537820D01*
X43209Y540620D01*
X44609Y541919D01*
X47310Y543319D01*
X52809Y543319D01*
X55510Y541919D01*
X56910Y540620D01*
X58209Y537820D01*
X58209Y535120D01*
X56910Y532420D01*
X54110Y528319D01*
X40510Y514719D01*
X59609Y514719D01*
X-350000Y595400D02*
G01*
X-350000Y552500D01*
X-350000Y595400D02*
G01*
X-331599Y595400D01*
X-325500Y593400D01*
X-323400Y591300D01*
X-321400Y587200D01*
X-321400Y581100D01*
X-323400Y577000D01*
X-325500Y575000D01*
X-331599Y572900D01*
X-350000Y572900D01*
X-307900Y595400D02*
G01*
X-307900Y552500D01*
X-307900Y595400D02*
G01*
X-289500Y595400D01*
X-283300Y593400D01*
X-281300Y591300D01*
X-279200Y587200D01*
X-279200Y583100D01*
X-281300Y579000D01*
X-283300Y577000D01*
X-289500Y575000D01*
X-307900Y575000D01*
X-293500Y575000D02*
G01*
X-279200Y552500D01*
X-253500Y595400D02*
G01*
X-257500Y593400D01*
X-261600Y589300D01*
X-263700Y585200D01*
X-265700Y579000D01*
X-265700Y568800D01*
X-263700Y562700D01*
X-261600Y558600D01*
X-257500Y554500D01*
X-253500Y552500D01*
X-245300Y552500D01*
X-241200Y554500D01*
X-237100Y558600D01*
X-235000Y562700D01*
X-233000Y568800D01*
X-233000Y579000D01*
X-235000Y585200D01*
X-237100Y589300D01*
X-241200Y593400D01*
X-245300Y595400D01*
X-253500Y595400D01*
X-188800Y585200D02*
G01*
X-190900Y589300D01*
X-195000Y593400D01*
X-199000Y595400D01*
X-207200Y595400D01*
X-211300Y593400D01*
X-215400Y589300D01*
X-217500Y585200D01*
X-219500Y579000D01*
X-219500Y568800D01*
X-217500Y562700D01*
X-215400Y558600D01*
X-211300Y554500D01*
X-207200Y552500D01*
X-199000Y552500D01*
X-195000Y554500D01*
X-190900Y558600D01*
X-188800Y562700D01*
X-188800Y568800D01*
X-199000Y568800D02*
G01*
X-188800Y568800D01*
X-1152600Y-1058900D02*
G01*
X-1155300Y-1060300D01*
X-1158100Y-1063000D01*
X-1159400Y-1065700D01*
X-1160800Y-1069800D01*
X-1160800Y-1076700D01*
X-1159400Y-1080700D01*
X-1158100Y-1083500D01*
X-1155300Y-1086200D01*
X-1152600Y-1087600D01*
X-1147200Y-1087600D01*
X-1144400Y-1086200D01*
X-1141700Y-1083500D01*
X-1140300Y-1080700D01*
X-1139000Y-1076700D01*
X-1139000Y-1069800D01*
X-1140300Y-1065700D01*
X-1141700Y-1063000D01*
X-1144400Y-1060300D01*
X-1147200Y-1058900D01*
X-1152600Y-1058900D01*
X-1148500Y-1082100D02*
G01*
X-1140300Y-1090300D01*
X-1130000Y-1064400D02*
G01*
X-1127300Y-1063000D01*
X-1123200Y-1058900D01*
X-1123200Y-1087600D01*
X-872599Y-1058900D02*
G01*
X-875300Y-1060300D01*
X-878100Y-1063000D01*
X-879400Y-1065700D01*
X-880800Y-1069800D01*
X-880800Y-1076700D01*
X-879400Y-1080700D01*
X-878100Y-1083500D01*
X-875300Y-1086200D01*
X-872599Y-1087600D01*
X-867200Y-1087600D01*
X-864400Y-1086200D01*
X-861700Y-1083500D01*
X-860300Y-1080700D01*
X-859000Y-1076700D01*
X-859000Y-1069800D01*
X-860300Y-1065700D01*
X-861700Y-1063000D01*
X-864400Y-1060300D01*
X-867200Y-1058900D01*
X-872599Y-1058900D01*
X-868500Y-1082100D02*
G01*
X-860300Y-1090300D01*
X-848600Y-1065700D02*
G01*
X-848600Y-1064400D01*
X-847300Y-1061700D01*
X-845900Y-1060300D01*
X-843199Y-1058900D01*
X-837700Y-1058900D01*
X-835000Y-1060300D01*
X-833600Y-1061700D01*
X-832300Y-1064400D01*
X-832300Y-1067100D01*
X-833600Y-1069800D01*
X-836300Y-1073900D01*
X-850000Y-1087600D01*
X-830900Y-1087600D01*
X-492200Y-1059300D02*
G01*
X-494900Y-1060700D01*
X-497699Y-1063400D01*
X-499000Y-1066100D01*
X-500400Y-1070200D01*
X-500400Y-1077100D01*
X-499000Y-1081100D01*
X-497699Y-1083900D01*
X-494900Y-1086600D01*
X-492200Y-1088000D01*
X-486800Y-1088000D01*
X-484000Y-1086600D01*
X-481300Y-1083900D01*
X-479900Y-1081100D01*
X-478600Y-1077100D01*
X-478600Y-1070200D01*
X-479900Y-1066100D01*
X-481300Y-1063400D01*
X-484000Y-1060700D01*
X-486800Y-1059300D01*
X-492200Y-1059300D01*
X-488100Y-1082500D02*
G01*
X-479900Y-1090700D01*
X-466900Y-1059300D02*
G01*
X-451900Y-1059300D01*
X-460000Y-1070200D01*
X-455900Y-1070200D01*
X-453200Y-1071600D01*
X-451900Y-1073000D01*
X-450500Y-1077100D01*
X-450500Y-1079800D01*
X-451900Y-1083900D01*
X-454600Y-1086600D01*
X-458700Y-1088000D01*
X-462800Y-1088000D01*
X-466900Y-1086600D01*
X-468200Y-1085200D01*
X-469600Y-1082500D01*
X-742200Y-1059300D02*
G01*
X-744900Y-1060700D01*
X-747700Y-1063400D01*
X-749000Y-1066100D01*
X-750399Y-1070200D01*
X-750399Y-1077100D01*
X-749000Y-1081100D01*
X-747700Y-1083900D01*
X-744900Y-1086600D01*
X-742200Y-1088000D01*
X-736800Y-1088000D01*
X-734000Y-1086600D01*
X-731300Y-1083900D01*
X-729900Y-1081100D01*
X-728600Y-1077100D01*
X-728600Y-1070200D01*
X-729900Y-1066100D01*
X-731300Y-1063400D01*
X-734000Y-1060700D01*
X-736800Y-1059300D01*
X-742200Y-1059300D01*
X-738100Y-1082500D02*
G01*
X-729900Y-1090700D01*
X-705900Y-1059300D02*
G01*
X-719600Y-1078400D01*
X-699100Y-1078400D01*
X-705900Y-1059300D02*
G01*
X-705900Y-1088000D01*
X-242200Y-1059300D02*
G01*
X-244899Y-1060700D01*
X-247700Y-1063400D01*
X-249000Y-1066100D01*
X-250400Y-1070200D01*
X-250400Y-1077100D01*
X-249000Y-1081100D01*
X-247700Y-1083900D01*
X-244899Y-1086600D01*
X-242200Y-1088000D01*
X-236800Y-1088000D01*
X-234000Y-1086600D01*
X-231300Y-1083900D01*
X-229900Y-1081100D01*
X-228600Y-1077100D01*
X-228600Y-1070200D01*
X-229900Y-1066100D01*
X-231300Y-1063400D01*
X-234000Y-1060700D01*
X-236800Y-1059300D01*
X-242200Y-1059300D01*
X-238100Y-1082500D02*
G01*
X-229900Y-1090700D01*
X-203200Y-1059300D02*
G01*
X-216899Y-1059300D01*
X-218200Y-1071600D01*
X-216899Y-1070200D01*
X-212800Y-1068900D01*
X-208699Y-1068900D01*
X-204600Y-1070200D01*
X-201899Y-1073000D01*
X-200499Y-1077100D01*
X-200499Y-1079800D01*
X-201899Y-1083900D01*
X-204600Y-1086600D01*
X-208699Y-1088000D01*
X-212800Y-1088000D01*
X-216899Y-1086600D01*
X-218200Y-1085200D01*
X-219600Y-1082500D01*
X37800Y-1059300D02*
G01*
X35099Y-1060700D01*
X32299Y-1063400D01*
X31000Y-1066100D01*
X29600Y-1070200D01*
X29600Y-1077100D01*
X31000Y-1081100D01*
X32299Y-1083900D01*
X35099Y-1086600D01*
X37800Y-1088000D01*
X43200Y-1088000D01*
X46000Y-1086600D01*
X48699Y-1083900D01*
X50099Y-1081100D01*
X51400Y-1077100D01*
X51400Y-1070200D01*
X50099Y-1066100D01*
X48699Y-1063400D01*
X46000Y-1060700D01*
X43200Y-1059300D01*
X37800Y-1059300D01*
X41899Y-1082500D02*
G01*
X50099Y-1090700D01*
X76800Y-1063400D02*
G01*
X75399Y-1060700D01*
X71300Y-1059300D01*
X68600Y-1059300D01*
X64500Y-1060700D01*
X61800Y-1064800D01*
X60399Y-1071600D01*
X60399Y-1078400D01*
X61800Y-1083900D01*
X64500Y-1086600D01*
X68600Y-1088000D01*
X70000Y-1088000D01*
X74099Y-1086600D01*
X76800Y-1083900D01*
X78100Y-1079800D01*
X78100Y-1078400D01*
X76800Y-1074300D01*
X74099Y-1071600D01*
X70000Y-1070200D01*
X68600Y-1070200D01*
X64500Y-1071600D01*
X61800Y-1074300D01*
X60399Y-1078400D01*
X-588180Y82340D02*
G01*
X-588180Y53639D01*
X-588180Y82340D02*
G01*
X-575880Y82340D01*
X-571780Y80940D01*
X-570480Y79540D01*
X-569080Y76839D01*
X-569080Y74140D01*
X-570480Y71439D01*
X-571780Y70039D01*
X-575880Y68639D01*
X-588180Y68639D01*
X-578680Y68639D02*
G01*
X-569080Y53639D01*
X-557380Y82340D02*
G01*
X-542380Y82340D01*
X-550580Y71439D01*
X-546480Y71439D01*
X-543680Y70039D01*
X-542380Y68639D01*
X-540980Y64540D01*
X-540980Y61839D01*
X-542380Y57740D01*
X-545080Y55039D01*
X-549180Y53639D01*
X-553280Y53639D01*
X-557380Y55039D01*
X-558680Y56439D01*
X-560080Y59140D01*
X-514090Y81319D02*
G01*
X-514090Y52620D01*
X-514090Y81319D02*
G01*
X-501790Y81319D01*
X-497690Y79919D01*
X-496390Y78519D01*
X-494990Y75820D01*
X-494990Y73119D01*
X-496390Y70420D01*
X-497690Y69020D01*
X-501790Y67620D01*
X-514090Y67620D01*
X-504590Y67620D02*
G01*
X-494990Y52620D01*
X-472390Y81319D02*
G01*
X-485990Y62220D01*
X-465590Y62220D01*
X-472390Y81319D02*
G01*
X-472390Y52620D01*
X-638180Y262340D02*
G01*
X-638180Y233639D01*
X-638180Y262340D02*
G01*
X-625880Y262340D01*
X-621780Y260940D01*
X-620480Y259540D01*
X-619080Y256839D01*
X-619080Y254140D01*
X-620480Y251439D01*
X-621780Y250039D01*
X-625880Y248639D01*
X-638180Y248639D01*
X-628680Y248639D02*
G01*
X-619080Y233639D01*
X-593680Y262340D02*
G01*
X-607380Y262340D01*
X-608680Y250039D01*
X-607380Y251439D01*
X-603280Y252740D01*
X-599180Y252740D01*
X-595080Y251439D01*
X-592380Y248639D01*
X-590980Y244540D01*
X-590980Y241839D01*
X-592380Y237740D01*
X-595080Y235039D01*
X-599180Y233639D01*
X-603280Y233639D01*
X-607380Y235039D01*
X-608680Y236439D01*
X-610080Y239140D01*
X-734089Y-718680D02*
G01*
X-734089Y-747380D01*
X-734089Y-718680D02*
G01*
X-721790Y-718680D01*
X-717690Y-720080D01*
X-716390Y-721480D01*
X-714990Y-724180D01*
X-714990Y-726880D01*
X-716390Y-729580D01*
X-717690Y-730980D01*
X-721790Y-732380D01*
X-734089Y-732380D01*
X-724590Y-732380D02*
G01*
X-714990Y-747380D01*
X-689590Y-722779D02*
G01*
X-690990Y-720080D01*
X-695090Y-718680D01*
X-697790Y-718680D01*
X-701889Y-720080D01*
X-704590Y-724180D01*
X-705990Y-730980D01*
X-705990Y-737779D01*
X-704590Y-743280D01*
X-701889Y-745980D01*
X-697790Y-747380D01*
X-696490Y-747380D01*
X-692390Y-745980D01*
X-689590Y-743280D01*
X-688290Y-739180D01*
X-688290Y-737779D01*
X-689590Y-733680D01*
X-692390Y-730980D01*
X-696490Y-729580D01*
X-697790Y-729580D01*
X-701889Y-730980D01*
X-704590Y-733680D01*
X-705990Y-737779D01*
X-1004089Y-718680D02*
G01*
X-1004089Y-747380D01*
X-1004089Y-718680D02*
G01*
X-991790Y-718680D01*
X-987690Y-720080D01*
X-986390Y-721480D01*
X-984990Y-724180D01*
X-984990Y-726880D01*
X-986390Y-729580D01*
X-987690Y-730980D01*
X-991790Y-732380D01*
X-1004089Y-732380D01*
X-994590Y-732380D02*
G01*
X-984990Y-747380D01*
X-956889Y-718680D02*
G01*
X-970590Y-747380D01*
X-975989Y-718680D02*
G01*
X-956889Y-718680D01*
X-284090Y471320D02*
G01*
X-284090Y442620D01*
X-284090Y471320D02*
G01*
X-271790Y471320D01*
X-267690Y469920D01*
X-266390Y468520D01*
X-264990Y465819D01*
X-264990Y463120D01*
X-266390Y460420D01*
X-267690Y459020D01*
X-271790Y457620D01*
X-284090Y457620D01*
X-274590Y457620D02*
G01*
X-264990Y442620D01*
X-254590Y464520D02*
G01*
X-254590Y465819D01*
X-253290Y468520D01*
X-251890Y469920D01*
X-249190Y471320D01*
X-243690Y471320D01*
X-240990Y469920D01*
X-239590Y468520D01*
X-238290Y465819D01*
X-238290Y463120D01*
X-239590Y460420D01*
X-242390Y456320D01*
X-255990Y442620D01*
X-236890Y442620D01*
X-226590Y464520D02*
G01*
X-226590Y465819D01*
X-225189Y468520D01*
X-223789Y469920D01*
X-221090Y471320D01*
X-215589Y471320D01*
X-212890Y469920D01*
X-211590Y468520D01*
X-210189Y465819D01*
X-210189Y463120D01*
X-211590Y460420D01*
X-214290Y456320D01*
X-227890Y442620D01*
X-208789Y442620D01*
X150210Y-58679D02*
G01*
X169210Y-87380D01*
X169210Y-58679D02*
G01*
X150210Y-87380D01*
X187810Y-58679D02*
G01*
X187810Y-87380D01*
X178209Y-58679D02*
G01*
X197309Y-58679D01*
X206310Y-64179D02*
G01*
X209110Y-62779D01*
X213209Y-58679D01*
X213209Y-87380D01*
X44099Y301599D02*
G01*
X44099Y281100D01*
X45499Y277000D01*
X48200Y274300D01*
X52299Y273000D01*
X55000Y273000D01*
X59099Y274300D01*
X61800Y277000D01*
X63200Y281100D01*
X63200Y301599D01*
X72199Y296100D02*
G01*
X74900Y297500D01*
X78999Y301599D01*
X78999Y273000D01*
X-910287Y-471167D02*
G01*
X-895861Y-485592D01*
X-891973Y-487501D01*
X-888084Y-487572D01*
X-884266Y-485592D01*
X-882356Y-483683D01*
X-880376Y-479865D01*
X-880447Y-475974D01*
X-882356Y-472086D01*
X-896781Y-457661D01*
X-884619Y-455116D02*
G01*
X-885609Y-454126D01*
X-886598Y-451297D01*
X-886598Y-449317D01*
X-885609Y-446489D01*
X-881720Y-442600D01*
X-878892Y-441610D01*
X-876912Y-441610D01*
X-874083Y-442600D01*
X-872102Y-444580D01*
X-871113Y-447408D01*
X-870193Y-452287D01*
X-870193Y-471521D01*
X-856688Y-458015D01*
X-96319Y-390340D02*
G01*
X-96319Y-410840D01*
X-94919Y-414940D01*
X-92220Y-417639D01*
X-88119Y-418940D01*
X-85420Y-418940D01*
X-81319Y-417639D01*
X-78620Y-414940D01*
X-77220Y-410840D01*
X-77220Y-390340D01*
X-54620Y-390340D02*
G01*
X-68220Y-409440D01*
X-47719Y-409440D01*
X-54620Y-390340D02*
G01*
X-54620Y-418940D01*
X-978180Y247445D02*
G01*
X-978180Y216745D01*
X-976180Y210645D01*
X-972080Y206545D01*
X-965879Y204545D01*
X-961780Y204545D01*
X-955680Y206545D01*
X-951580Y210645D01*
X-949580Y216745D01*
X-949580Y247445D01*
X-911480Y241345D02*
G01*
X-913580Y245445D01*
X-919680Y247445D01*
X-923780Y247445D01*
X-929880Y245445D01*
X-933980Y239245D01*
X-936080Y229045D01*
X-936080Y218845D01*
X-933980Y210645D01*
X-929880Y206545D01*
X-923780Y204545D01*
X-921680Y204545D01*
X-915579Y206545D01*
X-911480Y210645D01*
X-909480Y216745D01*
X-909480Y218845D01*
X-911480Y224945D01*
X-915579Y229045D01*
X-921680Y231045D01*
X-923780Y231045D01*
X-929880Y229045D01*
X-933980Y224945D01*
X-936080Y218845D01*
X-850000Y-1154600D02*
G01*
X-850000Y-1185300D01*
X-848000Y-1191400D01*
X-843900Y-1195500D01*
X-837700Y-1197500D01*
X-833600Y-1197500D01*
X-827500Y-1195500D01*
X-823400Y-1191400D01*
X-821400Y-1185300D01*
X-821400Y-1154600D01*
X-480000Y-1154600D02*
G01*
X-463600Y-1197500D01*
X-447300Y-1154600D02*
G01*
X-463600Y-1197500D01*
X-130000Y-1154600D02*
G01*
X-119799Y-1197500D01*
X-109500Y-1154600D02*
G01*
X-119799Y-1197500D01*
X-109500Y-1154600D02*
G01*
X-99300Y-1197500D01*
X-89099Y-1154600D02*
G01*
X-99300Y-1197500D01*
X-449500Y-536500D02*
G01*
X-450900Y-533800D01*
X-453600Y-531100D01*
X-456400Y-529700D01*
X-461800Y-529700D01*
X-464500Y-531100D01*
X-467300Y-533800D01*
X-468600Y-536500D01*
X-470000Y-540600D01*
X-470000Y-547500D01*
X-468600Y-551500D01*
X-467300Y-554300D01*
X-464500Y-557000D01*
X-461800Y-558400D01*
X-456400Y-558400D01*
X-453600Y-557000D01*
X-450900Y-554300D01*
X-449500Y-551500D01*
X-440500Y-535200D02*
G01*
X-437800Y-533800D01*
X-433700Y-529700D01*
X-433700Y-558400D01*
X-1121770Y-93440D02*
G01*
X-1123170Y-90740D01*
X-1125870Y-88039D01*
X-1128670Y-86640D01*
X-1134070Y-86640D01*
X-1136770Y-88039D01*
X-1139570Y-90740D01*
X-1140870Y-93440D01*
X-1142270Y-97540D01*
X-1142270Y-104439D01*
X-1140870Y-108440D01*
X-1139570Y-111240D01*
X-1136770Y-113940D01*
X-1134070Y-115340D01*
X-1128670Y-115340D01*
X-1125870Y-113940D01*
X-1123170Y-111240D01*
X-1121770Y-108440D01*
X-1111470Y-93440D02*
G01*
X-1111470Y-92139D01*
X-1110070Y-89439D01*
X-1108770Y-88039D01*
X-1105970Y-86640D01*
X-1100570Y-86640D01*
X-1097770Y-88039D01*
X-1096470Y-89439D01*
X-1095070Y-92139D01*
X-1095070Y-94840D01*
X-1096470Y-97540D01*
X-1099170Y-101640D01*
X-1112770Y-115340D01*
X-1093770Y-115340D01*
X-1307690Y215520D02*
G01*
X-1309090Y218220D01*
X-1311790Y220920D01*
X-1314590Y222320D01*
X-1319990Y222320D01*
X-1322690Y220920D01*
X-1325490Y218220D01*
X-1326790Y215520D01*
X-1328190Y211420D01*
X-1328190Y204620D01*
X-1326790Y200520D01*
X-1325490Y197719D01*
X-1322690Y195020D01*
X-1319990Y193720D01*
X-1314590Y193720D01*
X-1311790Y195020D01*
X-1309090Y197719D01*
X-1307690Y200520D01*
X-1295990Y222320D02*
G01*
X-1280990Y222320D01*
X-1289189Y211420D01*
X-1285090Y211420D01*
X-1282390Y210020D01*
X-1280990Y208720D01*
X-1279590Y204620D01*
X-1279590Y201820D01*
X-1280990Y197719D01*
X-1283690Y195020D01*
X-1287790Y193720D01*
X-1291890Y193720D01*
X-1295990Y195020D01*
X-1297390Y196420D01*
X-1298690Y199120D01*
X-968390Y52419D02*
G01*
X-969790Y55120D01*
X-972490Y57819D01*
X-975190Y59219D01*
X-980690Y59219D01*
X-983390Y57819D01*
X-986090Y55120D01*
X-987490Y52419D01*
X-988789Y48320D01*
X-988789Y41419D01*
X-987490Y37420D01*
X-986090Y34620D01*
X-983390Y31920D01*
X-980690Y30519D01*
X-975190Y30519D01*
X-972490Y31920D01*
X-969790Y34620D01*
X-968390Y37420D01*
X-945790Y59219D02*
G01*
X-959389Y40120D01*
X-938890Y40120D01*
X-945790Y59219D02*
G01*
X-945790Y30519D01*
X-1218893Y-384252D02*
G01*
X-1220293Y-381552D01*
X-1222993Y-378852D01*
X-1225793Y-377451D01*
X-1231193Y-377451D01*
X-1233893Y-378853D01*
X-1236693Y-381552D01*
X-1237993Y-384252D01*
X-1239393Y-388352D01*
X-1239393Y-395252D01*
X-1237993Y-399253D01*
X-1236693Y-402052D01*
X-1233893Y-404753D01*
X-1231193Y-406152D01*
X-1225793Y-406152D01*
X-1222993Y-404752D01*
X-1220293Y-402052D01*
X-1218893Y-399252D01*
X-1193593Y-377451D02*
G01*
X-1207193Y-377453D01*
X-1208593Y-389752D01*
X-1207193Y-388352D01*
X-1203093Y-387052D01*
X-1198993Y-387052D01*
X-1194894Y-388352D01*
X-1192194Y-391152D01*
X-1190893Y-395252D01*
X-1190893Y-397952D01*
X-1192193Y-402052D01*
X-1194893Y-404752D01*
X-1198993Y-406153D01*
X-1203093Y-406153D01*
X-1207193Y-404753D01*
X-1208593Y-403353D01*
X-1209893Y-400652D01*
X-1137628Y-386577D02*
G01*
X-1139028Y-383877D01*
X-1141728Y-381177D01*
X-1144528Y-379777D01*
X-1149928Y-379777D01*
X-1152628Y-381178D01*
X-1155428Y-383877D01*
X-1156728Y-386577D01*
X-1158128Y-390677D01*
X-1158128Y-397577D01*
X-1156728Y-401578D01*
X-1155428Y-404377D01*
X-1152628Y-407078D01*
X-1149928Y-408477D01*
X-1144528Y-408477D01*
X-1141728Y-407077D01*
X-1139028Y-404377D01*
X-1137628Y-401577D01*
X-1112328Y-383877D02*
G01*
X-1113628Y-381177D01*
X-1117728Y-379778D01*
X-1120528Y-379777D01*
X-1124628Y-381178D01*
X-1127328Y-385276D01*
X-1128628Y-392077D01*
X-1128628Y-398877D01*
X-1127329Y-404377D01*
X-1124628Y-407078D01*
X-1120528Y-408477D01*
X-1119128Y-408477D01*
X-1115028Y-407077D01*
X-1112328Y-404377D01*
X-1110928Y-400276D01*
X-1110928Y-398877D01*
X-1112328Y-394777D01*
X-1115029Y-392077D01*
X-1119128Y-390677D01*
X-1120528Y-390677D01*
X-1124628Y-392077D01*
X-1127328Y-394777D01*
X-1128628Y-398877D01*
X-733590Y-5479D02*
G01*
X-734990Y-2779D01*
X-737690Y-79D01*
X-740490Y1320D01*
X-745890Y1320D01*
X-748590Y-79D01*
X-751390Y-2779D01*
X-752690Y-5479D01*
X-754089Y-9579D01*
X-754089Y-16479D01*
X-752690Y-20479D01*
X-751390Y-23279D01*
X-748590Y-25979D01*
X-745890Y-27379D01*
X-740490Y-27379D01*
X-737690Y-25979D01*
X-734990Y-23279D01*
X-733590Y-20479D01*
X-705590Y1320D02*
G01*
X-719190Y-27379D01*
X-724590Y1320D02*
G01*
X-705590Y1320D01*
X-1130700Y-665300D02*
G01*
X-1132100Y-662599D01*
X-1134800Y-659900D01*
X-1137600Y-658500D01*
X-1143000Y-658500D01*
X-1145700Y-659900D01*
X-1148500Y-662599D01*
X-1149800Y-665300D01*
X-1151200Y-669400D01*
X-1151200Y-676300D01*
X-1149800Y-680300D01*
X-1148500Y-683100D01*
X-1145700Y-685800D01*
X-1143000Y-687200D01*
X-1137600Y-687200D01*
X-1134800Y-685800D01*
X-1132100Y-683100D01*
X-1130700Y-680300D01*
X-1114900Y-658500D02*
G01*
X-1119000Y-659900D01*
X-1120400Y-662599D01*
X-1120400Y-665300D01*
X-1119000Y-668100D01*
X-1116300Y-669400D01*
X-1110800Y-670800D01*
X-1106700Y-672200D01*
X-1104000Y-674900D01*
X-1102700Y-677599D01*
X-1102700Y-681700D01*
X-1104000Y-684400D01*
X-1105400Y-685800D01*
X-1109500Y-687200D01*
X-1114900Y-687200D01*
X-1119000Y-685800D01*
X-1120400Y-684400D01*
X-1121700Y-681700D01*
X-1121700Y-677599D01*
X-1120400Y-674900D01*
X-1117700Y-672200D01*
X-1113600Y-670800D01*
X-1108100Y-669400D01*
X-1105400Y-668100D01*
X-1104000Y-665300D01*
X-1104000Y-662599D01*
X-1105400Y-659900D01*
X-1109500Y-658500D01*
X-1114900Y-658500D01*
X-391780Y386539D02*
G01*
X-393180Y389240D01*
X-395880Y391940D01*
X-398680Y393340D01*
X-404080Y393340D01*
X-406780Y391940D01*
X-409580Y389240D01*
X-410880Y386539D01*
X-412280Y382440D01*
X-412280Y375639D01*
X-410880Y371539D01*
X-409580Y368740D01*
X-406780Y366040D01*
X-404080Y364739D01*
X-398680Y364739D01*
X-395880Y366040D01*
X-393180Y368740D01*
X-391780Y371539D01*
X-365079Y383739D02*
G01*
X-366479Y379740D01*
X-369180Y376940D01*
X-373280Y375639D01*
X-374680Y375639D01*
X-378679Y376940D01*
X-381479Y379740D01*
X-382780Y383739D01*
X-382780Y385139D01*
X-381479Y389240D01*
X-378679Y391940D01*
X-374680Y393340D01*
X-373280Y393340D01*
X-369180Y391940D01*
X-366479Y389240D01*
X-365079Y383739D01*
X-365079Y376940D01*
X-366479Y370139D01*
X-369180Y366040D01*
X-373280Y364739D01*
X-375980Y364739D01*
X-380079Y366040D01*
X-381479Y368740D01*
X212410Y-168480D02*
G01*
X209710Y-169880D01*
X207009Y-172580D01*
X205610Y-175380D01*
X205610Y-180780D01*
X207009Y-183480D01*
X209710Y-186280D01*
X212410Y-187580D01*
X216509Y-188980D01*
X223409Y-188980D01*
X227410Y-187580D01*
X230210Y-186280D01*
X232909Y-183480D01*
X234309Y-180780D01*
X234309Y-175380D01*
X232909Y-172580D01*
X230210Y-169880D01*
X227410Y-168480D01*
X211110Y-159480D02*
G01*
X209710Y-156780D01*
X205610Y-152680D01*
X234309Y-152680D01*
X205610Y-135480D02*
G01*
X207009Y-139580D01*
X211110Y-142380D01*
X217909Y-143680D01*
X222009Y-143680D01*
X228810Y-142380D01*
X232909Y-139580D01*
X234309Y-135480D01*
X234309Y-132780D01*
X232909Y-128680D01*
X228810Y-125980D01*
X222009Y-124580D01*
X217909Y-124580D01*
X211110Y-125980D01*
X207009Y-128680D01*
X205610Y-132780D01*
X205610Y-135480D01*
X-1220300Y-665699D02*
G01*
X-1221700Y-663000D01*
X-1224400Y-660300D01*
X-1227200Y-658900D01*
X-1232600Y-658900D01*
X-1235300Y-660300D01*
X-1238100Y-663000D01*
X-1239400Y-665699D01*
X-1240800Y-669799D01*
X-1240800Y-676700D01*
X-1239400Y-680699D01*
X-1238100Y-683500D01*
X-1235300Y-686200D01*
X-1232600Y-687599D01*
X-1227200Y-687599D01*
X-1224400Y-686200D01*
X-1221700Y-683500D01*
X-1220300Y-680699D01*
X-1211300Y-664400D02*
G01*
X-1208600Y-663000D01*
X-1204500Y-658900D01*
X-1204500Y-687599D01*
X-1195500Y-664400D02*
G01*
X-1192800Y-663000D01*
X-1188700Y-658900D01*
X-1188700Y-687599D01*
X-213590Y-535480D02*
G01*
X-214990Y-532780D01*
X-217689Y-530080D01*
X-220490Y-528680D01*
X-225890Y-528680D01*
X-228590Y-530080D01*
X-231390Y-532780D01*
X-232689Y-535480D01*
X-234090Y-539580D01*
X-234090Y-546480D01*
X-232689Y-550480D01*
X-231390Y-553280D01*
X-228590Y-555980D01*
X-225890Y-557380D01*
X-220490Y-557380D01*
X-217689Y-555980D01*
X-214990Y-553280D01*
X-213590Y-550480D01*
X-204590Y-534180D02*
G01*
X-201890Y-532780D01*
X-197790Y-528680D01*
X-197790Y-557380D01*
X-187490Y-535480D02*
G01*
X-187490Y-534180D01*
X-186090Y-531480D01*
X-184690Y-530080D01*
X-181989Y-528680D01*
X-176590Y-528680D01*
X-173789Y-530080D01*
X-172490Y-531480D01*
X-171090Y-534180D01*
X-171090Y-536880D01*
X-172490Y-539580D01*
X-175189Y-543680D01*
X-188789Y-557380D01*
X-169690Y-557380D01*
X-103590Y-535480D02*
G01*
X-104990Y-532780D01*
X-107689Y-530080D01*
X-110490Y-528680D01*
X-115889Y-528680D01*
X-118590Y-530080D01*
X-121390Y-532780D01*
X-122689Y-535480D01*
X-124089Y-539580D01*
X-124089Y-546480D01*
X-122689Y-550480D01*
X-121390Y-553280D01*
X-118590Y-555980D01*
X-115889Y-557380D01*
X-110490Y-557380D01*
X-107689Y-555980D01*
X-104990Y-553280D01*
X-103590Y-550480D01*
X-94590Y-534180D02*
G01*
X-91890Y-532780D01*
X-87790Y-528680D01*
X-87790Y-557380D01*
X-76090Y-528680D02*
G01*
X-61090Y-528680D01*
X-69290Y-539580D01*
X-65189Y-539580D01*
X-62490Y-540980D01*
X-61090Y-542380D01*
X-59690Y-546480D01*
X-59690Y-549180D01*
X-61090Y-553280D01*
X-63789Y-555980D01*
X-67890Y-557380D01*
X-71989Y-557380D01*
X-76090Y-555980D01*
X-77490Y-554580D01*
X-78789Y-551880D01*
X-369500Y-536500D02*
G01*
X-370900Y-533800D01*
X-373600Y-531100D01*
X-376400Y-529700D01*
X-381800Y-529700D01*
X-384500Y-531100D01*
X-387300Y-533800D01*
X-388600Y-536500D01*
X-390000Y-540600D01*
X-390000Y-547500D01*
X-388600Y-551500D01*
X-387300Y-554300D01*
X-384500Y-557000D01*
X-381800Y-558400D01*
X-376400Y-558400D01*
X-373600Y-557000D01*
X-370900Y-554300D01*
X-369500Y-551500D01*
X-360500Y-535200D02*
G01*
X-357800Y-533800D01*
X-353700Y-529700D01*
X-353700Y-558400D01*
X-331100Y-529700D02*
G01*
X-344700Y-548800D01*
X-324300Y-548800D01*
X-331100Y-529700D02*
G01*
X-331100Y-558400D01*
X-1309900Y-666100D02*
G01*
X-1311300Y-663400D01*
X-1314000Y-660699D01*
X-1316800Y-659300D01*
X-1322200Y-659300D01*
X-1324900Y-660699D01*
X-1327699Y-663400D01*
X-1329000Y-666100D01*
X-1330400Y-670200D01*
X-1330400Y-677100D01*
X-1329000Y-681100D01*
X-1327699Y-683900D01*
X-1324900Y-686600D01*
X-1322200Y-688000D01*
X-1316800Y-688000D01*
X-1314000Y-686600D01*
X-1311300Y-683900D01*
X-1309900Y-681100D01*
X-1300900Y-664799D02*
G01*
X-1298200Y-663400D01*
X-1294100Y-659300D01*
X-1294100Y-688000D01*
X-1268800Y-659300D02*
G01*
X-1282400Y-659300D01*
X-1283800Y-671600D01*
X-1282400Y-670200D01*
X-1278300Y-668900D01*
X-1274200Y-668900D01*
X-1270100Y-670200D01*
X-1267400Y-673000D01*
X-1266000Y-677100D01*
X-1266000Y-679799D01*
X-1267400Y-683900D01*
X-1270100Y-686600D01*
X-1274200Y-688000D01*
X-1278300Y-688000D01*
X-1282400Y-686600D01*
X-1283800Y-685200D01*
X-1285100Y-682500D01*
X65940Y-596794D02*
G01*
X64540Y-594094D01*
X61839Y-591394D01*
X59040Y-589994D01*
X53639Y-589994D01*
X50940Y-591394D01*
X48140Y-594094D01*
X46839Y-596794D01*
X45439Y-600894D01*
X45439Y-607794D01*
X46839Y-611794D01*
X48140Y-614594D01*
X50940Y-617294D01*
X53639Y-618694D01*
X59040Y-618694D01*
X61839Y-617294D01*
X64540Y-614594D01*
X65940Y-611794D01*
X74940Y-595494D02*
G01*
X77640Y-594094D01*
X81740Y-589994D01*
X81740Y-618694D01*
X107039Y-594094D02*
G01*
X105739Y-591394D01*
X101640Y-589994D01*
X98940Y-589994D01*
X94839Y-591394D01*
X92039Y-595494D01*
X90739Y-602294D01*
X90739Y-609094D01*
X92039Y-614594D01*
X94839Y-617294D01*
X98940Y-618694D01*
X100240Y-618694D01*
X104339Y-617294D01*
X107039Y-614594D01*
X108439Y-610494D01*
X108439Y-609094D01*
X107039Y-604994D01*
X104339Y-602294D01*
X100240Y-600894D01*
X98940Y-600894D01*
X94839Y-602294D01*
X92039Y-604994D01*
X90739Y-609094D01*
X-1124040Y-240380D02*
G01*
X-1125440Y-237680D01*
X-1128140Y-234980D01*
X-1130940Y-233580D01*
X-1136340Y-233580D01*
X-1139040Y-234980D01*
X-1141840Y-237680D01*
X-1143140Y-240380D01*
X-1144540Y-244480D01*
X-1144540Y-251379D01*
X-1143140Y-255380D01*
X-1141840Y-258180D01*
X-1139040Y-260880D01*
X-1136340Y-262280D01*
X-1130940Y-262280D01*
X-1128140Y-260880D01*
X-1125440Y-258180D01*
X-1124040Y-255380D01*
X-1115040Y-239080D02*
G01*
X-1112340Y-237680D01*
X-1108240Y-233580D01*
X-1108240Y-262280D01*
X-1080140Y-233580D02*
G01*
X-1093840Y-262280D01*
X-1099240Y-233580D02*
G01*
X-1080140Y-233580D01*
X-573590Y-445480D02*
G01*
X-574990Y-442780D01*
X-577690Y-440079D01*
X-580490Y-438679D01*
X-585890Y-438679D01*
X-588590Y-440079D01*
X-591390Y-442780D01*
X-592690Y-445480D01*
X-594090Y-449580D01*
X-594090Y-456479D01*
X-592690Y-460480D01*
X-591390Y-463280D01*
X-588590Y-465980D01*
X-585890Y-467380D01*
X-580490Y-467380D01*
X-577690Y-465980D01*
X-574990Y-463280D01*
X-573590Y-460480D01*
X-564590Y-444180D02*
G01*
X-561890Y-442780D01*
X-557790Y-438679D01*
X-557790Y-467380D01*
X-541990Y-438679D02*
G01*
X-546090Y-440079D01*
X-547490Y-442780D01*
X-547490Y-445480D01*
X-546090Y-448280D01*
X-543390Y-449580D01*
X-537890Y-450980D01*
X-533790Y-452380D01*
X-531090Y-455079D01*
X-529690Y-457780D01*
X-529690Y-461880D01*
X-531090Y-464580D01*
X-532490Y-465980D01*
X-536590Y-467380D01*
X-541990Y-467380D01*
X-546090Y-465980D01*
X-547490Y-464580D01*
X-548790Y-461880D01*
X-548790Y-457780D01*
X-547490Y-455079D01*
X-544690Y-452380D01*
X-540590Y-450980D01*
X-535190Y-449580D01*
X-532490Y-448280D01*
X-531090Y-445480D01*
X-531090Y-442780D01*
X-532490Y-440079D01*
X-536590Y-438679D01*
X-541990Y-438679D01*
X-863590Y274520D02*
G01*
X-864990Y277220D01*
X-867690Y279920D01*
X-870490Y281320D01*
X-875890Y281320D01*
X-878590Y279920D01*
X-881390Y277220D01*
X-882690Y274520D01*
X-884089Y270420D01*
X-884089Y263519D01*
X-882690Y259519D01*
X-881390Y256719D01*
X-878590Y254020D01*
X-875890Y252620D01*
X-870490Y252620D01*
X-867690Y254020D01*
X-864990Y256719D01*
X-863590Y259519D01*
X-854590Y275820D02*
G01*
X-851889Y277220D01*
X-847790Y281320D01*
X-847790Y252620D01*
X-821090Y271719D02*
G01*
X-822490Y267620D01*
X-825190Y264920D01*
X-829290Y263519D01*
X-830590Y263519D01*
X-834689Y264920D01*
X-837490Y267620D01*
X-838790Y271719D01*
X-838790Y273120D01*
X-837490Y277220D01*
X-834689Y279920D01*
X-830590Y281320D01*
X-829290Y281320D01*
X-825190Y279920D01*
X-822490Y277220D01*
X-821090Y271719D01*
X-821090Y264920D01*
X-822490Y258119D01*
X-825190Y254020D01*
X-829290Y252620D01*
X-831990Y252620D01*
X-836090Y254020D01*
X-837490Y256719D01*
X-781769Y276560D02*
G01*
X-783170Y279260D01*
X-785870Y281960D01*
X-788670Y283360D01*
X-794070Y283360D01*
X-796769Y281960D01*
X-799569Y279260D01*
X-800870Y276560D01*
X-802270Y272460D01*
X-802270Y265560D01*
X-800870Y261560D01*
X-799569Y258759D01*
X-796769Y256060D01*
X-794070Y254660D01*
X-788670Y254660D01*
X-785870Y256060D01*
X-783170Y258759D01*
X-781769Y261560D01*
X-771469Y276560D02*
G01*
X-771469Y277860D01*
X-770070Y280560D01*
X-768770Y281960D01*
X-765970Y283360D01*
X-760570Y283360D01*
X-757770Y281960D01*
X-756469Y280560D01*
X-755070Y277860D01*
X-755070Y275160D01*
X-756469Y272460D01*
X-759170Y268360D01*
X-772770Y254660D01*
X-753770Y254660D01*
X-736570Y283360D02*
G01*
X-740670Y281960D01*
X-743370Y277860D01*
X-744770Y271060D01*
X-744770Y266960D01*
X-743370Y260159D01*
X-740670Y256060D01*
X-736570Y254660D01*
X-733770Y254660D01*
X-729770Y256060D01*
X-726970Y260159D01*
X-725670Y266960D01*
X-725670Y271060D01*
X-726970Y277860D01*
X-729770Y281960D01*
X-733770Y283360D01*
X-736570Y283360D01*
X-117689Y395520D02*
G01*
X-119089Y398220D01*
X-121790Y400920D01*
X-124590Y402320D01*
X-129990Y402320D01*
X-132689Y400920D01*
X-135490Y398220D01*
X-136790Y395520D01*
X-138190Y391419D01*
X-138190Y384620D01*
X-136790Y380520D01*
X-135490Y377720D01*
X-132689Y375019D01*
X-129990Y373720D01*
X-124590Y373720D01*
X-121790Y375019D01*
X-119089Y377720D01*
X-117689Y380520D01*
X-107389Y395520D02*
G01*
X-107389Y396820D01*
X-105989Y399620D01*
X-104590Y400920D01*
X-101890Y402320D01*
X-96490Y402320D01*
X-93690Y400920D01*
X-92389Y399620D01*
X-90989Y396820D01*
X-90989Y394120D01*
X-92389Y391419D01*
X-95090Y387320D01*
X-108690Y373720D01*
X-89590Y373720D01*
X-61589Y402320D02*
G01*
X-75189Y373720D01*
X-80589Y402320D02*
G01*
X-61589Y402320D01*
X52410Y-168480D02*
G01*
X49709Y-169880D01*
X47010Y-172580D01*
X45610Y-175380D01*
X45610Y-180780D01*
X47010Y-183480D01*
X49709Y-186280D01*
X52410Y-187580D01*
X56510Y-188980D01*
X63410Y-188980D01*
X67410Y-187580D01*
X70210Y-186280D01*
X72909Y-183480D01*
X74309Y-180780D01*
X74309Y-175380D01*
X72909Y-172580D01*
X70210Y-169880D01*
X67410Y-168480D01*
X45610Y-156780D02*
G01*
X45610Y-141780D01*
X56510Y-149980D01*
X56510Y-145880D01*
X57909Y-143180D01*
X59309Y-141780D01*
X63410Y-140480D01*
X66109Y-140480D01*
X70210Y-141780D01*
X72909Y-144480D01*
X74309Y-148580D01*
X74309Y-152680D01*
X72909Y-156780D01*
X71510Y-158180D01*
X68810Y-159480D01*
X51109Y-131480D02*
G01*
X49709Y-128680D01*
X45610Y-124580D01*
X74309Y-124580D01*
X-493990Y-145080D02*
G01*
X-495390Y-142380D01*
X-498090Y-139680D01*
X-500890Y-138280D01*
X-506290Y-138280D01*
X-508990Y-139680D01*
X-511790Y-142380D01*
X-513090Y-145080D01*
X-514490Y-149180D01*
X-514490Y-156080D01*
X-513090Y-160080D01*
X-511790Y-162880D01*
X-508990Y-165580D01*
X-506290Y-166980D01*
X-500890Y-166980D01*
X-498090Y-165580D01*
X-495390Y-162880D01*
X-493990Y-160080D01*
X-482290Y-138280D02*
G01*
X-467290Y-138280D01*
X-475490Y-149180D01*
X-471390Y-149180D01*
X-468690Y-150580D01*
X-467290Y-151980D01*
X-465990Y-156080D01*
X-465990Y-158780D01*
X-467290Y-162880D01*
X-469990Y-165580D01*
X-474090Y-166980D01*
X-478190Y-166980D01*
X-482290Y-165580D01*
X-483690Y-164180D01*
X-484990Y-161480D01*
X-455590Y-145080D02*
G01*
X-455590Y-143780D01*
X-454189Y-141080D01*
X-452890Y-139680D01*
X-450090Y-138280D01*
X-444690Y-138280D01*
X-441990Y-139680D01*
X-440590Y-141080D01*
X-439189Y-143780D01*
X-439189Y-146480D01*
X-440590Y-149180D01*
X-443290Y-153280D01*
X-456990Y-166980D01*
X-437890Y-166980D01*
X96410Y-405480D02*
G01*
X95010Y-402780D01*
X92309Y-400079D01*
X89510Y-398680D01*
X84110Y-398680D01*
X81409Y-400079D01*
X78609Y-402780D01*
X77310Y-405480D01*
X75910Y-409580D01*
X75910Y-416479D01*
X77310Y-420480D01*
X78609Y-423280D01*
X81409Y-425980D01*
X84110Y-427380D01*
X89510Y-427380D01*
X92309Y-425980D01*
X95010Y-423280D01*
X96410Y-420480D01*
X108110Y-398680D02*
G01*
X123110Y-398680D01*
X114910Y-409580D01*
X119009Y-409580D01*
X121710Y-410980D01*
X123110Y-412380D01*
X124410Y-416479D01*
X124410Y-419180D01*
X123110Y-423280D01*
X120409Y-425980D01*
X116310Y-427380D01*
X112210Y-427380D01*
X108110Y-425980D01*
X106710Y-424580D01*
X105409Y-421880D01*
X136209Y-398680D02*
G01*
X151209Y-398680D01*
X143010Y-409580D01*
X147109Y-409580D01*
X149809Y-410980D01*
X151209Y-412380D01*
X152510Y-416479D01*
X152510Y-419180D01*
X151209Y-423280D01*
X148409Y-425980D01*
X144410Y-427380D01*
X140310Y-427380D01*
X136209Y-425980D01*
X134809Y-424580D01*
X133409Y-421880D01*
X-223590Y-405480D02*
G01*
X-224990Y-402780D01*
X-227689Y-400079D01*
X-230490Y-398680D01*
X-235890Y-398680D01*
X-238590Y-400079D01*
X-241390Y-402780D01*
X-242689Y-405480D01*
X-244090Y-409580D01*
X-244090Y-416479D01*
X-242689Y-420480D01*
X-241390Y-423280D01*
X-238590Y-425980D01*
X-235890Y-427380D01*
X-230490Y-427380D01*
X-227689Y-425980D01*
X-224990Y-423280D01*
X-223590Y-420480D01*
X-211890Y-398680D02*
G01*
X-196890Y-398680D01*
X-205090Y-409580D01*
X-200989Y-409580D01*
X-198290Y-410980D01*
X-196890Y-412380D01*
X-195589Y-416479D01*
X-195589Y-419180D01*
X-196890Y-423280D01*
X-199590Y-425980D01*
X-203690Y-427380D01*
X-207790Y-427380D01*
X-211890Y-425980D01*
X-213290Y-424580D01*
X-214590Y-421880D01*
X-172890Y-398680D02*
G01*
X-186590Y-417780D01*
X-166090Y-417780D01*
X-172890Y-398680D02*
G01*
X-172890Y-427380D01*
X126410Y314520D02*
G01*
X125010Y317220D01*
X122309Y319920D01*
X119509Y321320D01*
X114110Y321320D01*
X111410Y319920D01*
X108610Y317220D01*
X107309Y314520D01*
X105909Y310420D01*
X105909Y303519D01*
X107309Y299520D01*
X108610Y296719D01*
X111410Y294020D01*
X114110Y292620D01*
X119509Y292620D01*
X122309Y294020D01*
X125010Y296719D01*
X126410Y299520D01*
X149009Y321320D02*
G01*
X135409Y302220D01*
X155810Y302220D01*
X149009Y321320D02*
G01*
X149009Y292620D01*
X164809Y315820D02*
G01*
X167510Y317220D01*
X171610Y321320D01*
X171610Y292620D01*
X-1322270Y-6640D02*
G01*
X-1322270Y-35339D01*
X-1322270Y-6640D02*
G01*
X-1312769Y-6640D01*
X-1308670Y-8039D01*
X-1305870Y-10740D01*
X-1304570Y-13440D01*
X-1303170Y-17540D01*
X-1303170Y-24439D01*
X-1304570Y-28440D01*
X-1305870Y-31239D01*
X-1308670Y-33939D01*
X-1312769Y-35339D01*
X-1322270Y-35339D01*
X-1294170Y-12139D02*
G01*
X-1291470Y-10740D01*
X-1287370Y-6640D01*
X-1287370Y-35339D01*
X-1114100Y281300D02*
G01*
X-1114100Y252700D01*
X-1114100Y281300D02*
G01*
X-1103200Y252700D01*
X-1092300Y281300D02*
G01*
X-1103200Y252700D01*
X-1092300Y281300D02*
G01*
X-1092300Y252700D01*
X-1062800Y274500D02*
G01*
X-1064200Y277200D01*
X-1066900Y279900D01*
X-1069600Y281300D01*
X-1075100Y281300D01*
X-1077800Y279900D01*
X-1080500Y277200D01*
X-1081900Y274500D01*
X-1083300Y270400D01*
X-1083300Y263600D01*
X-1081900Y259500D01*
X-1080500Y256700D01*
X-1077800Y254000D01*
X-1075100Y252700D01*
X-1069600Y252700D01*
X-1066900Y254000D01*
X-1064200Y256700D01*
X-1062800Y259500D01*
X-1053800Y275800D02*
G01*
X-1051100Y277200D01*
X-1047000Y281300D01*
X-1047000Y252700D01*
X-1336390Y-265680D02*
G01*
X-1336390Y-294280D01*
X-1336390Y-265680D02*
G01*
X-1324090Y-265680D01*
X-1319990Y-266980D01*
X-1318589Y-268380D01*
X-1317289Y-271080D01*
X-1317289Y-273780D01*
X-1318589Y-276580D01*
X-1319990Y-277880D01*
X-1324090Y-279280D01*
X-1336390Y-279280D01*
X-1326790Y-279280D02*
G01*
X-1317289Y-294280D01*
X-1308290Y-271080D02*
G01*
X-1305590Y-269780D01*
X-1301490Y-265680D01*
X-1301490Y-294280D01*
X-1338190Y-327680D02*
G01*
X-1338190Y-356280D01*
X-1338190Y-327680D02*
G01*
X-1325890Y-327680D01*
X-1321790Y-329080D01*
X-1320490Y-330379D01*
X-1319090Y-333180D01*
X-1319090Y-335880D01*
X-1320490Y-338579D01*
X-1321790Y-339980D01*
X-1325890Y-341280D01*
X-1338190Y-341280D01*
X-1328589Y-341280D02*
G01*
X-1319090Y-356280D01*
X-1308690Y-334480D02*
G01*
X-1308690Y-333180D01*
X-1307390Y-330379D01*
X-1305990Y-329080D01*
X-1303290Y-327680D01*
X-1297790Y-327680D01*
X-1295090Y-329080D01*
X-1293690Y-330379D01*
X-1292390Y-333180D01*
X-1292390Y-335880D01*
X-1293690Y-338579D01*
X-1296490Y-342680D01*
X-1310090Y-356280D01*
X-1290990Y-356280D01*
X-688180Y82340D02*
G01*
X-688180Y53639D01*
X-688180Y82340D02*
G01*
X-675879Y82340D01*
X-671780Y80940D01*
X-670480Y79540D01*
X-669080Y76839D01*
X-669080Y74140D01*
X-670480Y71439D01*
X-671780Y70039D01*
X-675879Y68639D01*
X-688180Y68639D01*
X-678680Y68639D02*
G01*
X-669080Y53639D01*
X-658680Y75540D02*
G01*
X-658680Y76839D01*
X-657380Y79540D01*
X-655980Y80940D01*
X-653280Y82340D01*
X-647780Y82340D01*
X-645080Y80940D01*
X-643680Y79540D01*
X-642380Y76839D01*
X-642380Y74140D01*
X-643680Y71439D01*
X-646480Y67340D01*
X-660080Y53639D01*
X-640980Y53639D01*
X-615680Y78239D02*
G01*
X-616980Y80940D01*
X-621080Y82340D01*
X-623780Y82340D01*
X-627880Y80940D01*
X-630680Y76839D01*
X-631980Y70039D01*
X-631980Y63239D01*
X-630680Y57740D01*
X-627880Y55039D01*
X-623780Y53639D01*
X-622480Y53639D01*
X-618380Y55039D01*
X-615680Y57740D01*
X-614280Y61839D01*
X-614280Y63239D01*
X-615680Y67340D01*
X-618380Y70039D01*
X-622480Y71439D01*
X-623780Y71439D01*
X-627880Y70039D01*
X-630680Y67340D01*
X-631980Y63239D01*
X-822060Y369480D02*
G01*
X-822060Y340880D01*
X-822060Y369480D02*
G01*
X-809760Y369480D01*
X-805660Y368080D01*
X-804360Y366780D01*
X-802959Y363980D01*
X-802959Y361280D01*
X-804360Y358579D01*
X-805660Y357180D01*
X-809760Y355880D01*
X-822060Y355880D01*
X-812460Y355880D02*
G01*
X-802959Y340880D01*
X-792560Y362680D02*
G01*
X-792560Y363980D01*
X-791260Y366780D01*
X-789860Y368080D01*
X-787160Y369480D01*
X-781660Y369480D01*
X-778960Y368080D01*
X-777560Y366780D01*
X-776260Y363980D01*
X-776260Y361280D01*
X-777560Y358579D01*
X-780360Y354480D01*
X-793960Y340880D01*
X-774860Y340880D01*
X-746760Y369480D02*
G01*
X-760459Y340880D01*
X-765860Y369480D02*
G01*
X-746760Y369480D01*
X460699Y-471599D02*
G01*
X497500Y-471599D01*
X479099Y-490000D02*
G01*
X479099Y-453200D01*
X464800Y-437600D02*
G01*
X462800Y-437600D01*
X458700Y-435600D01*
X456599Y-433500D01*
X454599Y-429500D01*
X454599Y-421300D01*
X456599Y-417200D01*
X458700Y-415100D01*
X462800Y-413100D01*
X466900Y-413100D01*
X470999Y-415100D01*
X477099Y-419200D01*
X497500Y-439700D01*
X497500Y-411000D01*
X454599Y-377100D02*
G01*
X483199Y-397500D01*
X483199Y-366900D01*
X454599Y-377100D02*
G01*
X497500Y-377100D01*
X454599Y-353400D02*
G01*
X497500Y-337000D01*
X454599Y-320600D02*
G01*
X497500Y-337000D01*
X-634090Y-278780D02*
G01*
X-626790Y-297880D01*
X-619590Y-278780D02*
G01*
X-626790Y-297880D01*
X-613590Y-278780D02*
G01*
X-613590Y-297880D01*
X-613590Y-278780D02*
G01*
X-605390Y-278780D01*
X-602590Y-279680D01*
X-601690Y-280580D01*
X-600790Y-282480D01*
X-600790Y-284280D01*
X-601690Y-286080D01*
X-602590Y-286980D01*
X-605390Y-287880D01*
X-613590Y-287880D01*
X-607190Y-287880D02*
G01*
X-600790Y-297880D01*
X-594790Y-278780D02*
G01*
X-594790Y-297880D01*
X-594790Y-278780D02*
G01*
X-582990Y-278780D01*
X-594790Y-287880D02*
G01*
X-587590Y-287880D01*
X-594790Y-297880D02*
G01*
X-582990Y-297880D01*
X-576990Y-278780D02*
G01*
X-576990Y-297880D01*
X-576990Y-278780D02*
G01*
X-565190Y-278780D01*
X-576990Y-287880D02*
G01*
X-569690Y-287880D01*
X-545590Y-283380D02*
G01*
X-546490Y-281480D01*
X-548290Y-279680D01*
X-550090Y-278780D01*
X-553690Y-278780D01*
X-555590Y-279680D01*
X-557390Y-281480D01*
X-558290Y-283380D01*
X-559190Y-286080D01*
X-559190Y-290580D01*
X-558290Y-293380D01*
X-557390Y-295180D01*
X-555590Y-296980D01*
X-553690Y-297880D01*
X-550090Y-297880D01*
X-548290Y-296980D01*
X-546490Y-295180D01*
X-545590Y-293380D01*
X-532290Y-278780D02*
G01*
X-539590Y-297880D01*
X-532290Y-278780D02*
G01*
X-524990Y-297880D01*
X-536790Y-291480D02*
G01*
X-527690Y-291480D01*
X-518990Y-278780D02*
G01*
X-518990Y-297880D01*
X-518990Y-278780D02*
G01*
X-510790Y-278780D01*
X-508090Y-279680D01*
X-507190Y-280580D01*
X-506290Y-282480D01*
X-506290Y-285180D01*
X-507190Y-286980D01*
X-508090Y-287880D01*
X-510790Y-288780D01*
X-518990Y-288780D01*
D10*
X596515Y-68426D02*
G01*
X596515Y-30280D01*
X596515Y90281D02*
G01*
X596515Y128421D01*
X596515Y128421D02*
G01*
X687809Y128421D01*
X596515Y-63297D02*
G01*
X596515Y-68426D01*
X596515Y-68426D02*
G01*
X687809Y-68426D01*
X763837Y-21922D02*
G01*
X763837Y81923D01*
D51*
X241500Y204260D02*
G01*
X241500Y160950D01*
X178499Y160950D01*
X178499Y204260D01*
X241500Y235750D02*
G01*
X241500Y279060D01*
X202129Y279060D01*
X178499Y279060D01*
X178499Y235750D01*
D10*
X-1249055Y162993D02*
G01*
X-1249055Y37007D01*
X-1130945Y162993D02*
G01*
X-1130945Y37007D01*
X-1249055Y162993D02*
G01*
X-1248095Y162993D01*
X-1131905Y162993D02*
G01*
X-1130945Y162993D01*
X-1130945Y37007D02*
G01*
X-1131905Y37007D01*
X-1248095Y37007D02*
G01*
X-1249055Y37007D01*
X-450500Y394000D02*
G01*
X-508500Y394000D01*
X-450500Y326000D02*
G01*
X-508500Y326000D01*
X-450500Y326000D02*
G01*
X-450500Y394000D01*
X-531500Y394000D02*
G01*
X-577500Y394000D01*
X-532500Y326000D02*
G01*
X-577500Y326000D01*
X-577500Y326000D02*
G01*
X-591500Y340000D01*
X-591500Y380000D01*
X-577500Y394000D01*
D52*
X-514500Y345000D02*
G01*
X-514500Y375999D01*
X-524500Y366000D01*
X-524500Y352000D01*
X-514500Y342000D01*
X-514500Y351000D01*
X-519500Y369000D02*
G01*
X-519500Y349000D01*
D10*
X-59500Y425999D02*
G01*
X-1499Y425999D01*
X-59500Y494000D02*
G01*
X-1499Y494000D01*
X-59500Y494000D02*
G01*
X-59500Y425999D01*
X21499Y425999D02*
G01*
X67500Y425999D01*
X22500Y494000D02*
G01*
X67500Y494000D01*
X67500Y494000D02*
G01*
X81499Y480000D01*
X81499Y440000D01*
X67500Y425999D01*
D52*
X4500Y475000D02*
G01*
X4500Y444000D01*
X14500Y454000D01*
X14500Y468000D01*
X4500Y478000D01*
X4500Y469000D01*
X9500Y450999D02*
G01*
X9500Y470999D01*
D10*
X-370000Y490000D02*
G01*
X-370000Y601746D01*
X-370000Y490000D02*
G01*
X-410978Y490000D01*
X-689021Y490000D02*
G01*
X-730000Y490000D01*
X-730000Y600000D01*
X-686569Y660000D02*
G01*
X-413431Y660000D01*
D53*
X-1302362Y-827108D02*
G01*
X-1302400Y-827659D01*
X-1302400Y-996960D01*
X-1294500Y-996960D01*
X-1105500Y-996960D02*
G01*
X-1097600Y-996960D01*
X-1097600Y-827659D01*
X-1097638Y-829077D01*
X-827638Y-982891D02*
G01*
X-827600Y-982340D01*
X-827600Y-813040D01*
X-835500Y-813040D01*
X-1024500Y-813040D02*
G01*
X-1032400Y-813040D01*
X-1032400Y-982340D01*
X-1032362Y-980923D01*
X-502361Y-827108D02*
G01*
X-502400Y-827659D01*
X-502400Y-996960D01*
X-494500Y-996960D01*
X-305500Y-996960D02*
G01*
X-297600Y-996960D01*
X-297600Y-827659D01*
X-297638Y-829077D01*
X-557638Y-982891D02*
G01*
X-557600Y-982340D01*
X-557600Y-813040D01*
X-565500Y-813040D01*
X-754500Y-813040D02*
G01*
X-762400Y-813040D01*
X-762400Y-982340D01*
X-762362Y-980923D01*
X-242362Y-827108D02*
G01*
X-242399Y-827659D01*
X-242399Y-996960D01*
X-234500Y-996960D01*
X-45499Y-996960D02*
G01*
X-37599Y-996960D01*
X-37599Y-827659D01*
X-37638Y-829077D01*
X232361Y-982891D02*
G01*
X232399Y-982340D01*
X232399Y-813040D01*
X224500Y-813040D01*
X35499Y-813040D02*
G01*
X27599Y-813040D01*
X27599Y-982340D01*
X27638Y-980923D01*
D54*
X-533992Y166779D02*
G01*
X-533992Y204531D01*
X-586008Y204531D01*
X-586008Y166779D01*
X-533992Y133220D02*
G01*
X-533992Y95469D01*
X-586008Y95469D01*
X-586008Y133220D01*
X-463992Y166779D02*
G01*
X-463992Y204531D01*
X-516008Y204531D01*
X-516008Y166779D01*
X-463992Y133220D02*
G01*
X-463992Y95469D01*
X-516008Y95469D01*
X-516008Y133220D01*
X-536780Y276008D02*
G01*
X-574531Y276008D01*
X-574531Y223992D01*
X-536780Y223992D01*
X-503220Y276008D02*
G01*
X-465469Y276008D01*
X-465469Y223992D01*
X-503220Y223992D01*
X-672484Y-707449D02*
G01*
X-672484Y-760989D01*
X-587516Y-760989D01*
X-587516Y-707449D01*
X-672484Y-632551D02*
G01*
X-672484Y-579011D01*
X-587516Y-579011D01*
X-587516Y-632551D01*
X-942484Y-707449D02*
G01*
X-942484Y-760989D01*
X-857516Y-760989D01*
X-857516Y-707449D01*
X-942484Y-632551D02*
G01*
X-942484Y-579011D01*
X-857516Y-579011D01*
X-857516Y-632551D01*
X-156779Y486008D02*
G01*
X-194531Y486008D01*
X-194531Y433991D01*
X-156779Y433991D01*
X-123220Y486008D02*
G01*
X-85469Y486008D01*
X-85469Y433991D01*
X-123220Y433991D01*
D10*
X205589Y82990D02*
G01*
X154410Y82990D01*
X154410Y-42989D02*
G01*
X205589Y-42989D01*
X154410Y-8260D02*
G01*
X154410Y1060D01*
X154410Y38939D02*
G01*
X154410Y48260D01*
X205589Y-8260D02*
G01*
X205589Y1060D01*
X205589Y38939D02*
G01*
X205589Y48260D01*
X10499Y-100500D02*
G01*
X-329500Y-100500D01*
X-329500Y239500D01*
X10499Y239500D01*
X10499Y-100500D01*
X-1068115Y-247089D02*
G01*
X-1069529Y-245675D01*
X-1069529Y-245675D02*
G01*
X-1069529Y-234361D01*
X-1069529Y-234361D02*
G01*
X-1068115Y-232947D01*
X-872954Y-51926D02*
G01*
X-880025Y-44856D01*
X-880025Y-44856D02*
G01*
X-887096Y-51926D01*
X-887096Y-428108D02*
G01*
X-880025Y-435179D01*
X-880025Y-435179D02*
G01*
X-872954Y-428108D01*
X-691934Y-232947D02*
G01*
X-684863Y-240018D01*
X-684863Y-240018D02*
G01*
X-691934Y-247089D01*
D54*
X-102055Y-287630D02*
G01*
X22055Y-287630D01*
X-102055Y-372370D02*
G01*
X22055Y-372370D01*
X-943383Y143378D02*
G01*
X-996627Y143378D01*
X-943383Y196622D02*
G01*
X-996627Y196622D01*
D55*
X-1154000Y-51999D02*
G01*
X-1154000Y11999D01*
X-1150000Y11999D02*
G01*
X-1150000Y-51999D01*
X-1246000Y11999D02*
G01*
X-1134000Y11999D01*
X-1134000Y-41000D02*
G01*
X-1134000Y-51999D01*
X-1134000Y-51999D02*
G01*
X-1246000Y-51999D01*
X-1134000Y11999D02*
G01*
X-1134000Y1000D01*
X-1246000Y-41000D02*
G01*
X-1246000Y-51999D01*
X-1246000Y11999D02*
G01*
X-1246000Y1000D01*
D54*
X-1236780Y-253992D02*
G01*
X-1274531Y-253992D01*
X-1274531Y-306008D01*
X-1236780Y-306008D01*
X-1203220Y-253992D02*
G01*
X-1165469Y-253992D01*
X-1165469Y-306008D01*
X-1203220Y-306008D01*
X-1203220Y-366008D02*
G01*
X-1165469Y-366008D01*
X-1165469Y-313992D01*
X-1203220Y-313992D01*
X-1236780Y-366008D02*
G01*
X-1274531Y-366008D01*
X-1274531Y-313992D01*
X-1236780Y-313992D01*
X-656007Y133220D02*
G01*
X-656007Y95469D01*
X-603992Y95469D01*
X-603992Y133220D01*
X-656007Y166779D02*
G01*
X-656007Y204531D01*
X-603992Y204531D01*
X-603992Y166779D01*
X-686780Y386008D02*
G01*
X-724531Y386008D01*
X-724531Y333992D01*
X-686780Y333992D01*
X-653220Y386008D02*
G01*
X-615469Y386008D01*
X-615469Y333992D01*
X-653220Y333992D01*
D10*
X675509Y-210005D02*
G01*
X518150Y-210005D01*
X518150Y-610005D02*
G01*
X518150Y-210005D01*
X872363Y-210005D02*
G01*
X758193Y-210005D01*
X675509Y-610005D02*
G01*
X518150Y-610005D01*
X874134Y-610005D02*
G01*
X758193Y-610005D01*
X874134Y-610005D02*
G01*
X872363Y-210005D01*
X660131Y-148194D02*
G01*
X777878Y-148194D01*
X661131Y-671816D02*
G01*
X775131Y-671816D01*
X777878Y-210005D02*
G01*
X777878Y-148194D01*
X775131Y-671816D02*
G01*
X775131Y-610005D01*
X660131Y-210005D02*
G01*
X660131Y-148194D01*
X661131Y-671816D02*
G01*
X661131Y-610005D01*
G75*
G01
X-1299570Y-1016080D02*
G03X-1299570Y-1016080I-2790J0D01*
G75*
G01
X-824850Y-793920D02*
G03X-824850Y-793920I-2790J0D01*
G75*
G01
X-499570Y-1016080D02*
G03X-499570Y-1016080I-2790J0D01*
G75*
G01
X-554850Y-793920D02*
G03X-554850Y-793920I-2790J0D01*
G75*
G01
X-239570Y-1016080D02*
G03X-239570Y-1016080I-2790J0D01*
G75*
G01
X235150Y-793920D02*
G03X235150Y-793920I-2790J0D01*
G75*
G01
X70500Y-110500D02*
G03X70500Y-110500I-10000J0D01*
G75*
G01
X-1070140Y-287390D02*
G03X-1070140Y-287390I-10000J0D01*
D56*
G75*
G01
X-116180Y-300470D02*
G03X-116180Y-300470I-2950J0D01*
G75*
G01
X-926890Y154250D02*
G03X-926890Y154250I-2950J0D01*
M02*
