M48
INCH,LZ
;FILE_FORMAT=2:4
;TYPE=PLATED
;Layer: Drill PTH
;EasyEDA v6.4.17, 2021-03-02T09:49:47--3:00
;75982556833f470fbfa1e054b907e15e,59636247558045d2802cba280e4ac9d9,10
;Gerber Generator version 0.2
;Holesize 1 = 0.0080 inch
T01C0.0080
;Holesize 2 = 0.0120 inch
T02C0.0120
;Holesize 3 = 0.0120 inch
T03C0.0120
;Holesize 4 = 0.0430 inch
T04C0.0430
;Holesize 5 = 0.0550 inch
T05C0.0550
;Holesize 6 = 0.0710 inch
T06C0.0710
;Holesize 7 = 0.0830 inch
T07C0.0830
%
G05
G90
T01
X-005283Y-002483
X-005717Y-002483
X-005283Y-002917
X-005717Y-002917
T02
X-008589Y-009834
X-008826Y-009834
X-009062Y-009834
X-009298Y-009834
X-009534Y-009834
X-009771Y-009834
X-010007Y-009834
X-008826Y-008653
X-008826Y-008889
X-008826Y-009126
X-008826Y-009362
X-008826Y-009598
X-009062Y-008653
X-009062Y-008889
X-009062Y-009126
X-009062Y-009362
X-009062Y-009598
X-009298Y-008653
X-009298Y-008889
X-009298Y-009126
X-009298Y-009362
X-009298Y-009598
X-009534Y-008653
X-009534Y-008889
X-009534Y-009126
X-009534Y-009362
X-009534Y-009598
X-009771Y-008653
X-009771Y-008889
X-009771Y-009126
X-009771Y-009362
X-009771Y-009598
X-010007Y-008653
X-010007Y-008889
X-010007Y-009126
X-010007Y-009362
X-010007Y-009598
X-008589Y-008653
X-008589Y-008889
X-008589Y-009126
X-008589Y-009362
X-008589Y-009598
X-008589Y-010307
X-008826Y-010307
X-009062Y-010307
X-009298Y-010307
X-009534Y-010307
X-009771Y-010307
X-010007Y-010307
X-008826Y-010070
X-009062Y-010070
X-009298Y-010070
X-009534Y-010070
X-009771Y-010070
X-010007Y-010070
X-008589Y-010070
X-005873Y-009790
X-006110Y-009790
X-006346Y-009790
X-006582Y-009790
X-006818Y-009790
X-007055Y-009790
X-007291Y-009790
X-006110Y-008609
X-006110Y-008845
X-006110Y-009082
X-006110Y-009318
X-006110Y-009554
X-006346Y-008609
X-006346Y-008845
X-006346Y-009082
X-006346Y-009318
X-006346Y-009554
X-006582Y-008609
X-006582Y-008845
X-006582Y-009082
X-006582Y-009318
X-006582Y-009554
X-006818Y-008609
X-006818Y-008845
X-006818Y-009082
X-006818Y-009318
X-006818Y-009554
X-007055Y-008609
X-007055Y-008845
X-007055Y-009082
X-007055Y-009318
X-007055Y-009554
X-007291Y-008609
X-007291Y-008845
X-007291Y-009082
X-007291Y-009318
X-007291Y-009554
X-005873Y-008609
X-005873Y-008845
X-005873Y-009082
X-005873Y-009318
X-005873Y-009554
X-005873Y-010263
X-006110Y-010263
X-006346Y-010263
X-006582Y-010263
X-006818Y-010263
X-007055Y-010263
X-007291Y-010263
X-006110Y-010026
X-006346Y-010026
X-006582Y-010026
X-006818Y-010026
X-007055Y-010026
X-007291Y-010026
X-005873Y-010026
X002010Y-009821
X001774Y-009821
X001537Y-009821
X001301Y-009821
X001065Y-009821
X000829Y-009821
X000592Y-009821
X001774Y-008640
X001774Y-008877
X001774Y-009113
X001774Y-009349
X001774Y-009585
X001537Y-008640
X001537Y-008877
X001537Y-009113
X001537Y-009349
X001537Y-009585
X001301Y-008640
X001301Y-008877
X001301Y-009113
X001301Y-009349
X001301Y-009585
X001065Y-008640
X001065Y-008877
X001065Y-009113
X001065Y-009349
X001065Y-009585
X000829Y-008640
X000829Y-008877
X000829Y-009113
X000829Y-009349
X000829Y-009585
X000592Y-008640
X000592Y-008877
X000592Y-009113
X000592Y-009349
X000592Y-009585
X002010Y-008640
X002010Y-008877
X002010Y-009113
X002010Y-009349
X002010Y-009585
X002010Y-010294
X001774Y-010294
X001537Y-010294
X001301Y-010294
X001065Y-010294
X000829Y-010294
X000592Y-010294
X001774Y-010058
X001537Y-010058
X001301Y-010058
X001065Y-010058
X000829Y-010058
X000592Y-010058
X002010Y-010058
X-011283Y-008992
X-011520Y-008992
X-011756Y-008992
X-011992Y-008992
X-012228Y-008992
X-012465Y-008992
X-012701Y-008992
X-011520Y-007811
X-011520Y-008047
X-011520Y-008283
X-011520Y-008519
X-011520Y-008756
X-011756Y-007811
X-011756Y-008047
X-011756Y-008283
X-011756Y-008519
X-011756Y-008756
X-011992Y-007811
X-011992Y-008047
X-011992Y-008283
X-011992Y-008519
X-011992Y-008756
X-012228Y-007811
X-012228Y-008047
X-012228Y-008283
X-012228Y-008519
X-012228Y-008756
X-012465Y-007811
X-012465Y-008047
X-012465Y-008283
X-012465Y-008519
X-012465Y-008756
X-012701Y-007811
X-012701Y-008047
X-012701Y-008283
X-012701Y-008519
X-012701Y-008756
X-011283Y-007811
X-011283Y-008047
X-011283Y-008283
X-011283Y-008519
X-011283Y-008756
X-011283Y-009464
X-011520Y-009464
X-011756Y-009464
X-011992Y-009464
X-012228Y-009464
X-012465Y-009464
X-012701Y-009464
X-011520Y-009228
X-011756Y-009228
X-011992Y-009228
X-012228Y-009228
X-012465Y-009228
X-012701Y-009228
X-011283Y-009228
X-003265Y-009010
X-003502Y-009010
X-003738Y-009010
X-003974Y-009010
X-004210Y-009010
X-004446Y-009010
X-004683Y-009010
X-003502Y-007829
X-003502Y-008065
X-003502Y-008301
X-003502Y-008537
X-003502Y-008774
X-003738Y-007829
X-003738Y-008065
X-003738Y-008301
X-003738Y-008537
X-003738Y-008774
X-003974Y-007829
X-003974Y-008065
X-003974Y-008301
X-003974Y-008537
X-003974Y-008774
X-004210Y-007829
X-004210Y-008065
X-004210Y-008301
X-004210Y-008537
X-004210Y-008774
X-004446Y-007829
X-004446Y-008065
X-004446Y-008301
X-004446Y-008537
X-004446Y-008774
X-004683Y-007829
X-004683Y-008065
X-004683Y-008301
X-004683Y-008537
X-004683Y-008774
X-003265Y-007829
X-003265Y-008065
X-003265Y-008301
X-003265Y-008537
X-003265Y-008774
X-003265Y-009482
X-003502Y-009482
X-003738Y-009482
X-003974Y-009482
X-004210Y-009482
X-004446Y-009482
X-004683Y-009482
X-003502Y-009246
X-003738Y-009246
X-003974Y-009246
X-004210Y-009246
X-004446Y-009246
X-004683Y-009246
X-003265Y-009246
X-000691Y-008978
X-000928Y-008978
X-001164Y-008978
X-001400Y-008978
X-001636Y-008978
X-001873Y-008978
X-002109Y-008978
X-000928Y-007797
X-000928Y-008033
X-000928Y-008270
X-000928Y-008506
X-000928Y-008742
X-001164Y-007797
X-001164Y-008033
X-001164Y-008270
X-001164Y-008506
X-001164Y-008742
X-001400Y-007797
X-001400Y-008033
X-001400Y-008270
X-001400Y-008506
X-001400Y-008742
X-001636Y-007797
X-001636Y-008033
X-001636Y-008270
X-001636Y-008506
X-001636Y-008742
X-001873Y-007797
X-001873Y-008033
X-001873Y-008270
X-001873Y-008506
X-001873Y-008742
X-002109Y-007797
X-002109Y-008033
X-002109Y-008270
X-002109Y-008506
X-002109Y-008742
X-000691Y-007797
X-000691Y-008033
X-000691Y-008270
X-000691Y-008506
X-000691Y-008742
X-000691Y-009451
X-000928Y-009451
X-001164Y-009451
X-001400Y-009451
X-001636Y-009451
X-001873Y-009451
X-002109Y-009451
X-000928Y-009215
X-001164Y-009215
X-001400Y-009215
X-001636Y-009215
X-001873Y-009215
X-002109Y-009215
X-000691Y-009215
X-003777Y-010300
X-004013Y-010300
X-004249Y-010300
X-004485Y-010300
X-004721Y-010300
X-003777Y-010064
X-004013Y-010064
X-004249Y-010064
X-004485Y-010064
X-004721Y-010064
X-001155Y-010307
X-001391Y-010307
X-001627Y-010307
X-001864Y-010307
X-002100Y-010307
X-001155Y-010071
X-001391Y-010071
X-001627Y-010071
X-001864Y-010071
X-002100Y-010071
X-011777Y-010293
X-012013Y-010293
X-012249Y-010293
X-012485Y-010293
X-012721Y-010293
X-011777Y-010057
X-012013Y-010057
X-012249Y-010057
X-012485Y-010057
X-012721Y-010057
X-008595Y-008035
X-008831Y-008035
X-009068Y-008035
X-009304Y-008035
X-009540Y-008035
X-008595Y-007799
X-008831Y-007799
X-009068Y-007799
X-009304Y-007799
X-009540Y-007799
X-005869Y-008058
X-006105Y-008058
X-006341Y-008058
X-006577Y-008058
X-006814Y-008058
X-005869Y-007822
X-006105Y-007822
X-006341Y-007822
X-006577Y-007822
X-006814Y-007822
X002020Y-008047
X001784Y-008047
X001548Y-008047
X001312Y-008047
X001076Y-008047
X002020Y-007810
X001784Y-007810
X001548Y-007810
X001312Y-007810
X001076Y-007810
T03
X-008000Y-004600
X-007400Y-004900
X-006600Y-003800
X-013200Y-005600
X-012900Y-005600
X-012500Y-005600
X-012100Y-005600
X-011700Y-005600
X-011300Y-005600
X-010900Y-005600
X-013000Y-006100
X-012100Y-006100
X-011200Y-006100
X-009000Y-006118
X-009600Y-005900
X-009600Y-006300
X-008300Y-006300
X-008300Y-005900
X-009600Y-005600
X-009300Y-005600
X-009000Y-005600
X-008700Y-005600
X-008400Y-005600
X-006600Y-005600
X-006300Y-005600
X-005600Y-005700
X-005900Y-005700
X-005600Y-006000
X-005600Y-006300
X-006300Y-006118
X-004400Y-006110
X-003500Y-006110
X-004900Y-005700
X-004500Y-005700
X-004100Y-005700
X-003700Y-005700
X-003300Y-005700
X-004900Y-006000
X-004900Y-006300
X-002300Y-006300
X-002300Y-006000
X-001900Y-006100
X-000900Y-006110
X-000400Y-006300
X-001400Y-006300
X-001400Y-006000
X-000400Y-006000
X-008800Y-002400
X-008822Y-003446
X-008257Y-002896
X-009382Y-002846
X-009887Y-002401
X-009347Y-001871
X-008807Y-001366
X-008307Y-001886
X-007837Y-002416
X-012200Y-002400
X-011900Y-002100
X-012900Y-002440
X-012800Y001100
X-009000Y001500
X-009041Y002500
X-010636Y002500
X-011781Y002500
X-010200Y-000900
X-010200Y-000600
X-010100Y-000300
X-009800Y000000
X-009400Y000300
X-009100Y000300
X-007700Y-000500
X-007400Y-000600
X-007200Y-000900
X-006700Y-001000
X-007100Y-001300
X-002600Y000800
X-002300Y000700
X-002000Y000600
X-001700Y000500
X-001600Y002100
X-001300Y001900
X-001000Y001700
X-000705Y001600
X-002200Y-002300
X-002500Y-002800
X-002800Y-002300
X-004800Y-001800
X001400Y003000
X002100Y003000
X001800Y000200
X000800Y-002000
X-001100Y001400
X-000600Y000000
X-000300Y000000
X000700Y-001300
X-005900Y-003800
X-006500Y-002900
X001100Y001000
X-001200Y-004000
X-000900Y-002400
X-000400Y-003300
X001000Y-003000
X000500Y-003100
X000500Y-003500
X003400Y000300
X003400Y-000100
X003400Y000700
X000605Y002500
X000300Y002900
X-007100Y004100
X-006700Y004100
X-006300Y004100
X-005497Y002500
X-003600Y-001600
X-007000Y000900
X-003900Y-004400
X-001200Y001000
X-004000Y002800
X-001600Y001000
X-003700Y002600
X-003300Y-003300
X-006600Y-002300
X-005300Y-000700
X-006200Y-001760
X-007700Y002140
X-006100Y003100
X-004500Y004400
X-003340Y004300
X-000240Y003900
X000440Y003900
X-002800Y002100
X-000905Y-000900
X-001800Y-002960
X-010913Y-004654
X-011900Y001400
X000100Y001775
X-006507Y003110
X001800Y-000800
X003900Y-004700
X003900Y-005000
X003900Y-005300
X003900Y-005600
X004200Y-005600
X004200Y-005300
X004200Y-005000
X004200Y-004700
X003900Y-004000
X004200Y-004000
X004200Y-003700
X003900Y-003700
X003900Y-003400
X004200Y-003400
X003900Y-003100
X004200Y-003100
X004200Y-002800
X003900Y-002800
T04
X007169Y-001935
X007169Y-006265
T05
X-009101Y-011800G85X-009099Y-011800
X-005501Y-011800G85X-005499Y-011800
X-001901Y-011800G85X-001899Y-011800
T06
X003232Y-005084
X003232Y-003116
T07
X-012600Y006200
X001600Y006200
X-012600Y-011600
X001600Y-011600
M30
