G04 Layer: BottomSilkLayer*
G04 EasyEDA v6.4.17, 2021-03-02T09:49:47--3:00*
G04 75982556833f470fbfa1e054b907e15e,59636247558045d2802cba280e4ac9d9,10*
G04 Gerber Generator version 0.2*
G04 Scale: 100 percent, Rotated: No, Reflected: No *
G04 Dimensions in inches *
G04 leading zeros omitted , absolute positions ,3 integer and 6 decimal *
%FSLAX36Y36*%
%MOIN*%

%ADD54C,0.0060*%
%ADD58C,0.0079*%
%ADD59C,0.0098*%

%LPD*%
D54*
X-535000Y-129600D02*
G01*
X-535000Y-160300D01*
X-537000Y-166400D01*
X-541100Y-170500D01*
X-547300Y-172500D01*
X-551400Y-172500D01*
X-557500Y-170500D01*
X-561600Y-166400D01*
X-563600Y-160300D01*
X-563600Y-129600D01*
X-601700Y-129600D02*
G01*
X-581200Y-129600D01*
X-579200Y-148000D01*
X-581200Y-146000D01*
X-587400Y-143900D01*
X-593500Y-143900D01*
X-599600Y-146000D01*
X-603700Y-150000D01*
X-605800Y-156200D01*
X-605800Y-160300D01*
X-603700Y-166400D01*
X-599600Y-170500D01*
X-593500Y-172500D01*
X-587400Y-172500D01*
X-581200Y-170500D01*
X-579200Y-168500D01*
X-577100Y-164399D01*
D58*
X-600200Y-203100D02*
G01*
X-616900Y-203100D01*
X-616900Y-219800D01*
X-600200Y-336900D02*
G01*
X-616900Y-336900D01*
X-616900Y-320199D01*
X-499800Y-336900D02*
G01*
X-483100Y-336900D01*
X-483100Y-320199D01*
X-483100Y-219800D02*
G01*
X-483100Y-203100D01*
X-499800Y-203100D01*
D59*
G75*
G01*
X-462400Y-209000D02*
G02*
X-462400Y-209100I4900J-50D01*
M02*
