G04 Layer: BottomLayer*
G04 EasyEDA v6.4.17, 2021-03-02T09:49:47--3:00*
G04 75982556833f470fbfa1e054b907e15e,59636247558045d2802cba280e4ac9d9,10*
G04 Gerber Generator version 0.2*
G04 Scale: 100 percent, Rotated: No, Reflected: No *
G04 Dimensions in inches *
G04 leading zeros omitted , absolute positions ,3 integer and 6 decimal *
%FSLAX36Y36*%
%MOIN*%

%ADD10C,0.0100*%
%ADD13C,0.0150*%
%ADD14C,0.0240*%
%ADD15C,0.0236*%
%ADD16C,0.1496*%
%ADD17C,0.0197*%
%ADD44C,0.0827*%
%ADD45C,0.0984*%
%ADD46C,0.0709*%
%ADD47C,0.0300*%

%LPD*%
G36*
X-880000Y-488340D02*
G01*
X-881540Y-488040D01*
X-882820Y-487180D01*
X-1111220Y-258780D01*
X-1112100Y-257480D01*
X-1112400Y-255940D01*
X-1112400Y-224060D01*
X-1112100Y-222520D01*
X-1111220Y-221220D01*
X-994020Y-104019D01*
X-993060Y-103320D01*
X-991620Y-102540D01*
X-989180Y-100540D01*
X-944920Y-56280D01*
X-943620Y-55400D01*
X-942080Y-55100D01*
X-880200Y-55100D01*
X-877060Y-54800D01*
X-874220Y-53940D01*
X-871620Y-52539D01*
X-869180Y-50540D01*
X-864920Y-46280D01*
X-863620Y-45400D01*
X-862080Y-45100D01*
X-826560Y-45100D01*
X-825020Y-45400D01*
X-823720Y-46280D01*
X-729760Y-140240D01*
X-729320Y-140760D01*
X-726919Y-144200D01*
X-724200Y-146920D01*
X-720759Y-149320D01*
X-720240Y-149760D01*
X-636520Y-233480D01*
X-635660Y-234780D01*
X-635340Y-236300D01*
X-635340Y-243700D01*
X-635660Y-245219D01*
X-636520Y-246520D01*
X-660240Y-270240D01*
X-660759Y-270680D01*
X-664200Y-273080D01*
X-666919Y-275800D01*
X-669320Y-279240D01*
X-669760Y-279760D01*
X-877180Y-487180D01*
X-878460Y-488040D01*
G37*

%LPD*%
G36*
X-1018400Y-690000D02*
G01*
X-1019940Y-689700D01*
X-1021220Y-688820D01*
X-1022099Y-687540D01*
X-1022400Y-686000D01*
X-1022400Y-534000D01*
X-1022099Y-532460D01*
X-1021220Y-531180D01*
X-1019940Y-530300D01*
X-1018400Y-530000D01*
X246000Y-530000D01*
X247540Y-530300D01*
X248820Y-531180D01*
X249700Y-532460D01*
X250000Y-534000D01*
X250000Y-686000D01*
X249700Y-687540D01*
X248820Y-688820D01*
X247540Y-689700D01*
X246000Y-690000D01*
G37*

%LPD*%
G36*
X-1335900Y-690000D02*
G01*
X-1337440Y-689700D01*
X-1338720Y-688820D01*
X-1339600Y-687540D01*
X-1339900Y-686000D01*
X-1339900Y-534000D01*
X-1339600Y-532460D01*
X-1338720Y-531180D01*
X-1337420Y-530300D01*
X-1335900Y-530000D01*
X-1061600Y-530000D01*
X-1060060Y-530300D01*
X-1058780Y-531180D01*
X-1057900Y-532460D01*
X-1057600Y-534000D01*
X-1057600Y-686000D01*
X-1057900Y-687540D01*
X-1058780Y-688820D01*
X-1060060Y-689700D01*
X-1061600Y-690000D01*
G37*

%LPD*%
G36*
X-820040Y-980000D02*
G01*
X-834340Y-979740D01*
X-836000Y-979340D01*
X-837360Y-978300D01*
X-838139Y-976780D01*
X-838360Y-975939D01*
X-839599Y-973300D01*
X-839960Y-971600D01*
X-839599Y-969920D01*
X-838360Y-967280D01*
X-837380Y-963600D01*
X-837039Y-959800D01*
X-837380Y-955980D01*
X-838360Y-952300D01*
X-839599Y-949680D01*
X-839960Y-947980D01*
X-839599Y-946280D01*
X-838360Y-943660D01*
X-837380Y-939980D01*
X-837039Y-936180D01*
X-837380Y-932360D01*
X-838360Y-928680D01*
X-839599Y-926060D01*
X-839960Y-924360D01*
X-839599Y-922660D01*
X-838360Y-920040D01*
X-837380Y-916360D01*
X-837039Y-912540D01*
X-837380Y-908740D01*
X-838360Y-905060D01*
X-839599Y-902440D01*
X-839960Y-900740D01*
X-839599Y-899040D01*
X-838360Y-896420D01*
X-837380Y-892740D01*
X-837039Y-888940D01*
X-837380Y-885120D01*
X-838360Y-881440D01*
X-839599Y-878820D01*
X-839960Y-877120D01*
X-839599Y-875420D01*
X-838360Y-872800D01*
X-837380Y-869120D01*
X-837039Y-865320D01*
X-837380Y-861500D01*
X-838360Y-857820D01*
X-839980Y-854360D01*
X-842159Y-851240D01*
X-844860Y-848540D01*
X-848000Y-846340D01*
X-851460Y-844740D01*
X-855140Y-843740D01*
X-858940Y-843420D01*
X-862740Y-843740D01*
X-866420Y-844740D01*
X-869060Y-845960D01*
X-870759Y-846340D01*
X-872440Y-845960D01*
X-875080Y-844740D01*
X-878760Y-843740D01*
X-882560Y-843420D01*
X-886360Y-843740D01*
X-890040Y-844740D01*
X-892680Y-845960D01*
X-894360Y-846340D01*
X-896060Y-845960D01*
X-898700Y-844740D01*
X-902380Y-843740D01*
X-906180Y-843420D01*
X-909980Y-843740D01*
X-913660Y-844740D01*
X-916300Y-845960D01*
X-917980Y-846340D01*
X-919680Y-845960D01*
X-922320Y-844740D01*
X-926000Y-843740D01*
X-929800Y-843420D01*
X-933600Y-843740D01*
X-937280Y-844740D01*
X-939920Y-845960D01*
X-941600Y-846340D01*
X-943300Y-845960D01*
X-945939Y-844740D01*
X-949620Y-843740D01*
X-953420Y-843420D01*
X-957220Y-843740D01*
X-960900Y-844740D01*
X-963540Y-845960D01*
X-965240Y-846340D01*
X-966919Y-845960D01*
X-969560Y-844740D01*
X-973240Y-843740D01*
X-977039Y-843420D01*
X-980860Y-843740D01*
X-984539Y-844740D01*
X-987159Y-845960D01*
X-988860Y-846340D01*
X-990560Y-845960D01*
X-993180Y-844740D01*
X-996860Y-843740D01*
X-1000660Y-843420D01*
X-1004479Y-843740D01*
X-1008160Y-844740D01*
X-1011620Y-846340D01*
X-1014740Y-848540D01*
X-1017440Y-851240D01*
X-1019640Y-854360D01*
X-1021240Y-857820D01*
X-1022240Y-861500D01*
X-1022560Y-865320D01*
X-1022240Y-869120D01*
X-1021240Y-872800D01*
X-1020020Y-875420D01*
X-1019640Y-877120D01*
X-1020020Y-878820D01*
X-1021240Y-881440D01*
X-1022240Y-885120D01*
X-1022560Y-888940D01*
X-1022240Y-892740D01*
X-1021240Y-896420D01*
X-1020020Y-899040D01*
X-1019640Y-900740D01*
X-1020020Y-902440D01*
X-1021240Y-905060D01*
X-1022240Y-908740D01*
X-1022560Y-912540D01*
X-1022240Y-916360D01*
X-1021240Y-920040D01*
X-1020020Y-922660D01*
X-1019640Y-924360D01*
X-1020020Y-926060D01*
X-1021240Y-928680D01*
X-1022240Y-932360D01*
X-1022560Y-936180D01*
X-1022240Y-939980D01*
X-1021240Y-943660D01*
X-1020020Y-946280D01*
X-1019640Y-947980D01*
X-1020020Y-949680D01*
X-1021240Y-952300D01*
X-1022240Y-955980D01*
X-1022560Y-959800D01*
X-1022240Y-963600D01*
X-1021240Y-967280D01*
X-1020020Y-969920D01*
X-1019640Y-971600D01*
X-1020020Y-973300D01*
X-1020360Y-974040D01*
X-1021260Y-975280D01*
X-1022560Y-976100D01*
X-1024060Y-976360D01*
X-1335980Y-970780D01*
X-1337480Y-970460D01*
X-1338760Y-969580D01*
X-1339600Y-968300D01*
X-1339900Y-966780D01*
X-1339900Y-704100D01*
X-1339600Y-702560D01*
X-1338720Y-701280D01*
X-1337440Y-700400D01*
X-1335900Y-700100D01*
X52939Y-700100D01*
X54480Y-700400D01*
X55780Y-701280D01*
X81280Y-726780D01*
X82160Y-728080D01*
X82460Y-729599D01*
X82460Y-780879D01*
X82820Y-785180D01*
X83820Y-789200D01*
X85500Y-792980D01*
X86380Y-794340D01*
X86980Y-795879D01*
X86880Y-797560D01*
X86000Y-800860D01*
X85660Y-804680D01*
X86000Y-808480D01*
X86980Y-812159D01*
X88600Y-815620D01*
X90780Y-818740D01*
X93480Y-821440D01*
X96620Y-823640D01*
X100079Y-825240D01*
X103760Y-826240D01*
X107560Y-826560D01*
X111359Y-826240D01*
X115040Y-825240D01*
X117680Y-824020D01*
X119380Y-823640D01*
X121060Y-824020D01*
X123699Y-825240D01*
X127380Y-826240D01*
X131200Y-826560D01*
X135000Y-826240D01*
X138680Y-825240D01*
X141300Y-824020D01*
X143000Y-823640D01*
X144700Y-824020D01*
X147320Y-825240D01*
X151000Y-826240D01*
X154820Y-826560D01*
X158620Y-826240D01*
X162300Y-825240D01*
X164920Y-824020D01*
X166620Y-823640D01*
X168320Y-824020D01*
X170940Y-825240D01*
X174620Y-826240D01*
X178440Y-826560D01*
X182240Y-826240D01*
X185920Y-825240D01*
X188540Y-824020D01*
X190240Y-823640D01*
X191940Y-824020D01*
X194560Y-825240D01*
X198240Y-826240D01*
X202060Y-826560D01*
X205859Y-826240D01*
X209540Y-825240D01*
X213000Y-823640D01*
X216119Y-821440D01*
X218820Y-818740D01*
X221020Y-815620D01*
X222620Y-812159D01*
X223619Y-808480D01*
X223939Y-804680D01*
X223619Y-800860D01*
X222620Y-797180D01*
X221400Y-794560D01*
X221020Y-792860D01*
X221400Y-791160D01*
X222620Y-788540D01*
X223619Y-784860D01*
X223939Y-781060D01*
X223619Y-777240D01*
X222620Y-773560D01*
X221020Y-770100D01*
X218820Y-766979D01*
X216119Y-764280D01*
X213000Y-762080D01*
X209540Y-760480D01*
X205859Y-759479D01*
X202060Y-759160D01*
X198240Y-759479D01*
X194560Y-760480D01*
X191940Y-761700D01*
X190240Y-762080D01*
X188540Y-761700D01*
X185920Y-760480D01*
X182240Y-759479D01*
X178440Y-759160D01*
X174620Y-759479D01*
X170940Y-760480D01*
X168320Y-761700D01*
X166620Y-762080D01*
X164920Y-761700D01*
X162300Y-760480D01*
X158620Y-759479D01*
X154820Y-759160D01*
X151000Y-759479D01*
X147320Y-760480D01*
X144700Y-761700D01*
X143000Y-762080D01*
X141300Y-761700D01*
X138680Y-760480D01*
X135620Y-759659D01*
X134080Y-758860D01*
X133020Y-757480D01*
X132660Y-755800D01*
X132660Y-717680D01*
X132320Y-713500D01*
X131320Y-709479D01*
X129800Y-705939D01*
X129360Y-704360D01*
X129580Y-702760D01*
X130440Y-701360D01*
X131760Y-700440D01*
X133360Y-700100D01*
X246000Y-700100D01*
X247540Y-700400D01*
X248820Y-701280D01*
X249700Y-702560D01*
X250000Y-704100D01*
X250000Y-788139D01*
X249660Y-789740D01*
X246400Y-797340D01*
X243540Y-806160D01*
X241500Y-815220D01*
X240320Y-824419D01*
X239899Y-833600D01*
X239899Y-976000D01*
X239600Y-977540D01*
X238720Y-978820D01*
X237440Y-979700D01*
X235900Y-980000D01*
X226040Y-980000D01*
X224360Y-979620D01*
X222979Y-978580D01*
X222180Y-977039D01*
X221540Y-974659D01*
X220320Y-972020D01*
X219940Y-970320D01*
X220320Y-968640D01*
X221540Y-966000D01*
X222540Y-962320D01*
X222860Y-958520D01*
X222540Y-954700D01*
X221540Y-951020D01*
X220320Y-948400D01*
X219940Y-946700D01*
X220320Y-945000D01*
X221540Y-942380D01*
X222540Y-938700D01*
X222860Y-934900D01*
X222540Y-931080D01*
X221540Y-927400D01*
X220320Y-924780D01*
X219940Y-923080D01*
X220320Y-921380D01*
X221540Y-918760D01*
X222540Y-915080D01*
X222860Y-911260D01*
X222540Y-907460D01*
X221540Y-903780D01*
X220320Y-901160D01*
X219940Y-899460D01*
X220320Y-897760D01*
X221540Y-895140D01*
X222540Y-891460D01*
X222860Y-887660D01*
X222540Y-883840D01*
X221540Y-880160D01*
X220320Y-877540D01*
X219940Y-875840D01*
X220320Y-874140D01*
X221540Y-871520D01*
X222540Y-867840D01*
X222860Y-864040D01*
X222540Y-860220D01*
X221540Y-856540D01*
X219940Y-853080D01*
X217740Y-849960D01*
X215040Y-847260D01*
X211920Y-845060D01*
X208460Y-843460D01*
X204780Y-842460D01*
X200980Y-842140D01*
X197160Y-842460D01*
X193480Y-843460D01*
X190859Y-844680D01*
X189160Y-845060D01*
X187460Y-844680D01*
X184840Y-843460D01*
X181160Y-842460D01*
X177360Y-842140D01*
X173540Y-842460D01*
X169860Y-843460D01*
X167240Y-844680D01*
X165539Y-845060D01*
X163840Y-844680D01*
X161220Y-843460D01*
X157540Y-842460D01*
X153740Y-842140D01*
X149920Y-842460D01*
X146240Y-843460D01*
X143620Y-844680D01*
X141920Y-845060D01*
X140220Y-844680D01*
X137600Y-843460D01*
X133920Y-842460D01*
X130120Y-842140D01*
X126300Y-842460D01*
X122620Y-843460D01*
X120000Y-844680D01*
X118300Y-845060D01*
X116600Y-844680D01*
X113980Y-843460D01*
X110300Y-842460D01*
X106500Y-842140D01*
X102680Y-842460D01*
X99000Y-843460D01*
X96359Y-844680D01*
X94680Y-845060D01*
X92980Y-844680D01*
X90340Y-843460D01*
X86660Y-842460D01*
X82860Y-842140D01*
X79060Y-842460D01*
X75380Y-843460D01*
X72740Y-844680D01*
X71060Y-845060D01*
X69360Y-844680D01*
X66720Y-843460D01*
X63040Y-842460D01*
X59240Y-842140D01*
X55439Y-842460D01*
X51760Y-843460D01*
X48300Y-845060D01*
X45160Y-847260D01*
X42460Y-849960D01*
X40279Y-853080D01*
X38660Y-856540D01*
X37680Y-860220D01*
X37340Y-864040D01*
X37680Y-867840D01*
X38660Y-871520D01*
X39900Y-874140D01*
X40260Y-875840D01*
X39900Y-877540D01*
X38660Y-880160D01*
X37680Y-883840D01*
X37340Y-887660D01*
X37680Y-891460D01*
X38660Y-895140D01*
X39900Y-897760D01*
X40260Y-899460D01*
X39900Y-901160D01*
X38660Y-903780D01*
X37680Y-907460D01*
X37340Y-911260D01*
X37680Y-915080D01*
X38660Y-918760D01*
X39900Y-921380D01*
X40260Y-923080D01*
X39900Y-924780D01*
X38660Y-927400D01*
X37680Y-931080D01*
X37340Y-934900D01*
X37680Y-938700D01*
X38660Y-942380D01*
X39900Y-945000D01*
X40260Y-946700D01*
X39900Y-948400D01*
X38660Y-951020D01*
X37680Y-954700D01*
X37340Y-958520D01*
X37680Y-962320D01*
X38660Y-966000D01*
X39900Y-968640D01*
X40260Y-970320D01*
X39900Y-972020D01*
X38660Y-974659D01*
X38020Y-977039D01*
X37220Y-978580D01*
X35860Y-979620D01*
X34160Y-980000D01*
X-561700Y-980000D01*
X-563140Y-979720D01*
X-564400Y-978940D01*
X-565280Y-977760D01*
X-565680Y-976340D01*
X-565780Y-975220D01*
X-566760Y-971540D01*
X-568000Y-968900D01*
X-568360Y-967200D01*
X-568000Y-965520D01*
X-566760Y-962880D01*
X-565780Y-959200D01*
X-565440Y-955400D01*
X-565780Y-951580D01*
X-566760Y-947900D01*
X-568000Y-945280D01*
X-568360Y-943580D01*
X-568000Y-941880D01*
X-566760Y-939260D01*
X-565780Y-935580D01*
X-565440Y-931780D01*
X-565780Y-927960D01*
X-566760Y-924280D01*
X-568000Y-921660D01*
X-568360Y-919960D01*
X-568000Y-918259D01*
X-566760Y-915639D01*
X-565780Y-911960D01*
X-565440Y-908160D01*
X-565780Y-904340D01*
X-566760Y-900660D01*
X-568000Y-898040D01*
X-568360Y-896340D01*
X-568000Y-894640D01*
X-566760Y-892020D01*
X-565780Y-888340D01*
X-565440Y-884539D01*
X-565780Y-880720D01*
X-566760Y-877039D01*
X-568000Y-874419D01*
X-568360Y-872720D01*
X-568000Y-871020D01*
X-566760Y-868400D01*
X-565780Y-864720D01*
X-565440Y-860920D01*
X-565780Y-857099D01*
X-566760Y-853420D01*
X-568380Y-849960D01*
X-570560Y-846840D01*
X-573260Y-844140D01*
X-576400Y-841940D01*
X-579860Y-840340D01*
X-583540Y-839340D01*
X-587340Y-839020D01*
X-591140Y-839340D01*
X-594820Y-840340D01*
X-597460Y-841560D01*
X-599140Y-841940D01*
X-600840Y-841560D01*
X-603480Y-840340D01*
X-607160Y-839340D01*
X-610960Y-839020D01*
X-614760Y-839340D01*
X-618440Y-840340D01*
X-621080Y-841560D01*
X-622760Y-841940D01*
X-624460Y-841560D01*
X-627100Y-840340D01*
X-630780Y-839340D01*
X-634580Y-839020D01*
X-638380Y-839340D01*
X-642060Y-840340D01*
X-644700Y-841560D01*
X-646380Y-841940D01*
X-648080Y-841560D01*
X-650720Y-840340D01*
X-654400Y-839340D01*
X-658199Y-839020D01*
X-662000Y-839340D01*
X-665680Y-840340D01*
X-668319Y-841560D01*
X-670000Y-841940D01*
X-671700Y-841560D01*
X-674340Y-840340D01*
X-678020Y-839340D01*
X-681820Y-839020D01*
X-685620Y-839340D01*
X-689300Y-840340D01*
X-691940Y-841560D01*
X-693640Y-841940D01*
X-695320Y-841560D01*
X-697960Y-840340D01*
X-701640Y-839340D01*
X-705440Y-839020D01*
X-709260Y-839340D01*
X-712940Y-840340D01*
X-715560Y-841560D01*
X-717260Y-841940D01*
X-718960Y-841560D01*
X-721580Y-840340D01*
X-725260Y-839340D01*
X-729060Y-839020D01*
X-732880Y-839340D01*
X-736560Y-840340D01*
X-740020Y-841940D01*
X-743139Y-844140D01*
X-745840Y-846840D01*
X-748040Y-849960D01*
X-749640Y-853420D01*
X-750639Y-857099D01*
X-750960Y-860920D01*
X-750639Y-864720D01*
X-749640Y-868400D01*
X-748420Y-871020D01*
X-748040Y-872720D01*
X-748420Y-874419D01*
X-749640Y-877039D01*
X-750639Y-880720D01*
X-750960Y-884539D01*
X-750639Y-888340D01*
X-749640Y-892020D01*
X-748420Y-894640D01*
X-748040Y-896340D01*
X-748420Y-898040D01*
X-749640Y-900660D01*
X-750639Y-904340D01*
X-750960Y-908160D01*
X-750639Y-911960D01*
X-749640Y-915639D01*
X-748420Y-918259D01*
X-748040Y-919960D01*
X-748420Y-921660D01*
X-749640Y-924280D01*
X-750639Y-927960D01*
X-750960Y-931780D01*
X-750639Y-935580D01*
X-749640Y-939260D01*
X-748420Y-941880D01*
X-748040Y-943580D01*
X-748420Y-945280D01*
X-749640Y-947900D01*
X-750639Y-951580D01*
X-750960Y-955400D01*
X-750639Y-959200D01*
X-749640Y-962880D01*
X-748420Y-965520D01*
X-748040Y-967200D01*
X-748420Y-968900D01*
X-749640Y-971540D01*
X-750639Y-975220D01*
X-750740Y-976340D01*
X-751120Y-977760D01*
X-752020Y-978940D01*
X-753259Y-979720D01*
X-754720Y-980000D01*
G37*

%LPC*%
G36*
X-681360Y-827680D02*
G01*
X-677560Y-827360D01*
X-673880Y-826360D01*
X-671240Y-825140D01*
X-669539Y-824760D01*
X-667860Y-825140D01*
X-665220Y-826360D01*
X-661540Y-827360D01*
X-657720Y-827680D01*
X-653920Y-827360D01*
X-650240Y-826360D01*
X-647620Y-825140D01*
X-645920Y-824760D01*
X-644220Y-825140D01*
X-641600Y-826360D01*
X-637920Y-827360D01*
X-634100Y-827680D01*
X-630300Y-827360D01*
X-626620Y-826360D01*
X-624000Y-825140D01*
X-622300Y-824760D01*
X-620600Y-825140D01*
X-617980Y-826360D01*
X-614300Y-827360D01*
X-610480Y-827680D01*
X-606680Y-827360D01*
X-603000Y-826360D01*
X-600380Y-825140D01*
X-598680Y-824760D01*
X-596980Y-825140D01*
X-594360Y-826360D01*
X-590680Y-827360D01*
X-586860Y-827680D01*
X-583060Y-827360D01*
X-579380Y-826360D01*
X-575920Y-824760D01*
X-572800Y-822560D01*
X-570100Y-819860D01*
X-567900Y-816740D01*
X-566300Y-813280D01*
X-565300Y-809599D01*
X-564980Y-805800D01*
X-565300Y-801979D01*
X-566300Y-798300D01*
X-567520Y-795680D01*
X-567900Y-793980D01*
X-567520Y-792280D01*
X-566300Y-789659D01*
X-565300Y-785980D01*
X-564980Y-782180D01*
X-565300Y-778360D01*
X-566300Y-774680D01*
X-567900Y-771220D01*
X-570100Y-768100D01*
X-572800Y-765400D01*
X-575920Y-763199D01*
X-579380Y-761600D01*
X-583060Y-760600D01*
X-586860Y-760280D01*
X-590680Y-760600D01*
X-594360Y-761600D01*
X-596980Y-762820D01*
X-598680Y-763199D01*
X-600380Y-762820D01*
X-603000Y-761600D01*
X-606680Y-760600D01*
X-610480Y-760280D01*
X-614300Y-760600D01*
X-617980Y-761600D01*
X-620600Y-762820D01*
X-622300Y-763199D01*
X-624000Y-762820D01*
X-626620Y-761600D01*
X-630300Y-760600D01*
X-634100Y-760280D01*
X-637920Y-760600D01*
X-641600Y-761600D01*
X-644220Y-762820D01*
X-645920Y-763199D01*
X-647620Y-762820D01*
X-650240Y-761600D01*
X-653920Y-760600D01*
X-657720Y-760280D01*
X-661540Y-760600D01*
X-665220Y-761600D01*
X-667860Y-762820D01*
X-669539Y-763199D01*
X-671240Y-762820D01*
X-673880Y-761600D01*
X-677560Y-760600D01*
X-681360Y-760280D01*
X-685160Y-760600D01*
X-688840Y-761600D01*
X-692300Y-763199D01*
X-695440Y-765400D01*
X-698139Y-768100D01*
X-700320Y-771220D01*
X-701940Y-774680D01*
X-702920Y-778360D01*
X-703259Y-782180D01*
X-702920Y-785980D01*
X-701940Y-789659D01*
X-700699Y-792280D01*
X-700340Y-793980D01*
X-700699Y-795680D01*
X-701940Y-798300D01*
X-702920Y-801979D01*
X-703259Y-805800D01*
X-702920Y-809599D01*
X-701940Y-813280D01*
X-700320Y-816740D01*
X-698139Y-819860D01*
X-695440Y-822560D01*
X-692300Y-824760D01*
X-688840Y-826360D01*
X-685160Y-827360D01*
G37*
G36*
X-954000Y-825400D02*
G01*
X-950200Y-825060D01*
X-946520Y-824080D01*
X-943880Y-822840D01*
X-942180Y-822480D01*
X-940500Y-822840D01*
X-937860Y-824080D01*
X-934180Y-825060D01*
X-930360Y-825400D01*
X-926560Y-825060D01*
X-922880Y-824080D01*
X-920260Y-822840D01*
X-918560Y-822480D01*
X-916860Y-822840D01*
X-914240Y-824080D01*
X-910560Y-825060D01*
X-906740Y-825400D01*
X-902940Y-825060D01*
X-899260Y-824080D01*
X-896640Y-822840D01*
X-894940Y-822480D01*
X-893240Y-822840D01*
X-890620Y-824080D01*
X-886940Y-825060D01*
X-883120Y-825400D01*
X-879320Y-825060D01*
X-875639Y-824080D01*
X-873020Y-822840D01*
X-871320Y-822480D01*
X-869620Y-822840D01*
X-867000Y-824080D01*
X-863319Y-825060D01*
X-859500Y-825400D01*
X-855699Y-825060D01*
X-852020Y-824080D01*
X-848560Y-822460D01*
X-845440Y-820280D01*
X-842740Y-817580D01*
X-840540Y-814440D01*
X-838940Y-810980D01*
X-837940Y-807300D01*
X-837620Y-803500D01*
X-837940Y-799700D01*
X-838940Y-796020D01*
X-840160Y-793379D01*
X-840540Y-791700D01*
X-840160Y-790000D01*
X-838940Y-787360D01*
X-837940Y-783680D01*
X-837620Y-779880D01*
X-837940Y-776080D01*
X-838940Y-772400D01*
X-840540Y-768940D01*
X-842740Y-765800D01*
X-845440Y-763100D01*
X-848560Y-760920D01*
X-852020Y-759300D01*
X-855699Y-758319D01*
X-859500Y-757980D01*
X-863319Y-758319D01*
X-867000Y-759300D01*
X-869620Y-760540D01*
X-871320Y-760900D01*
X-873020Y-760540D01*
X-875639Y-759300D01*
X-879320Y-758319D01*
X-883120Y-757980D01*
X-886940Y-758319D01*
X-890620Y-759300D01*
X-893240Y-760540D01*
X-894940Y-760900D01*
X-896640Y-760540D01*
X-899260Y-759300D01*
X-902940Y-758319D01*
X-906740Y-757980D01*
X-910560Y-758319D01*
X-914240Y-759300D01*
X-916860Y-760540D01*
X-918560Y-760900D01*
X-920260Y-760540D01*
X-922880Y-759300D01*
X-926560Y-758319D01*
X-930360Y-757980D01*
X-934180Y-758319D01*
X-937860Y-759300D01*
X-940500Y-760540D01*
X-942180Y-760900D01*
X-943880Y-760540D01*
X-946520Y-759300D01*
X-950200Y-758319D01*
X-954000Y-757980D01*
X-957800Y-758319D01*
X-961480Y-759300D01*
X-964940Y-760920D01*
X-968080Y-763100D01*
X-970780Y-765800D01*
X-972960Y-768940D01*
X-974580Y-772400D01*
X-975560Y-776080D01*
X-975900Y-779880D01*
X-975560Y-783680D01*
X-974580Y-787360D01*
X-973340Y-790000D01*
X-972980Y-791700D01*
X-973340Y-793379D01*
X-974580Y-796020D01*
X-975560Y-799700D01*
X-975900Y-803500D01*
X-975560Y-807300D01*
X-974580Y-810980D01*
X-972960Y-814440D01*
X-970780Y-817580D01*
X-968080Y-820280D01*
X-964940Y-822460D01*
X-961480Y-824080D01*
X-957800Y-825060D01*
G37*

%LPD*%
D10*
X-740000Y-490000D02*
G01*
X-770000Y-460000D01*
X-800000Y-460000D01*
D13*
X-1290000Y-243973D02*
G01*
X-1290000Y-50000D01*
X-1280000Y-40000D01*
D10*
X-1020000Y-90000D02*
G01*
X-1030000Y-90000D01*
X-1050000Y-70000D01*
X-1050000Y-50000D01*
X-1030000Y-30000D01*
X-1010000Y-30000D01*
X-1010000Y-30000D02*
G01*
X-1010000Y10000D01*
X-990000Y30000D01*
X-940000Y30000D01*
X-770000Y-50000D02*
G01*
X-750000Y-30000D01*
X-870000Y-30000D01*
X-880000Y-40000D01*
X-950000Y-40000D01*
X-1000000Y-90000D01*
X-1020000Y-90000D01*
X-910000Y30000D02*
G01*
X-410000Y30000D01*
X-360000Y80000D01*
X-260000Y80000D01*
X-980000Y0D02*
G01*
X-900000Y0D01*
X-890000Y10000D01*
X-400000Y10000D01*
X-350000Y60000D01*
X-240000Y60000D01*
X-230000Y70000D01*
X-1020000Y-60000D02*
G01*
X-1000000Y-60000D01*
X-960000Y-20000D01*
X-890000Y-20000D01*
X-880000Y-10000D01*
X-380000Y-10000D01*
X-330000Y40000D01*
X-220000Y40000D01*
X-200000Y60000D01*
X-750000Y-30000D02*
G01*
X-370000Y-30000D01*
X-320000Y20000D01*
X-200000Y20000D01*
X-170000Y50000D01*
X-740000Y-60000D02*
G01*
X-370000Y-60000D01*
X-310000Y0D01*
X-180000Y0D01*
X-70499Y109500D01*
X-70499Y160000D01*
X-100000Y170000D02*
G01*
X-80000Y190000D01*
X-60000Y190000D01*
X-50000Y180000D01*
X-50000Y100000D01*
X-170000Y-20000D01*
X-300000Y-20000D01*
X-360000Y-80000D01*
X-690000Y-80000D01*
X-700000Y-90000D01*
X-720000Y-90000D01*
X-710000Y-130000D02*
G01*
X-350000Y-130000D01*
X-280000Y-60000D01*
X-150000Y-60000D01*
X-10000Y80000D01*
X-10000Y200000D01*
X-50000Y240000D01*
X-170000Y240000D01*
X-190000Y220000D01*
X-190000Y198538D01*
X-171680Y180000D01*
X-140000Y180000D01*
X-130000Y190000D01*
X-560000Y-332000D02*
G01*
X-560000Y-380000D01*
X-550000Y-390000D01*
X-360000Y-390000D01*
X-250000Y-280000D01*
X-612000Y-241000D02*
G01*
X-612000Y-192000D01*
X-570000Y-150000D01*
X-410000Y-150000D01*
X-330000Y-230000D01*
X-280000Y-230000D01*
X-580000Y-208000D02*
G01*
X-580000Y-190000D01*
X-570000Y-180000D01*
X-480000Y-180000D01*
X-60000Y0D02*
G01*
X-60000Y-130000D01*
X-360000Y-430000D01*
X-540000Y-430000D01*
X-590000Y-380000D01*
X-30000Y0D02*
G01*
X-30000Y-130000D01*
X-350000Y-450000D01*
X-550000Y-450000D01*
X-650000Y-350000D01*
X-650000Y-290000D01*
X-120000Y-400000D02*
G01*
X-120000Y-270000D01*
X-90000Y-240000D01*
X50000Y-310000D02*
G01*
X50000Y-260000D01*
X340000Y30000D01*
X50000Y-350000D02*
G01*
X100000Y-350000D01*
X130000Y-320000D01*
X130000Y-220000D01*
X340000Y-10000D01*
X-710000Y410000D02*
G01*
X-710000Y400000D01*
X-660000Y350000D01*
X20000Y350000D01*
X30000Y340000D01*
X30000Y290000D01*
X60499Y250000D02*
G01*
X60499Y339500D01*
X30000Y370000D01*
X-640000Y370000D01*
X-670000Y400000D01*
X-670000Y410000D01*
X-630000Y410000D02*
G01*
X-610000Y390000D01*
X39891Y390000D01*
X110000Y100000D02*
G01*
X110000Y320000D01*
X39891Y390000D01*
X-120000Y100000D02*
G01*
X-300000Y280000D01*
X-400000Y280000D01*
X-160000Y100000D02*
G01*
X-160000Y110000D01*
X-310000Y260000D01*
X-370000Y260000D01*
X-521000Y-332000D02*
G01*
X-521000Y-349000D01*
X-510000Y-360000D01*
X-360000Y-360000D01*
X-330000Y-330000D01*
X-488000Y-300000D02*
G01*
X-310000Y-300000D01*
X-240000Y-230000D01*
X-220000Y-230000D01*
X-670000Y-100000D02*
G01*
X-350000Y-100000D01*
X-290000Y-40000D01*
X-160000Y-40000D01*
X-30000Y90000D01*
X-30000Y190000D01*
X-60000Y220000D01*
X-160000Y220000D01*
X-160000Y210000D01*
D13*
X-1091266Y-465406D02*
G01*
X-1091266Y-458734D01*
X-1130000Y-420000D01*
X-1130000Y-80000D01*
X-960000Y90000D01*
X-700000Y90000D01*
X-1091266Y-465406D02*
G01*
X-1084594Y-465406D01*
X-1040000Y-510000D01*
X-1040000Y-730000D01*
X-1190000Y-210000D02*
G01*
X-1130000Y-210000D01*
X-1280000Y110000D02*
G01*
X-1280000Y-40000D01*
X-1280000Y-40000D01*
X-1220000Y-240000D02*
G01*
X-1220000Y110000D01*
X-1190000Y140000D01*
D10*
X-650654Y310994D02*
G01*
X-640000Y300000D01*
X-290000Y300000D01*
X-260000Y270000D01*
X-50000Y270000D01*
X10000Y210000D01*
X10000Y177500D01*
D47*
X107554Y-781047D02*
G01*
X107554Y-717555D01*
X60000Y-670000D01*
D10*
X340000Y70000D02*
G01*
X330000Y70000D01*
X180000Y-80000D01*
G36*
X-474750Y-246250D02*
G01*
X-474750Y-235750D01*
X-501250Y-235750D01*
X-501250Y-246250D01*
G37*
G36*
X-474750Y-265250D02*
G01*
X-474750Y-254750D01*
X-501250Y-254750D01*
X-501250Y-265250D01*
G37*
G36*
X-474750Y-285250D02*
G01*
X-474750Y-274750D01*
X-501250Y-274750D01*
X-501250Y-285250D01*
G37*
G36*
X-474750Y-305250D02*
G01*
X-474750Y-294750D01*
X-501250Y-294750D01*
X-501250Y-305250D01*
G37*
G36*
X-515750Y-318750D02*
G01*
X-526250Y-318750D01*
X-526250Y-345250D01*
X-515750Y-345250D01*
G37*
G36*
X-534750Y-318750D02*
G01*
X-545250Y-318750D01*
X-545250Y-345250D01*
X-534750Y-345250D01*
G37*
G36*
X-554750Y-318750D02*
G01*
X-565250Y-318750D01*
X-565250Y-345250D01*
X-554750Y-345250D01*
G37*
G36*
X-574750Y-318750D02*
G01*
X-585250Y-318750D01*
X-585250Y-345250D01*
X-574750Y-345250D01*
G37*
G36*
X-598750Y-305250D02*
G01*
X-598750Y-294750D01*
X-625250Y-294750D01*
X-625250Y-305250D01*
G37*
G36*
X-598750Y-285250D02*
G01*
X-598750Y-274750D01*
X-625250Y-274750D01*
X-625250Y-285250D01*
G37*
G36*
X-598750Y-265250D02*
G01*
X-598750Y-254750D01*
X-625250Y-254750D01*
X-625250Y-265250D01*
G37*
G36*
X-598750Y-246250D02*
G01*
X-598750Y-235750D01*
X-625250Y-235750D01*
X-625250Y-246250D01*
G37*
G36*
X-574750Y-194750D02*
G01*
X-585250Y-194750D01*
X-585250Y-221250D01*
X-574750Y-221250D01*
G37*
G36*
X-554750Y-194750D02*
G01*
X-565250Y-194750D01*
X-565250Y-221250D01*
X-554750Y-221250D01*
G37*
G36*
X-534750Y-194750D02*
G01*
X-545250Y-194750D01*
X-545250Y-221250D01*
X-534750Y-221250D01*
G37*
G36*
X-515750Y-194750D02*
G01*
X-526250Y-194750D01*
X-526250Y-221250D01*
X-515750Y-221250D01*
G37*
G36*
X-510250Y-230250D02*
G01*
X-589750Y-230250D01*
X-589750Y-309750D01*
X-510250Y-309750D01*
G37*
D44*
G01*
X-910000Y-1180000D03*
G01*
X-550000Y-1180000D03*
G01*
X-190000Y-1180000D03*
D45*
G01*
X323160Y-508430D03*
G01*
X323160Y-311580D03*
D46*
G01*
X716860Y-193470D03*
G01*
X716860Y-626540D03*
D14*
G01*
X-800000Y-460000D03*
G01*
X-740000Y-490000D03*
G01*
X-660000Y-380000D03*
G01*
X-1320000Y-560000D03*
G01*
X-1290000Y-560000D03*
G01*
X-1250000Y-560000D03*
G01*
X-1210000Y-560000D03*
G01*
X-1170000Y-560000D03*
G01*
X-1130000Y-560000D03*
G01*
X-1090000Y-560000D03*
G01*
X-1300000Y-610000D03*
G01*
X-1210000Y-610000D03*
G01*
X-1120000Y-610000D03*
G01*
X-900000Y-611780D03*
G01*
X-960000Y-590000D03*
G01*
X-960000Y-630000D03*
G01*
X-830000Y-630000D03*
G01*
X-830000Y-590000D03*
G01*
X-960000Y-560000D03*
G01*
X-930000Y-560000D03*
G01*
X-900000Y-560000D03*
G01*
X-870000Y-560000D03*
G01*
X-840000Y-560000D03*
G01*
X-660000Y-560000D03*
G01*
X-630000Y-560000D03*
G01*
X-560000Y-570000D03*
G01*
X-590000Y-570000D03*
G01*
X-560000Y-600000D03*
G01*
X-560000Y-630000D03*
G01*
X-630000Y-611780D03*
G01*
X-440000Y-611000D03*
G01*
X-350000Y-611000D03*
G01*
X-490000Y-570000D03*
G01*
X-450000Y-570000D03*
G01*
X-410000Y-570000D03*
G01*
X-370000Y-570000D03*
G01*
X-330000Y-570000D03*
G01*
X-490000Y-600000D03*
G01*
X-490000Y-630000D03*
G01*
X-230000Y-630000D03*
G01*
X-230000Y-600000D03*
G01*
X-190000Y-610000D03*
G01*
X-90000Y-611000D03*
G01*
X-40000Y-630000D03*
G01*
X-140000Y-630000D03*
G01*
X-140000Y-600000D03*
G01*
X-40000Y-600000D03*
G01*
X-880020Y-240020D03*
G01*
X-882200Y-344560D03*
G01*
X-825699Y-289560D03*
G01*
X-938199Y-284560D03*
G01*
X-988700Y-240060D03*
G01*
X-934700Y-187060D03*
G01*
X-880699Y-136560D03*
G01*
X-830699Y-188560D03*
G01*
X-783700Y-241560D03*
D15*
G01*
X-858940Y-983420D03*
G01*
X-882560Y-983420D03*
G01*
X-906180Y-983420D03*
G01*
X-929799Y-983420D03*
G01*
X-953420Y-983420D03*
G01*
X-977050Y-983420D03*
G01*
X-1000670Y-983420D03*
G01*
X-882560Y-865310D03*
G01*
X-882560Y-888930D03*
G01*
X-882560Y-912550D03*
G01*
X-882560Y-936170D03*
G01*
X-882560Y-959790D03*
G01*
X-906180Y-865310D03*
G01*
X-906180Y-888930D03*
G01*
X-906180Y-912550D03*
G01*
X-906180Y-936170D03*
G01*
X-906180Y-959790D03*
G01*
X-929799Y-865310D03*
G01*
X-929799Y-888930D03*
G01*
X-929799Y-912550D03*
G01*
X-929799Y-936170D03*
G01*
X-929799Y-959790D03*
G01*
X-953420Y-865310D03*
G01*
X-953420Y-888930D03*
G01*
X-953420Y-912550D03*
G01*
X-953420Y-936170D03*
G01*
X-953420Y-959790D03*
G01*
X-977050Y-865310D03*
G01*
X-977050Y-888930D03*
G01*
X-977050Y-912550D03*
G01*
X-977050Y-936170D03*
G01*
X-977050Y-959790D03*
G01*
X-1000670Y-865310D03*
G01*
X-1000670Y-888930D03*
G01*
X-1000670Y-912550D03*
G01*
X-1000670Y-936170D03*
G01*
X-1000670Y-959790D03*
G01*
X-858940Y-865310D03*
G01*
X-858940Y-888930D03*
G01*
X-858940Y-912550D03*
G01*
X-858940Y-936170D03*
G01*
X-858940Y-959790D03*
G01*
X-858940Y-1030669D03*
G01*
X-882560Y-1030669D03*
G01*
X-906180Y-1030669D03*
G01*
X-929799Y-1030669D03*
G01*
X-953420Y-1030669D03*
G01*
X-977050Y-1030669D03*
G01*
X-1000670Y-1030669D03*
G01*
X-882560Y-1007039D03*
G01*
X-906180Y-1007039D03*
G01*
X-929799Y-1007039D03*
G01*
X-953420Y-1007039D03*
G01*
X-977050Y-1007039D03*
G01*
X-1000670Y-1007039D03*
G01*
X-858940Y-1007039D03*
G01*
X-587340Y-979020D03*
G01*
X-610960Y-979020D03*
G01*
X-634580Y-979020D03*
G01*
X-658199Y-979020D03*
G01*
X-681820Y-979020D03*
G01*
X-705450Y-979020D03*
G01*
X-729070Y-979020D03*
G01*
X-610960Y-860910D03*
G01*
X-610960Y-884530D03*
G01*
X-610960Y-908150D03*
G01*
X-610960Y-931770D03*
G01*
X-610960Y-955390D03*
G01*
X-634580Y-860910D03*
G01*
X-634580Y-884530D03*
G01*
X-634580Y-908150D03*
G01*
X-634580Y-931770D03*
G01*
X-634580Y-955390D03*
G01*
X-658199Y-860910D03*
G01*
X-658199Y-884530D03*
G01*
X-658199Y-908150D03*
G01*
X-658199Y-931770D03*
G01*
X-658199Y-955390D03*
G01*
X-681820Y-860910D03*
G01*
X-681820Y-884530D03*
G01*
X-681820Y-908150D03*
G01*
X-681820Y-931770D03*
G01*
X-681820Y-955390D03*
G01*
X-705450Y-860910D03*
G01*
X-705450Y-884530D03*
G01*
X-705450Y-908150D03*
G01*
X-705450Y-931770D03*
G01*
X-705450Y-955390D03*
G01*
X-729070Y-860910D03*
G01*
X-729070Y-884530D03*
G01*
X-729070Y-908150D03*
G01*
X-729070Y-931770D03*
G01*
X-729070Y-955390D03*
G01*
X-587340Y-860910D03*
G01*
X-587340Y-884530D03*
G01*
X-587340Y-908150D03*
G01*
X-587340Y-931770D03*
G01*
X-587340Y-955390D03*
G01*
X-587340Y-1026270D03*
G01*
X-610960Y-1026270D03*
G01*
X-634580Y-1026270D03*
G01*
X-658199Y-1026270D03*
G01*
X-681820Y-1026270D03*
G01*
X-705450Y-1026270D03*
G01*
X-729070Y-1026270D03*
G01*
X-610960Y-1002640D03*
G01*
X-634580Y-1002640D03*
G01*
X-658199Y-1002640D03*
G01*
X-681820Y-1002640D03*
G01*
X-705450Y-1002640D03*
G01*
X-729070Y-1002640D03*
G01*
X-587340Y-1002640D03*
G01*
X200969Y-982140D03*
G01*
X177350Y-982140D03*
G01*
X153730Y-982140D03*
G01*
X130109Y-982140D03*
G01*
X106490Y-982140D03*
G01*
X82860Y-982140D03*
G01*
X59239Y-982140D03*
G01*
X177350Y-864029D03*
G01*
X177350Y-887650D03*
G01*
X177350Y-911270D03*
G01*
X177350Y-934890D03*
G01*
X177350Y-958510D03*
G01*
X153730Y-864029D03*
G01*
X153730Y-887650D03*
G01*
X153730Y-911270D03*
G01*
X153730Y-934890D03*
G01*
X153730Y-958510D03*
G01*
X130109Y-864029D03*
G01*
X130109Y-887650D03*
G01*
X130109Y-911270D03*
G01*
X130109Y-934890D03*
G01*
X130109Y-958510D03*
G01*
X106490Y-864029D03*
G01*
X106490Y-887650D03*
G01*
X106490Y-911270D03*
G01*
X106490Y-934890D03*
G01*
X106490Y-958510D03*
G01*
X82860Y-864029D03*
G01*
X82860Y-887650D03*
G01*
X82860Y-911270D03*
G01*
X82860Y-934890D03*
G01*
X82860Y-958510D03*
G01*
X59239Y-864029D03*
G01*
X59239Y-887650D03*
G01*
X59239Y-911270D03*
G01*
X59239Y-934890D03*
G01*
X59239Y-958510D03*
G01*
X200969Y-864029D03*
G01*
X200969Y-887650D03*
G01*
X200969Y-911270D03*
G01*
X200969Y-934890D03*
G01*
X200969Y-958510D03*
G01*
X200969Y-1029389D03*
G01*
X177350Y-1029389D03*
G01*
X153730Y-1029389D03*
G01*
X130109Y-1029389D03*
G01*
X106490Y-1029389D03*
G01*
X82860Y-1029389D03*
G01*
X59239Y-1029389D03*
G01*
X177350Y-1005759D03*
G01*
X153730Y-1005759D03*
G01*
X130109Y-1005759D03*
G01*
X106490Y-1005759D03*
G01*
X82860Y-1005759D03*
G01*
X59239Y-1005759D03*
G01*
X200969Y-1005759D03*
G01*
X-1128340Y-899180D03*
G01*
X-1151960Y-899180D03*
G01*
X-1175580Y-899180D03*
G01*
X-1199200Y-899180D03*
G01*
X-1222820Y-899180D03*
G01*
X-1246450Y-899180D03*
G01*
X-1270070Y-899180D03*
G01*
X-1151960Y-781070D03*
G01*
X-1151960Y-804689D03*
G01*
X-1151960Y-828310D03*
G01*
X-1151960Y-851930D03*
G01*
X-1151960Y-875550D03*
G01*
X-1175580Y-781070D03*
G01*
X-1175580Y-804689D03*
G01*
X-1175580Y-828310D03*
G01*
X-1175580Y-851930D03*
G01*
X-1175580Y-875550D03*
G01*
X-1199200Y-781070D03*
G01*
X-1199200Y-804689D03*
G01*
X-1199200Y-828310D03*
G01*
X-1199200Y-851930D03*
G01*
X-1199200Y-875550D03*
G01*
X-1222820Y-781070D03*
G01*
X-1222820Y-804689D03*
G01*
X-1222820Y-828310D03*
G01*
X-1222820Y-851930D03*
G01*
X-1222820Y-875550D03*
G01*
X-1246450Y-781070D03*
G01*
X-1246450Y-804689D03*
G01*
X-1246450Y-828310D03*
G01*
X-1246450Y-851930D03*
G01*
X-1246450Y-875550D03*
G01*
X-1270070Y-781070D03*
G01*
X-1270070Y-804689D03*
G01*
X-1270070Y-828310D03*
G01*
X-1270070Y-851930D03*
G01*
X-1270070Y-875550D03*
G01*
X-1128340Y-781070D03*
G01*
X-1128340Y-804689D03*
G01*
X-1128340Y-828310D03*
G01*
X-1128340Y-851930D03*
G01*
X-1128340Y-875550D03*
G01*
X-1128340Y-946430D03*
G01*
X-1151960Y-946430D03*
G01*
X-1175580Y-946430D03*
G01*
X-1199200Y-946430D03*
G01*
X-1222820Y-946430D03*
G01*
X-1246450Y-946430D03*
G01*
X-1270070Y-946430D03*
G01*
X-1151960Y-922800D03*
G01*
X-1175580Y-922800D03*
G01*
X-1199200Y-922800D03*
G01*
X-1222820Y-922800D03*
G01*
X-1246450Y-922800D03*
G01*
X-1270070Y-922800D03*
G01*
X-1128340Y-922800D03*
G01*
X-326530Y-900989D03*
G01*
X-350150Y-900989D03*
G01*
X-373769Y-900989D03*
G01*
X-397390Y-900989D03*
G01*
X-421010Y-900989D03*
G01*
X-444640Y-900989D03*
G01*
X-468260Y-900989D03*
G01*
X-350150Y-782880D03*
G01*
X-350150Y-806500D03*
G01*
X-350150Y-830120D03*
G01*
X-350150Y-853740D03*
G01*
X-350150Y-877359D03*
G01*
X-373769Y-782880D03*
G01*
X-373769Y-806500D03*
G01*
X-373769Y-830120D03*
G01*
X-373769Y-853740D03*
G01*
X-373769Y-877359D03*
G01*
X-397390Y-782880D03*
G01*
X-397390Y-806500D03*
G01*
X-397390Y-830120D03*
G01*
X-397390Y-853740D03*
G01*
X-397390Y-877359D03*
G01*
X-421010Y-782880D03*
G01*
X-421010Y-806500D03*
G01*
X-421010Y-830120D03*
G01*
X-421010Y-853740D03*
G01*
X-421010Y-877359D03*
G01*
X-444640Y-782880D03*
G01*
X-444640Y-806500D03*
G01*
X-444640Y-830120D03*
G01*
X-444640Y-853740D03*
G01*
X-444640Y-877359D03*
G01*
X-468260Y-782880D03*
G01*
X-468260Y-806500D03*
G01*
X-468260Y-830120D03*
G01*
X-468260Y-853740D03*
G01*
X-468260Y-877359D03*
G01*
X-326530Y-782880D03*
G01*
X-326530Y-806500D03*
G01*
X-326530Y-830120D03*
G01*
X-326530Y-853740D03*
G01*
X-326530Y-877359D03*
G01*
X-326530Y-948240D03*
G01*
X-350150Y-948240D03*
G01*
X-373769Y-948240D03*
G01*
X-397390Y-948240D03*
G01*
X-421010Y-948240D03*
G01*
X-444640Y-948240D03*
G01*
X-468260Y-948240D03*
G01*
X-350150Y-924610D03*
G01*
X-373769Y-924610D03*
G01*
X-397390Y-924610D03*
G01*
X-421010Y-924610D03*
G01*
X-444640Y-924610D03*
G01*
X-468260Y-924610D03*
G01*
X-326530Y-924610D03*
G01*
X-69140Y-897830D03*
G01*
X-92760Y-897830D03*
G01*
X-116379Y-897830D03*
G01*
X-140000Y-897830D03*
G01*
X-163620Y-897830D03*
G01*
X-187250Y-897830D03*
G01*
X-210870Y-897830D03*
G01*
X-92760Y-779720D03*
G01*
X-92760Y-803340D03*
G01*
X-92760Y-826960D03*
G01*
X-92760Y-850579D03*
G01*
X-92760Y-874200D03*
G01*
X-116379Y-779720D03*
G01*
X-116379Y-803340D03*
G01*
X-116379Y-826960D03*
G01*
X-116379Y-850579D03*
G01*
X-116379Y-874200D03*
G01*
X-140000Y-779720D03*
G01*
X-140000Y-803340D03*
G01*
X-140000Y-826960D03*
G01*
X-140000Y-850579D03*
G01*
X-140000Y-874200D03*
G01*
X-163620Y-779720D03*
G01*
X-163620Y-803340D03*
G01*
X-163620Y-826960D03*
G01*
X-163620Y-850579D03*
G01*
X-163620Y-874200D03*
G01*
X-187250Y-779720D03*
G01*
X-187250Y-803340D03*
G01*
X-187250Y-826960D03*
G01*
X-187250Y-850579D03*
G01*
X-187250Y-874200D03*
G01*
X-210870Y-779720D03*
G01*
X-210870Y-803340D03*
G01*
X-210870Y-826960D03*
G01*
X-210870Y-850579D03*
G01*
X-210870Y-874200D03*
G01*
X-69140Y-779720D03*
G01*
X-69140Y-803340D03*
G01*
X-69140Y-826960D03*
G01*
X-69140Y-850579D03*
G01*
X-69140Y-874200D03*
G01*
X-69140Y-945080D03*
G01*
X-92760Y-945080D03*
G01*
X-116379Y-945080D03*
G01*
X-140000Y-945080D03*
G01*
X-163620Y-945080D03*
G01*
X-187250Y-945080D03*
G01*
X-210870Y-945080D03*
G01*
X-92760Y-921450D03*
G01*
X-116379Y-921450D03*
G01*
X-140000Y-921450D03*
G01*
X-163620Y-921450D03*
G01*
X-187250Y-921450D03*
G01*
X-210870Y-921450D03*
G01*
X-69140Y-921450D03*
G01*
X-377650Y-1030000D03*
G01*
X-401270Y-1030000D03*
G01*
X-424890Y-1030000D03*
G01*
X-448510Y-1030000D03*
G01*
X-472140Y-1030000D03*
G01*
X-377650Y-1006380D03*
G01*
X-401270Y-1006380D03*
G01*
X-424890Y-1006380D03*
G01*
X-448510Y-1006380D03*
G01*
X-472140Y-1006380D03*
G01*
X-115510Y-1030710D03*
G01*
X-139129Y-1030710D03*
G01*
X-162750Y-1030710D03*
G01*
X-186370Y-1030710D03*
G01*
X-210000Y-1030710D03*
G01*
X-115510Y-1007090D03*
G01*
X-139129Y-1007090D03*
G01*
X-162750Y-1007090D03*
G01*
X-186370Y-1007090D03*
G01*
X-210000Y-1007090D03*
G01*
X-1177650Y-1029290D03*
G01*
X-1201270Y-1029290D03*
G01*
X-1224890Y-1029290D03*
G01*
X-1248510Y-1029290D03*
G01*
X-1272140Y-1029290D03*
G01*
X-1177650Y-1005669D03*
G01*
X-1201270Y-1005669D03*
G01*
X-1224890Y-1005669D03*
G01*
X-1248510Y-1005669D03*
G01*
X-1272140Y-1005669D03*
G01*
X-859509Y-803500D03*
G01*
X-883130Y-803500D03*
G01*
X-906750Y-803500D03*
G01*
X-930370Y-803500D03*
G01*
X-954000Y-803500D03*
G01*
X-859509Y-779880D03*
G01*
X-883130Y-779880D03*
G01*
X-906750Y-779880D03*
G01*
X-930370Y-779880D03*
G01*
X-954000Y-779880D03*
G01*
X-586870Y-805790D03*
G01*
X-610490Y-805790D03*
G01*
X-634110Y-805790D03*
G01*
X-657730Y-805790D03*
G01*
X-681360Y-805790D03*
G01*
X-586870Y-782170D03*
G01*
X-610490Y-782170D03*
G01*
X-634110Y-782170D03*
G01*
X-657730Y-782170D03*
G01*
X-681360Y-782170D03*
G01*
X202049Y-804670D03*
G01*
X178430Y-804670D03*
G01*
X154809Y-804670D03*
G01*
X131190Y-804670D03*
G01*
X107560Y-804670D03*
G01*
X202049Y-781049D03*
G01*
X178430Y-781049D03*
G01*
X154809Y-781049D03*
G01*
X131190Y-781049D03*
G01*
X107560Y-781049D03*
D14*
G01*
X-1220000Y-240000D03*
G01*
X-1190000Y-210000D03*
G01*
X-1290000Y-243969D03*
G01*
X-1280000Y110000D03*
G01*
X-900000Y150000D03*
G01*
X-904080Y250000D03*
G01*
X-1063580Y250000D03*
G01*
X-1178080Y250000D03*
G01*
X-1020000Y-90000D03*
G01*
X-1020000Y-60000D03*
G01*
X-1010000Y-30000D03*
G01*
X-980000Y0D03*
G01*
X-940000Y30000D03*
G01*
X-910000Y30000D03*
G01*
X-770000Y-50000D03*
G01*
X-740000Y-60000D03*
G01*
X-720000Y-90000D03*
G01*
X-670000Y-100000D03*
G01*
X-710000Y-130000D03*
G01*
X-260000Y80000D03*
G01*
X-230000Y70000D03*
G01*
X-200000Y60000D03*
G01*
X-170000Y50000D03*
G01*
X-160000Y210000D03*
G01*
X-130000Y190000D03*
G01*
X-100000Y170000D03*
G01*
X-70499Y160000D03*
G01*
X-220000Y-230000D03*
G01*
X-250000Y-280000D03*
G01*
X-280000Y-230000D03*
G01*
X-480000Y-180000D03*
G01*
X140000Y300000D03*
G01*
X210000Y300000D03*
G01*
X180000Y20000D03*
G01*
X80000Y-200000D03*
G01*
X-110000Y140000D03*
G01*
X-60000Y0D03*
G01*
X-30000Y0D03*
G01*
X70000Y-130000D03*
G01*
X-590000Y-380000D03*
G01*
X-650000Y-290000D03*
G01*
X110000Y100000D03*
G01*
X-120000Y-400000D03*
G01*
X-90000Y-240000D03*
G01*
X-40000Y-330000D03*
G01*
X100000Y-300000D03*
G01*
X50000Y-310000D03*
G01*
X50000Y-350000D03*
G01*
X340000Y30000D03*
G01*
X340000Y-10000D03*
G01*
X340000Y70000D03*
G01*
X60499Y250000D03*
G01*
X30000Y290000D03*
G01*
X-710000Y410000D03*
G01*
X-670000Y410000D03*
G01*
X-630000Y410000D03*
G01*
X-549660Y250000D03*
G01*
X-360000Y-160000D03*
G01*
X-700000Y90000D03*
G01*
X-390000Y-440000D03*
G01*
X-120000Y100000D03*
G01*
X-400000Y280000D03*
G01*
X-160000Y100000D03*
G01*
X-370000Y260000D03*
G01*
X-330000Y-330000D03*
G01*
X-660000Y-230000D03*
G01*
X-530000Y-70000D03*
G01*
X-620000Y-176000D03*
G01*
X-770000Y214000D03*
G01*
X-610000Y310000D03*
G01*
X-450000Y440000D03*
G01*
X-334000Y430000D03*
G01*
X-23999Y390000D03*
G01*
X43999Y390000D03*
G01*
X-280000Y210000D03*
G01*
X-90499Y-90000D03*
G01*
X-180000Y-296000D03*
G01*
X-1091270Y-465409D03*
G01*
X-1190000Y140000D03*
G01*
X10000Y177500D03*
G01*
X-650650Y310989D03*
D16*
G01*
X-1260000Y620000D03*
G01*
X160000Y620000D03*
G01*
X-1260000Y-1160000D03*
G01*
X160000Y-1160000D03*
D14*
G01*
X180000Y-80000D03*
G01*
X390000Y-470000D03*
G01*
X390000Y-500000D03*
G01*
X390000Y-530000D03*
G01*
X390000Y-560000D03*
G01*
X420000Y-560000D03*
G01*
X420000Y-530000D03*
G01*
X420000Y-500000D03*
G01*
X420000Y-470000D03*
G01*
X390000Y-400000D03*
G01*
X420000Y-400000D03*
G01*
X420000Y-370000D03*
G01*
X390000Y-370000D03*
G01*
X390000Y-340000D03*
G01*
X420000Y-340000D03*
G01*
X390000Y-310000D03*
G01*
X420000Y-310000D03*
G01*
X420000Y-280000D03*
G01*
X390000Y-280000D03*
D17*
G01*
X-528300Y-248299D03*
G01*
X-571700Y-248299D03*
G01*
X-528300Y-291700D03*
G01*
X-571700Y-291700D03*
M02*
