G04 Layer: TopLayer*
G04 EasyEDA v6.4.17, 2021-03-02T09:49:47--3:00*
G04 75982556833f470fbfa1e054b907e15e,59636247558045d2802cba280e4ac9d9,10*
G04 Gerber Generator version 0.2*
G04 Scale: 100 percent, Rotated: No, Reflected: No *
G04 Dimensions in inches *
G04 leading zeros omitted , absolute positions ,3 integer and 6 decimal *
%FSLAX36Y36*%
%MOIN*%

%ADD10C,0.0100*%
%ADD11C,0.0200*%
%ADD12C,0.0063*%
%ADD13C,0.0150*%
%ADD14C,0.0240*%
%ADD15C,0.0236*%
%ADD16C,0.1496*%
%ADD17C,0.0197*%
%ADD18R,0.0610X0.0236*%
%ADD19R,0.0787X0.0591*%
%ADD20R,0.0433X0.0394*%
%ADD22R,0.0430X0.0390*%
%ADD23R,0.0236X0.0610*%
%ADD24R,0.0472X0.0709*%
%ADD26R,0.0340X0.0318*%
%ADD28R,0.0670X0.0475*%
%ADD29R,0.0984X0.0197*%
%ADD30R,0.0630X0.0197*%
%ADD31R,0.0120X0.0630*%
%ADD32R,0.0630X0.0120*%
%ADD39R,0.0787X0.0591*%
%ADD40R,0.0413X0.0425*%
%ADD41R,0.0425X0.0413*%
%ADD42R,0.0591X0.0787*%
%ADD44C,0.0827*%
%ADD45C,0.0984*%
%ADD46C,0.0709*%

%LPD*%
G36*
X-1229180Y-50000D02*
G01*
X-1230680Y-49700D01*
X-1231980Y-48860D01*
X-1232840Y-47600D01*
X-1233180Y-46120D01*
X-1232940Y-44600D01*
X-1230920Y-41380D01*
X-1230180Y-39240D01*
X-1229900Y-36780D01*
X-1229900Y-3220D01*
X-1230180Y-760D01*
X-1230920Y1380D01*
X-1232120Y3280D01*
X-1233720Y4880D01*
X-1235620Y6080D01*
X-1237760Y6820D01*
X-1240220Y7100D01*
X-1256000Y7100D01*
X-1257540Y7400D01*
X-1258820Y8280D01*
X-1259700Y9560D01*
X-1260000Y11100D01*
X-1260000Y76000D01*
X-1259700Y77540D01*
X-1258820Y78820D01*
X-1257540Y79700D01*
X-1256000Y80000D01*
X-1064000Y80000D01*
X-1062460Y79700D01*
X-1061180Y78820D01*
X-1060300Y77540D01*
X-1060000Y76000D01*
X-1060000Y52900D01*
X-1060240Y51560D01*
X-1060900Y50359D01*
X-1062540Y48380D01*
X-1063940Y45780D01*
X-1064800Y42939D01*
X-1065100Y39800D01*
X-1065100Y-46000D01*
X-1065400Y-47539D01*
X-1066280Y-48820D01*
X-1067560Y-49700D01*
X-1069100Y-50000D01*
G37*

%LPD*%
G36*
X-670900Y-644900D02*
G01*
X-672440Y-644599D01*
X-673720Y-643720D01*
X-674599Y-642440D01*
X-674900Y-640900D01*
X-674900Y-544000D01*
X-674599Y-542460D01*
X-673720Y-541180D01*
X-672440Y-540300D01*
X-670900Y-540000D01*
X-617200Y-540000D01*
X-615660Y-540300D01*
X-614360Y-541180D01*
X-605000Y-550540D01*
X-602560Y-552540D01*
X-599960Y-553940D01*
X-597120Y-554800D01*
X-593980Y-555100D01*
X-544000Y-555100D01*
X-542460Y-555400D01*
X-541180Y-556280D01*
X-540300Y-557560D01*
X-540000Y-559100D01*
X-540000Y-640900D01*
X-540300Y-642440D01*
X-541180Y-643720D01*
X-542460Y-644599D01*
X-544000Y-644900D01*
G37*

%LPD*%
G36*
X-506000Y-644900D02*
G01*
X-507540Y-644599D01*
X-508820Y-643720D01*
X-509700Y-642440D01*
X-510000Y-640900D01*
X-510000Y-559100D01*
X-509700Y-557560D01*
X-508820Y-556280D01*
X-507540Y-555400D01*
X-506000Y-555100D01*
X-327920Y-555100D01*
X-326380Y-555400D01*
X-325080Y-556280D01*
X-306280Y-575080D01*
X-305400Y-576380D01*
X-305100Y-577920D01*
X-305100Y-639800D01*
X-305040Y-640500D01*
X-305220Y-642159D01*
X-306040Y-643580D01*
X-307400Y-644560D01*
X-309020Y-644900D01*
G37*

%LPD*%
G36*
X-242079Y-644900D02*
G01*
X-243619Y-644599D01*
X-244920Y-643720D01*
X-248820Y-639820D01*
X-249700Y-638520D01*
X-250000Y-636980D01*
X-250000Y-569100D01*
X-249700Y-567560D01*
X-248820Y-566280D01*
X-247540Y-565400D01*
X-246000Y-565100D01*
X-56360Y-565100D01*
X-54840Y-565400D01*
X-53540Y-566280D01*
X-21180Y-598640D01*
X-20299Y-599940D01*
X-20000Y-601460D01*
X-20000Y-640900D01*
X-20299Y-642440D01*
X-21180Y-643720D01*
X-22460Y-644599D01*
X-24000Y-644900D01*
G37*

%LPD*%
G36*
X-976000Y-650000D02*
G01*
X-977540Y-649700D01*
X-978820Y-648820D01*
X-979700Y-647540D01*
X-980000Y-646000D01*
X-980000Y-544000D01*
X-979700Y-542460D01*
X-978820Y-541180D01*
X-977540Y-540300D01*
X-976000Y-540000D01*
X-814000Y-540000D01*
X-812460Y-540300D01*
X-811180Y-541180D01*
X-810300Y-542460D01*
X-810000Y-544000D01*
X-810000Y-646000D01*
X-810300Y-647540D01*
X-811180Y-648820D01*
X-812460Y-649700D01*
X-814000Y-650000D01*
G37*

%LPD*%
G36*
X-1335900Y-660000D02*
G01*
X-1337440Y-659700D01*
X-1338720Y-658820D01*
X-1339600Y-657540D01*
X-1339900Y-656000D01*
X-1339900Y-544000D01*
X-1339600Y-542460D01*
X-1338720Y-541180D01*
X-1337420Y-540300D01*
X-1335900Y-540000D01*
X-1079100Y-540000D01*
X-1077560Y-540300D01*
X-1076280Y-541180D01*
X-1075400Y-542460D01*
X-1075100Y-544000D01*
X-1075100Y-656000D01*
X-1075400Y-657540D01*
X-1076280Y-658820D01*
X-1077560Y-659700D01*
X-1079100Y-660000D01*
G37*

%LPD*%
G36*
X-976000Y-829900D02*
G01*
X-977540Y-829599D01*
X-978820Y-828720D01*
X-979700Y-827440D01*
X-980000Y-825900D01*
X-980000Y-694000D01*
X-979700Y-692460D01*
X-978820Y-691180D01*
X-977540Y-690300D01*
X-976000Y-690000D01*
X-814000Y-690000D01*
X-812460Y-690300D01*
X-811180Y-691180D01*
X-810300Y-692460D01*
X-810000Y-694000D01*
X-810000Y-825900D01*
X-810300Y-827440D01*
X-811180Y-828720D01*
X-812460Y-829599D01*
X-814000Y-829900D01*
G37*

%LPD*%
G36*
X84000Y-829900D02*
G01*
X82460Y-829599D01*
X81180Y-828720D01*
X80300Y-827440D01*
X80000Y-825900D01*
X80000Y-694000D01*
X80300Y-692460D01*
X81180Y-691180D01*
X82460Y-690300D01*
X84000Y-690000D01*
X246000Y-690000D01*
X247540Y-690300D01*
X248820Y-691180D01*
X249700Y-692460D01*
X250000Y-694000D01*
X250000Y-788139D01*
X249660Y-789740D01*
X246400Y-797340D01*
X243540Y-806160D01*
X241500Y-815220D01*
X240420Y-823360D01*
X240260Y-826060D01*
X239899Y-827540D01*
X239040Y-828780D01*
X237760Y-829620D01*
X236260Y-829900D01*
G37*

%LPD*%
G36*
X-706000Y-829900D02*
G01*
X-707540Y-829599D01*
X-708820Y-828720D01*
X-709700Y-827440D01*
X-710000Y-825900D01*
X-710000Y-691020D01*
X-709700Y-689479D01*
X-708820Y-688180D01*
X-707540Y-687320D01*
X-706000Y-687020D01*
X-704460Y-687320D01*
X-703180Y-688180D01*
X-700819Y-690540D01*
X-698379Y-692540D01*
X-695780Y-693940D01*
X-692940Y-694800D01*
X-689800Y-695100D01*
X-549100Y-695100D01*
X-547560Y-695400D01*
X-546280Y-696280D01*
X-545400Y-697560D01*
X-545100Y-699100D01*
X-545100Y-825900D01*
X-545400Y-827440D01*
X-546280Y-828720D01*
X-547560Y-829599D01*
X-549100Y-829900D01*
G37*

%LPD*%
G36*
X-510900Y-969900D02*
G01*
X-512440Y-969599D01*
X-513720Y-968720D01*
X-514600Y-967440D01*
X-514900Y-965900D01*
X-514900Y-694000D01*
X-514600Y-692460D01*
X-513720Y-691180D01*
X-512440Y-690300D01*
X-510900Y-690000D01*
X-293020Y-690000D01*
X-291480Y-690300D01*
X-290180Y-691180D01*
X-286280Y-695080D01*
X-285400Y-696380D01*
X-285100Y-697920D01*
X-285100Y-965900D01*
X-285400Y-967440D01*
X-286280Y-968720D01*
X-287560Y-969599D01*
X-289100Y-969900D01*
G37*

%LPD*%
G36*
X-250900Y-969900D02*
G01*
X-252440Y-969599D01*
X-253720Y-968720D01*
X-254600Y-967440D01*
X-254899Y-965900D01*
X-254899Y-699020D01*
X-254560Y-697400D01*
X-253580Y-696040D01*
X-252160Y-695220D01*
X-250500Y-695040D01*
X-249800Y-695100D01*
X-24000Y-695100D01*
X-22460Y-695400D01*
X-21180Y-696280D01*
X-20299Y-697560D01*
X-20000Y-699100D01*
X-20000Y-839120D01*
X-20099Y-840220D01*
X-20099Y-965900D01*
X-20400Y-967440D01*
X-21280Y-968720D01*
X-22559Y-969599D01*
X-24100Y-969900D01*
G37*

%LPD*%
G36*
X-1335900Y-980000D02*
G01*
X-1337440Y-979700D01*
X-1338720Y-978820D01*
X-1339600Y-977540D01*
X-1339900Y-976000D01*
X-1339900Y-694000D01*
X-1339600Y-692460D01*
X-1338720Y-691180D01*
X-1337440Y-690300D01*
X-1335900Y-690000D01*
X-1084000Y-690000D01*
X-1082460Y-690300D01*
X-1081180Y-691180D01*
X-1080300Y-692460D01*
X-1080000Y-694000D01*
X-1080000Y-839120D01*
X-1080100Y-840220D01*
X-1080100Y-965900D01*
X-1080400Y-967440D01*
X-1081280Y-968720D01*
X-1082560Y-969599D01*
X-1084100Y-969900D01*
X-1319780Y-969900D01*
X-1322240Y-970180D01*
X-1324379Y-970920D01*
X-1326279Y-972120D01*
X-1327880Y-973720D01*
X-1329079Y-975620D01*
X-1329660Y-977320D01*
X-1330520Y-978720D01*
X-1331840Y-979659D01*
X-1333440Y-980000D01*
G37*

%LPD*%
G36*
X-1213760Y-1239900D02*
G01*
X-1215400Y-1239540D01*
X-1216760Y-1238520D01*
X-1217580Y-1237040D01*
X-1217720Y-1235360D01*
X-1217140Y-1233780D01*
X-1215960Y-1232560D01*
X-1209780Y-1228460D01*
X-1203580Y-1223440D01*
X-1197900Y-1217880D01*
X-1192740Y-1211820D01*
X-1188180Y-1205300D01*
X-1184260Y-1198360D01*
X-1181000Y-1191100D01*
X-1178440Y-1183580D01*
X-1176580Y-1175840D01*
X-1175480Y-1167960D01*
X-1175100Y-1160000D01*
X-1175480Y-1152040D01*
X-1176580Y-1144160D01*
X-1178440Y-1136420D01*
X-1181000Y-1128900D01*
X-1184260Y-1121640D01*
X-1188180Y-1114700D01*
X-1192740Y-1108180D01*
X-1197900Y-1102120D01*
X-1203580Y-1096560D01*
X-1209780Y-1091540D01*
X-1216400Y-1087140D01*
X-1223420Y-1083380D01*
X-1230760Y-1080300D01*
X-1238340Y-1077900D01*
X-1246120Y-1076240D01*
X-1254040Y-1075300D01*
X-1262000Y-1075120D01*
X-1269920Y-1075680D01*
X-1277780Y-1076980D01*
X-1285480Y-1079020D01*
X-1292940Y-1081760D01*
X-1300140Y-1085180D01*
X-1306960Y-1089260D01*
X-1313620Y-1094180D01*
X-1315240Y-1094880D01*
X-1316980Y-1094840D01*
X-1318540Y-1094040D01*
X-1319620Y-1092660D01*
X-1320000Y-1090960D01*
X-1320000Y-984000D01*
X-1319700Y-982460D01*
X-1318820Y-981180D01*
X-1317540Y-980300D01*
X-1316000Y-980000D01*
X-1147960Y-980000D01*
X-1146440Y-980300D01*
X-1145140Y-981180D01*
X-1144280Y-982460D01*
X-1143960Y-984000D01*
X-1144280Y-985540D01*
X-1145140Y-986820D01*
X-1146660Y-988340D01*
X-1147860Y-990260D01*
X-1148600Y-992380D01*
X-1148880Y-994860D01*
X-1148880Y-1039680D01*
X-1148600Y-1042140D01*
X-1147860Y-1044280D01*
X-1146660Y-1046180D01*
X-1145060Y-1047780D01*
X-1143160Y-1048980D01*
X-1141020Y-1049720D01*
X-1138560Y-1050000D01*
X-1111440Y-1050000D01*
X-1108980Y-1049720D01*
X-1106840Y-1048980D01*
X-1104940Y-1047780D01*
X-1103340Y-1046180D01*
X-1102140Y-1044280D01*
X-1101400Y-1042140D01*
X-1101120Y-1039680D01*
X-1101120Y-1036360D01*
X-1100820Y-1034820D01*
X-1099940Y-1033540D01*
X-1098660Y-1032660D01*
X-1097120Y-1032360D01*
X-1067460Y-1032360D01*
X-1064320Y-1032060D01*
X-1061480Y-1031200D01*
X-1058880Y-1029800D01*
X-1056440Y-1027800D01*
X-1049460Y-1020819D01*
X-1047460Y-1018379D01*
X-1046060Y-1015780D01*
X-1045200Y-1012940D01*
X-1044900Y-1009800D01*
X-1044900Y-844000D01*
X-1044599Y-842460D01*
X-1043720Y-841180D01*
X-1042440Y-840300D01*
X-1040900Y-840000D01*
X-814000Y-840000D01*
X-812460Y-840300D01*
X-811180Y-841180D01*
X-810300Y-842460D01*
X-810000Y-844000D01*
X-810000Y-1235900D01*
X-810300Y-1237420D01*
X-811180Y-1238720D01*
X-812460Y-1239600D01*
X-814000Y-1239900D01*
G37*

%LPD*%
G36*
X-786000Y-1239900D02*
G01*
X-787540Y-1239600D01*
X-788820Y-1238720D01*
X-789700Y-1237420D01*
X-790000Y-1235900D01*
X-790000Y-844000D01*
X-789700Y-842460D01*
X-788820Y-841180D01*
X-787540Y-840300D01*
X-786000Y-840000D01*
X-544000Y-840000D01*
X-542460Y-840300D01*
X-541180Y-841180D01*
X-540300Y-842460D01*
X-540000Y-844000D01*
X-540000Y-979599D01*
X-539600Y-980000D01*
X-347960Y-980000D01*
X-346440Y-980300D01*
X-345140Y-981180D01*
X-344280Y-982460D01*
X-343960Y-984000D01*
X-344280Y-985540D01*
X-345140Y-986820D01*
X-346659Y-988340D01*
X-347860Y-990260D01*
X-348600Y-992380D01*
X-348880Y-994860D01*
X-348880Y-1039680D01*
X-348600Y-1042140D01*
X-347860Y-1044280D01*
X-346659Y-1046180D01*
X-345060Y-1047780D01*
X-343160Y-1048980D01*
X-341019Y-1049720D01*
X-338560Y-1050000D01*
X-311440Y-1050000D01*
X-308980Y-1049720D01*
X-306840Y-1048980D01*
X-304940Y-1047780D01*
X-303340Y-1046180D01*
X-302140Y-1044280D01*
X-301400Y-1042140D01*
X-301120Y-1039680D01*
X-301120Y-1036360D01*
X-300820Y-1034820D01*
X-299940Y-1033540D01*
X-298660Y-1032660D01*
X-297120Y-1032360D01*
X-284000Y-1032360D01*
X-282460Y-1032660D01*
X-281180Y-1033540D01*
X-280300Y-1034820D01*
X-280000Y-1036360D01*
X-280000Y-1235900D01*
X-280300Y-1237420D01*
X-281180Y-1238720D01*
X-282460Y-1239600D01*
X-284000Y-1239900D01*
G37*

%LPD*%
G36*
X-256000Y-1239900D02*
G01*
X-257540Y-1239600D01*
X-258820Y-1238720D01*
X-259700Y-1237420D01*
X-260000Y-1235900D01*
X-260000Y-1030160D01*
X-259760Y-1028820D01*
X-259100Y-1027620D01*
X-257460Y-1025639D01*
X-256060Y-1023040D01*
X-255200Y-1020200D01*
X-254899Y-1017060D01*
X-254899Y-984000D01*
X-254600Y-982460D01*
X-253720Y-981180D01*
X-252440Y-980300D01*
X-250900Y-980000D01*
X-87960Y-980000D01*
X-86440Y-980300D01*
X-85140Y-981180D01*
X-84280Y-982460D01*
X-83960Y-984000D01*
X-84280Y-985540D01*
X-85140Y-986820D01*
X-86660Y-988340D01*
X-87860Y-990260D01*
X-88600Y-992380D01*
X-88880Y-994860D01*
X-88880Y-1039680D01*
X-88600Y-1042140D01*
X-87860Y-1044280D01*
X-86660Y-1046180D01*
X-85060Y-1047780D01*
X-83160Y-1048980D01*
X-81020Y-1049720D01*
X-78560Y-1050000D01*
X-51440Y-1050000D01*
X-48980Y-1049720D01*
X-46840Y-1048980D01*
X-44940Y-1047780D01*
X-43339Y-1046180D01*
X-42140Y-1044280D01*
X-41400Y-1042140D01*
X-41120Y-1039680D01*
X-41120Y-1036360D01*
X-40820Y-1034820D01*
X-39940Y-1033540D01*
X-38660Y-1032660D01*
X-37120Y-1032360D01*
X-200Y-1032360D01*
X2940Y-1032060D01*
X5780Y-1031200D01*
X8380Y-1029800D01*
X10660Y-1027920D01*
X12540Y-1025639D01*
X13939Y-1023040D01*
X14800Y-1020200D01*
X15100Y-1017060D01*
X15100Y-844000D01*
X15400Y-842460D01*
X16279Y-841180D01*
X17560Y-840300D01*
X19100Y-840000D01*
X235900Y-840000D01*
X237440Y-840300D01*
X238720Y-841180D01*
X239600Y-842460D01*
X239899Y-844000D01*
X239899Y-1113820D01*
X239520Y-1115500D01*
X238460Y-1116880D01*
X236920Y-1117680D01*
X235180Y-1117740D01*
X233580Y-1117080D01*
X232420Y-1115780D01*
X231820Y-1114700D01*
X227260Y-1108180D01*
X222100Y-1102120D01*
X216420Y-1096560D01*
X210219Y-1091540D01*
X203600Y-1087140D01*
X196580Y-1083380D01*
X189240Y-1080300D01*
X181660Y-1077900D01*
X173880Y-1076240D01*
X165960Y-1075300D01*
X158000Y-1075120D01*
X150080Y-1075680D01*
X142220Y-1076980D01*
X134520Y-1079020D01*
X127060Y-1081760D01*
X119860Y-1085180D01*
X113040Y-1089260D01*
X106620Y-1093980D01*
X100680Y-1099260D01*
X95239Y-1105080D01*
X90399Y-1111400D01*
X86140Y-1118120D01*
X82540Y-1125220D01*
X79640Y-1132640D01*
X77420Y-1140280D01*
X75940Y-1148100D01*
X75200Y-1156020D01*
X75200Y-1163980D01*
X75940Y-1171900D01*
X77420Y-1179720D01*
X79640Y-1187360D01*
X82540Y-1194780D01*
X86140Y-1201880D01*
X90399Y-1208600D01*
X95239Y-1214920D01*
X100680Y-1220740D01*
X106620Y-1226020D01*
X113040Y-1230740D01*
X115940Y-1232460D01*
X117200Y-1233640D01*
X117840Y-1235240D01*
X117739Y-1236960D01*
X116940Y-1238480D01*
X115559Y-1239520D01*
X113880Y-1239900D01*
G37*

%LPD*%
D10*
X-1125000Y-1017260D02*
G01*
X-1067260Y-1017260D01*
X-1060000Y-1010000D01*
X-1060000Y-462420D01*
X-954960Y-357380D01*
X-1040000Y-840000D02*
G01*
X-1040000Y-469280D01*
X-941529Y-370810D01*
X-1005000Y-792740D02*
G01*
X-1020000Y-777740D01*
X-1020000Y-477579D01*
X-927380Y-384960D01*
X-970000Y-760000D02*
G01*
X-980000Y-760000D01*
X-1000000Y-740000D01*
X-1000000Y-485860D01*
X-913240Y-399099D01*
X-800000Y-460000D02*
G01*
X-800000Y-445900D01*
X-846769Y-399129D01*
X-700000Y-740000D02*
G01*
X-740000Y-700000D01*
X-740000Y-490000D01*
X-832630Y-384990D02*
G01*
X-832630Y-387370D01*
X-770000Y-450000D01*
X-770000Y-690000D01*
X-770000Y-770000D01*
X-735000Y-793000D01*
X-818490Y-370850D02*
G01*
X-710000Y-479340D01*
X-710000Y-660000D01*
X-690000Y-680000D01*
X-540000Y-680000D01*
X-530000Y-690000D01*
X-530000Y-990000D01*
X-65000Y-1017260D02*
G01*
X0Y-1017260D01*
X0Y-690000D01*
X-10000Y-680000D01*
X-250000Y-680000D01*
X-290000Y-640000D01*
X-290000Y-570000D01*
X-320000Y-540000D01*
X-594180Y-540000D01*
X-790910Y-343270D01*
X20000Y-850000D02*
G01*
X20000Y-680000D01*
X0Y-660000D01*
X-250000Y-660000D01*
X-270000Y-640000D01*
X-270000Y-560000D01*
X-310000Y-520000D01*
X-585900Y-520000D01*
X-776769Y-329129D01*
X-899810Y-412530D02*
G01*
X-902530Y-412530D01*
X-980000Y-490000D01*
X-980000Y-570000D01*
X-960000Y-590000D01*
X-860210Y-412570D02*
G01*
X-857430Y-412570D01*
X-840000Y-430000D01*
X-840000Y-560000D01*
X-749190Y-301550D02*
G01*
X-735050Y-287410D01*
X-749190Y-301550D02*
G01*
X-670740Y-380000D01*
X-660000Y-380000D01*
X-325000Y-1017260D02*
G01*
X-270000Y-1017260D01*
X-270000Y-690000D01*
X-300000Y-660000D01*
X-680000Y-660000D01*
X-690000Y-650000D01*
X-690000Y-472470D01*
X-805050Y-357420D01*
X55000Y-792740D02*
G01*
X52492Y-650946D01*
X-48453Y-550000D01*
X-250000Y-550000D01*
X-300000Y-500000D01*
X-577620Y-500000D01*
X-762630Y-314990D01*
D11*
X-969100Y-343240D02*
G01*
X-983240Y-329099D01*
D10*
X-1039110Y-273230D02*
G01*
X-1017222Y-253334D01*
X-880020Y-240020D01*
D12*
X-1007757Y-877117D02*
G01*
X-1006567Y-877117D01*
X-736161Y-872722D02*
G01*
X-734971Y-872722D01*
X52149Y-875839D02*
G01*
X53339Y-875839D01*
X-1277160Y-792878D02*
G01*
X-1275970Y-792878D01*
X-475346Y-794691D02*
G01*
X-474156Y-794691D01*
X-217958Y-791533D02*
G01*
X-216768Y-791533D01*
D10*
X-1190340Y-280000D02*
G01*
X-1190340Y-340000D01*
X-1190340Y-340000D02*
G01*
X-1132740Y-340000D01*
X-1052540Y-259800D01*
D11*
X-1091266Y-465406D02*
G01*
X-969100Y-343240D01*
X-1130000Y-504000D02*
G01*
X-1129860Y-504000D01*
X-1091266Y-465406D01*
D10*
X-1130000Y-436000D02*
G01*
X-1118440Y-436000D01*
X-997390Y-314950D01*
X-1210000Y-504000D02*
G01*
X-1170000Y-464000D01*
X-1170000Y-410000D01*
X-1160000Y-400000D01*
X-1109300Y-400000D01*
X-1010819Y-301520D01*
X-1210000Y-435999D02*
G01*
X-1210000Y-420000D01*
X-1170000Y-380000D01*
X-1117580Y-380000D01*
X-1024960Y-287380D01*
X-1257000Y-20000D02*
G01*
X-1254000Y-23000D01*
X-1254000Y-100000D01*
X-1131000Y-180000D02*
G01*
X-1186000Y-125000D01*
X-1186000Y-100000D01*
X-1131000Y-180000D02*
G01*
X-1065910Y-180000D01*
X-1039140Y-206770D01*
X-1249660Y-280000D02*
G01*
X-1249660Y-269660D01*
X-1220000Y-240000D01*
X-1249000Y-180000D02*
G01*
X-1252852Y-180000D01*
X-1290000Y-217148D01*
X-1290000Y-243973D01*
X-1131000Y-180000D02*
G01*
X-1161000Y-210000D01*
X-1190000Y-210000D01*
D13*
X-1123000Y-20000D02*
G01*
X-1123000Y-66340D01*
X-1010860Y-178480D01*
X-1190000Y143310D02*
G01*
X-1176000Y157310D01*
X-1176000Y210000D01*
X-1280000Y110000D02*
G01*
X-1280000Y3000D01*
X-1257000Y-20000D01*
X-1244000Y210000D02*
G01*
X-1244000Y206000D01*
X-1280000Y170000D01*
X-1280000Y110000D01*
X-1249660Y-340000D02*
G01*
X-1249660Y-389660D01*
X-1290000Y-430000D01*
X-1290000Y-560000D01*
X-1250000Y-560000D01*
X-1290000Y-243973D02*
G01*
X-1290000Y-430000D01*
X-1178084Y250000D02*
G01*
X-1110000Y250000D01*
X-1080000Y220000D01*
X-1080000Y214000D01*
X-1244000Y210000D02*
G01*
X-1244000Y226000D01*
X-1220000Y250000D01*
X-1178084Y250000D01*
X-1080000Y146000D02*
G01*
X-1082690Y143310D01*
X-1190000Y143310D01*
D10*
X-991560Y185750D02*
G01*
X-999367Y185750D01*
X-1039117Y146000D01*
X-1063584Y250000D02*
G01*
X-1110000Y250000D01*
X-970000Y170000D02*
G01*
X-970000Y240000D01*
X-980000Y250000D01*
X-1063584Y250000D01*
X-991560Y154249D02*
G01*
X-999810Y146000D01*
X-1080000Y146000D01*
X-948450Y185750D02*
G01*
X-965613Y185750D01*
X-970000Y190137D01*
X-948450Y154249D02*
G01*
X-948450Y170000D01*
X-900000Y150000D02*
G01*
X-774000Y150000D01*
X-770000Y146000D01*
X-948450Y154249D02*
G01*
X-944200Y150000D01*
X-900000Y150000D01*
X-770000Y214000D02*
G01*
X-850000Y214000D01*
X-904084Y250000D02*
G01*
X-880000Y250000D01*
X-850000Y220000D01*
X-850000Y214000D01*
X-980000Y250000D02*
G01*
X-904084Y250000D01*
X-983280Y-150900D02*
G01*
X-894160Y-240020D01*
X-880020Y-240020D01*
X-1026000Y40000D02*
G01*
X-1050000Y40000D01*
X-1050000Y-112470D01*
X-997419Y-165050D01*
X-969140Y-136760D02*
G01*
X-973240Y-136760D01*
X-1020000Y-90000D01*
X-955000Y-122620D02*
G01*
X-1017620Y-60000D01*
X-1020000Y-60000D01*
X-941560Y-109190D02*
G01*
X-980000Y-70750D01*
X-980000Y-60000D01*
X-1010000Y-30000D01*
X-927419Y-95040D02*
G01*
X-940000Y-80000D01*
X-960000Y-60000D01*
X-960000Y-20000D01*
X-980000Y0D01*
X-940000Y30000D02*
G01*
X-940000Y-54179D01*
X-913280Y-80900D01*
X-899840Y-67470D02*
G01*
X-910000Y-57310D01*
X-910000Y30000D01*
X-846769Y-80900D02*
G01*
X-880020Y-114149D01*
X-880020Y-240020D01*
X-846769Y-80900D02*
G01*
X-786000Y-20130D01*
X-786000Y-10000D01*
X-860209Y-67470D02*
G01*
X-854000Y-61261D01*
X-854000Y-10000D01*
X-818489Y-109190D02*
G01*
X-770000Y-60701D01*
X-770000Y-50000D01*
X-805050Y-122620D02*
G01*
X-802620Y-122620D01*
X-740000Y-60000D01*
X-790910Y-136760D02*
G01*
X-744149Y-90000D01*
X-720000Y-90000D01*
X-776769Y-150900D02*
G01*
X-735870Y-110000D01*
X-680000Y-110000D01*
X-670000Y-100000D01*
X-763000Y-165000D02*
G01*
X-728000Y-130000D01*
X-710000Y-130000D01*
X180000Y-27199D02*
G01*
X137200Y-27199D01*
X109500Y500D01*
X60499Y500D01*
X-380500Y59500D02*
G01*
X-280000Y60000D01*
X-260000Y80000D01*
X-380500Y40500D02*
G01*
X-259500Y40500D01*
X-230000Y70000D01*
X-380500Y20500D02*
G01*
X-239500Y20500D01*
X-200000Y60000D01*
X-380500Y500D02*
G01*
X-219500Y500D01*
X-170000Y50000D01*
X-130499Y290500D02*
G01*
X-130499Y239500D01*
X-160000Y210000D01*
X-110499Y290500D02*
G01*
X-110499Y209500D01*
X-130000Y190000D01*
X-100000Y170000D02*
G01*
X-90499Y179500D01*
X-90499Y290500D01*
X-70499Y290500D02*
G01*
X-70499Y160000D01*
X-220000Y-230000D02*
G01*
X-228500Y-221500D01*
X-228500Y-150500D01*
X-250000Y-280000D02*
G01*
X-248500Y-278500D01*
X-248500Y-150500D01*
X-267500Y-150500D02*
G01*
X-267500Y-217500D01*
X-280000Y-230000D01*
X-307500Y290500D02*
G01*
X-334000Y317000D01*
X-334000Y380000D01*
X-267500Y290500D02*
G01*
X-266000Y292000D01*
X-266000Y380000D01*
X-169500Y290500D02*
G01*
X-169500Y460000D01*
X-169660Y460000D01*
X-110339Y460000D02*
G01*
X-23500Y460000D01*
X43999Y390000D02*
G01*
X43999Y459500D01*
X43500Y460000D01*
X-23999Y390000D02*
G01*
X-51499Y362500D01*
X-51499Y290500D01*
X43999Y390000D02*
G01*
X43999Y350000D01*
X-21732Y350000D01*
X-31499Y340233D01*
X-31499Y290500D01*
X60499Y158500D02*
G01*
X130000Y158500D01*
X140000Y168500D01*
X140000Y186000D01*
X210000Y192440D02*
G01*
X203559Y186000D01*
X140000Y186000D01*
X210000Y247560D02*
G01*
X210000Y300000D01*
X140000Y254000D02*
G01*
X140000Y300000D01*
X170000Y-194000D02*
G01*
X170000Y-194000D01*
X110000Y-194000D01*
X110000Y-194000D02*
G01*
X86000Y-194000D01*
X80000Y-200000D01*
X70000Y-130000D02*
G01*
X70000Y-130000D01*
X170000Y-130000D01*
X170000Y-126000D01*
X60499Y-78500D02*
G01*
X60499Y-120500D01*
X70000Y-130000D01*
X60499Y138500D02*
G01*
X58999Y140000D01*
X-110000Y140000D01*
X60499Y79500D02*
G01*
X-20499Y79500D01*
X-60000Y40000D01*
X-60000Y0D01*
X-30000Y0D02*
G01*
X-30000Y40000D01*
X-10499Y59500D01*
X60499Y59500D01*
X-590000Y-380000D02*
G01*
X-590000Y-377300D01*
X-707470Y-259830D01*
X-650000Y-290000D02*
G01*
X-650000Y-277670D01*
X-707470Y-220200D01*
X180000Y67199D02*
G01*
X157200Y67199D01*
X110499Y20500D01*
X60499Y20500D01*
X60499Y40500D02*
G01*
X100499Y40500D01*
X110000Y50000D01*
X110000Y100000D01*
X-735050Y-192620D02*
G01*
X-783699Y-241555D01*
X-735050Y-287410D02*
G01*
X-737844Y-287410D01*
X-783699Y-241555D01*
X-180000Y-296000D02*
G01*
X-155840Y-320160D01*
X-95810Y-320160D01*
X-180000Y-364000D02*
G01*
X-155840Y-339840D01*
X-95810Y-339840D01*
X-95810Y-359530D02*
G01*
X-109530Y-359530D01*
X-120000Y-370000D01*
X-120000Y-400000D01*
X-130499Y-150500D02*
G01*
X-130499Y-279500D01*
X-109530Y-300470D01*
X-95810Y-300470D01*
X-70499Y-150500D02*
G01*
X-70499Y-220500D01*
X-95000Y-245000D01*
X-110499Y-229500D01*
X-110499Y-150500D01*
X15810Y-320160D02*
G01*
X39840Y-320160D01*
X50000Y-310000D01*
X50000Y-310000D01*
X15810Y-339840D02*
G01*
X39840Y-339840D01*
X50000Y-350000D01*
X50000Y-350000D01*
X100000Y-296000D02*
G01*
X100000Y-280000D01*
X37402Y-280000D01*
X16933Y-300470D01*
X15810Y-300470D01*
X15810Y-359530D02*
G01*
X18136Y-359530D01*
X40824Y-382217D01*
X100000Y-382217D01*
X100000Y-364000D01*
X583720Y30000D02*
G01*
X340000Y30000D01*
X583720Y-9370D02*
G01*
X583090Y-10000D01*
X340000Y-10000D01*
X60499Y217500D02*
G01*
X60499Y250000D01*
X-11499Y290500D02*
G01*
X-11000Y290000D01*
X30000Y290000D01*
X-553500Y360000D02*
G01*
X-553840Y359660D01*
X-650000Y359660D01*
X-490340Y250000D02*
G01*
X-486500Y253840D01*
X-486500Y360000D01*
X-490000Y179660D02*
G01*
X-560000Y179660D01*
X-560000Y179660D01*
X-560000Y179660D02*
G01*
X-560000Y239660D01*
X-549660Y250000D01*
X-380500Y-58500D02*
G01*
X-431500Y-58500D01*
X-454000Y-36000D01*
X-480000Y-36000D01*
X-480000Y-103999D02*
G01*
X-454000Y-103999D01*
X-428500Y-78500D01*
X-380500Y-78500D01*
X-454000Y-103999D02*
G01*
X-416000Y-103999D01*
X-360000Y-160000D01*
X-749190Y-178480D02*
G01*
X-730000Y-160000D01*
X-689793Y-160000D01*
X-689793Y-160000D02*
G01*
X-660000Y-160000D01*
X-490000Y10000D01*
X-490000Y120339D01*
X-710000Y-130000D02*
G01*
X-660000Y-130000D01*
X-560000Y-30000D01*
X-560000Y120339D01*
X-650654Y310994D02*
G01*
X-630000Y290340D01*
X-630000Y179660D01*
X-699659Y360000D02*
G01*
X-650654Y310994D01*
X-630000Y120339D02*
G01*
X-660000Y90000D01*
X-700000Y90000D01*
X-31499Y-150500D02*
G01*
X-31499Y-248500D01*
X0Y-280000D01*
X37402Y-280000D01*
X-426000Y-460000D02*
G01*
X-410000Y-460000D01*
X-390000Y-440000D01*
X-571700Y-291700D02*
G01*
X-571700Y-358300D01*
X-494000Y-436000D01*
X-494000Y-460000D01*
X-307500Y-150500D02*
G01*
X-307500Y-67500D01*
X-280000Y-40000D01*
X-190000Y-40000D01*
X-120000Y30000D01*
X-120000Y100000D01*
X-160000Y100000D02*
G01*
X-140000Y80000D01*
X-140000Y40000D01*
X-200000Y-20000D01*
X-290000Y-20000D01*
X-308500Y-38500D01*
X-380500Y-38500D01*
X-471260Y493720D02*
G01*
X-471260Y428739D01*
X-490000Y410000D01*
X-450000Y410000D01*
X-400000Y360000D01*
X-400000Y280000D01*
X-330000Y-330000D02*
G01*
X-330000Y-240000D01*
X-287500Y-197500D01*
X-287500Y-150500D01*
X-720910Y-206770D02*
G01*
X-716769Y-206770D01*
X-686000Y-176000D01*
X-620000Y-176000D01*
X-620000Y-244000D02*
G01*
X-646000Y-244000D01*
X-660000Y-230000D01*
X-480000Y-36000D02*
G01*
X-496000Y-36000D01*
X-530000Y-70000D01*
X-640340Y360000D02*
G01*
X-640340Y340340D01*
X-610000Y310000D01*
X-431890Y493720D02*
G01*
X-431890Y458110D01*
X-450000Y440000D01*
X-334000Y380000D02*
G01*
X-334000Y430000D01*
X-287500Y290500D02*
G01*
X-287500Y217500D01*
X-280000Y210000D01*
X-11499Y-150500D02*
G01*
X49500Y-150500D01*
X70000Y-130000D01*
X-51499Y-150500D02*
G01*
X-51499Y-68500D01*
X-60000Y-60000D01*
X-120000Y-60000D01*
X-130499Y-70500D01*
X-130499Y-150500D01*
X-90499Y-150500D02*
G01*
X-90499Y-90000D01*
X-1254000Y-100000D02*
G01*
X-1254000Y-140000D01*
X-1249000Y-145000D01*
X-1249000Y-180000D01*
D13*
X60499Y177500D02*
G01*
X10000Y177500D01*
D10*
X-589370Y493720D02*
G01*
X-589370Y460630D01*
X-630000Y420000D01*
X-630000Y410000D01*
X-628740Y493720D02*
G01*
X-628740Y451260D01*
X-670000Y410000D01*
X-668110Y493720D02*
G01*
X-668110Y451889D01*
X-710000Y410000D01*
X-510630Y493720D02*
G01*
X-510630Y469370D01*
X-553500Y426500D01*
X-553500Y360000D01*
X-550000Y493720D02*
G01*
X-550000Y530552D01*
X-540552Y540000D01*
X-390000Y540000D01*
X-370000Y520000D01*
X-370000Y260000D01*
X583720Y69369D02*
G01*
X340000Y69369D01*
X340000Y70000D01*
D18*
G01*
X583720Y-9370D03*
G01*
X583720Y30000D03*
G01*
X583720Y69369D03*
D19*
G01*
X736279Y120550D03*
G01*
X736279Y-60550D03*
D20*
G01*
X210000Y247560D03*
G01*
X210000Y192440D03*
G36*
X-1239213Y161024D02*
G01*
X-1140787Y161024D01*
X-1140787Y125591D01*
X-1239213Y125591D01*
G37*
G36*
X-1239213Y74408D02*
G01*
X-1140787Y74408D01*
X-1140787Y38976D01*
X-1239213Y38976D01*
G37*
D22*
G01*
X-486500Y360000D03*
G01*
X-553500Y360000D03*
G01*
X-23500Y460000D03*
G01*
X43500Y460000D03*
D23*
G01*
X-431890Y493720D03*
G01*
X-471260Y493720D03*
G01*
X-510630Y493720D03*
G01*
X-550000Y493720D03*
G01*
X-589370Y493720D03*
G01*
X-628740Y493720D03*
D24*
G01*
X-380710Y646280D03*
G01*
X-719290Y646280D03*
D23*
G01*
X-668110Y493720D03*
G36*
X-1238800Y-994860D02*
G01*
X-1211200Y-994860D01*
X-1211200Y-1040060D01*
X-1238800Y-1040060D01*
G37*
G36*
X-1288800Y-994665D02*
G01*
X-1261200Y-994665D01*
X-1261200Y-1039865D01*
X-1288800Y-1039865D01*
G37*
G36*
X-1188800Y-994860D02*
G01*
X-1161200Y-994860D01*
X-1161200Y-1040060D01*
X-1188800Y-1040060D01*
G37*
G36*
X-1138800Y-994665D02*
G01*
X-1111200Y-994665D01*
X-1111200Y-1039865D01*
X-1138800Y-1039865D01*
G37*
G36*
X-1105512Y-770022D02*
G01*
X-1294488Y-770022D01*
X-1294488Y-834982D01*
X-1284646Y-834982D01*
X-1284646Y-955061D01*
X-1115355Y-955061D01*
X-1115355Y-834982D01*
X-1105512Y-834982D01*
G37*
G36*
X-891200Y-815140D02*
G01*
X-918800Y-815140D01*
X-918800Y-769940D01*
X-891200Y-769940D01*
G37*
G36*
X-841200Y-815335D02*
G01*
X-868800Y-815335D01*
X-868800Y-770134D01*
X-841200Y-770134D01*
G37*
G36*
X-941200Y-815140D02*
G01*
X-968800Y-815140D01*
X-968800Y-769940D01*
X-941200Y-769940D01*
G37*
G36*
X-991200Y-815335D02*
G01*
X-1018800Y-815335D01*
X-1018800Y-770134D01*
X-991200Y-770134D01*
G37*
G36*
X-1024488Y-1039978D02*
G01*
X-835512Y-1039978D01*
X-835512Y-975018D01*
X-845354Y-975018D01*
X-845354Y-854939D01*
X-1014645Y-854939D01*
X-1014645Y-975018D01*
X-1024488Y-975018D01*
G37*
G36*
X-438800Y-994860D02*
G01*
X-411200Y-994860D01*
X-411200Y-1040060D01*
X-438800Y-1040060D01*
G37*
G36*
X-488800Y-994665D02*
G01*
X-461200Y-994665D01*
X-461200Y-1039865D01*
X-488800Y-1039865D01*
G37*
G36*
X-388799Y-994860D02*
G01*
X-361200Y-994860D01*
X-361200Y-1040060D01*
X-388799Y-1040060D01*
G37*
G36*
X-338799Y-994665D02*
G01*
X-311200Y-994665D01*
X-311200Y-1039865D01*
X-338799Y-1039865D01*
G37*
G36*
X-305512Y-770022D02*
G01*
X-494488Y-770022D01*
X-494488Y-834982D01*
X-484646Y-834982D01*
X-484646Y-955061D01*
X-315355Y-955061D01*
X-315355Y-834982D01*
X-305512Y-834982D01*
G37*
G36*
X-621200Y-815140D02*
G01*
X-648800Y-815140D01*
X-648800Y-769940D01*
X-621200Y-769940D01*
G37*
G36*
X-571200Y-815335D02*
G01*
X-598800Y-815335D01*
X-598800Y-770134D01*
X-571200Y-770134D01*
G37*
G36*
X-671200Y-815140D02*
G01*
X-698800Y-815140D01*
X-698800Y-769940D01*
X-671200Y-769940D01*
G37*
G36*
X-721200Y-815335D02*
G01*
X-748800Y-815335D01*
X-748800Y-770134D01*
X-721200Y-770134D01*
G37*
G36*
X-754488Y-1039978D02*
G01*
X-565512Y-1039978D01*
X-565512Y-975018D01*
X-575354Y-975018D01*
X-575354Y-854939D01*
X-744645Y-854939D01*
X-744645Y-975018D01*
X-754488Y-975018D01*
G37*
G36*
X-178800Y-994860D02*
G01*
X-151199Y-994860D01*
X-151199Y-1040060D01*
X-178800Y-1040060D01*
G37*
G36*
X-228800Y-994665D02*
G01*
X-201199Y-994665D01*
X-201199Y-1039865D01*
X-228800Y-1039865D01*
G37*
G36*
X-128800Y-994860D02*
G01*
X-101199Y-994860D01*
X-101199Y-1040060D01*
X-128800Y-1040060D01*
G37*
G36*
X-78800Y-994665D02*
G01*
X-51199Y-994665D01*
X-51199Y-1039865D01*
X-78800Y-1039865D01*
G37*
G36*
X-45512Y-770022D02*
G01*
X-234487Y-770022D01*
X-234487Y-834982D01*
X-224645Y-834982D01*
X-224645Y-955061D01*
X-55354Y-955061D01*
X-55354Y-834982D01*
X-45512Y-834982D01*
G37*
G36*
X168799Y-815140D02*
G01*
X141200Y-815140D01*
X141200Y-769940D01*
X168799Y-769940D01*
G37*
G36*
X218799Y-815335D02*
G01*
X191200Y-815335D01*
X191200Y-770134D01*
X218799Y-770134D01*
G37*
G36*
X118799Y-815140D02*
G01*
X91200Y-815140D01*
X91200Y-769940D01*
X118799Y-769940D01*
G37*
G36*
X68800Y-815335D02*
G01*
X41199Y-815335D01*
X41199Y-770134D01*
X68800Y-770134D01*
G37*
G36*
X35512Y-1039978D02*
G01*
X224488Y-1039978D01*
X224488Y-975018D01*
X214646Y-975018D01*
X214646Y-854939D01*
X45354Y-854939D01*
X45354Y-975018D01*
X35512Y-975018D01*
G37*
G36*
X-542992Y163780D02*
G01*
X-577008Y163780D01*
X-577008Y195531D01*
X-542992Y195531D01*
G37*
D26*
G01*
X-560000Y120339D03*
G36*
X-472992Y163780D02*
G01*
X-507008Y163780D01*
X-507008Y195531D01*
X-472992Y195531D01*
G37*
G01*
X-490000Y120339D03*
G36*
X-533780Y267008D02*
G01*
X-533780Y232992D01*
X-565531Y232992D01*
X-565531Y267008D01*
G37*
G36*
X-506220Y267008D02*
G01*
X-506220Y232992D01*
X-474469Y232992D01*
X-474469Y267008D01*
G37*
G36*
X-663484Y-704448D02*
G01*
X-596516Y-704448D01*
X-596516Y-751989D01*
X-663484Y-751989D01*
G37*
D28*
G01*
X-630000Y-611780D03*
G36*
X-933484Y-704448D02*
G01*
X-866516Y-704448D01*
X-866516Y-751989D01*
X-933484Y-751989D01*
G37*
G01*
X-900000Y-611780D03*
G36*
X-153780Y477008D02*
G01*
X-153780Y442992D01*
X-185531Y442992D01*
X-185531Y477008D01*
G37*
G36*
X-126220Y477008D02*
G01*
X-126220Y442992D01*
X-94469Y442992D01*
X-94469Y477008D01*
G37*
D29*
G01*
X180000Y-27199D03*
D30*
G01*
X180000Y20000D03*
D29*
G01*
X180000Y67199D03*
D31*
G01*
X-307500Y-150500D03*
G01*
X-287500Y-150500D03*
G01*
X-267500Y-150500D03*
G01*
X-248500Y-150500D03*
G01*
X-228500Y-150500D03*
G01*
X-208500Y-150500D03*
G01*
X-189500Y-150500D03*
G01*
X-169500Y-150500D03*
G01*
X-149500Y-150500D03*
G01*
X-130499Y-150500D03*
G01*
X-110499Y-150500D03*
G01*
X-90499Y-150500D03*
G01*
X-70499Y-150500D03*
G01*
X-51499Y-150500D03*
G01*
X-31499Y-150500D03*
G01*
X-11499Y-150500D03*
D32*
G01*
X-380500Y217500D03*
G01*
X-380500Y197500D03*
G01*
X-380500Y177500D03*
G01*
X-380500Y158500D03*
G01*
X-380500Y138500D03*
G01*
X-380500Y118500D03*
G01*
X-380500Y99500D03*
G01*
X-380500Y79500D03*
G01*
X-380500Y59500D03*
G01*
X-380500Y40500D03*
G01*
X-380500Y20500D03*
G01*
X-380500Y500D03*
G01*
X-380500Y-19499D03*
G01*
X-380500Y-38500D03*
G01*
X-380500Y-58500D03*
G01*
X-380500Y-78500D03*
D31*
G01*
X-307500Y290500D03*
G01*
X-287500Y290500D03*
G01*
X-267500Y290500D03*
G01*
X-248500Y290500D03*
G01*
X-228500Y290500D03*
G01*
X-208500Y290500D03*
G01*
X-189500Y290500D03*
G01*
X-169500Y290500D03*
G01*
X-149500Y290500D03*
G01*
X-130499Y290500D03*
G01*
X-110499Y290500D03*
G01*
X-90499Y290500D03*
G01*
X-70499Y290500D03*
G01*
X-51499Y290500D03*
G01*
X-31499Y290500D03*
G01*
X-11499Y290500D03*
D32*
G01*
X60499Y217500D03*
G01*
X60499Y197500D03*
G01*
X60499Y177500D03*
G01*
X60499Y158500D03*
G01*
X60499Y138500D03*
G01*
X60499Y118500D03*
G01*
X60499Y99500D03*
G01*
X60499Y79500D03*
G01*
X60499Y59500D03*
G01*
X60499Y40500D03*
G01*
X60499Y20500D03*
G01*
X60499Y500D03*
G01*
X60499Y-19499D03*
G01*
X60499Y-38500D03*
G01*
X60499Y-58500D03*
G01*
X60499Y-78500D03*
G36*
X-1068539Y-267453D02*
G01*
X-1044887Y-243801D01*
X-1036543Y-252145D01*
X-1060196Y-275797D01*
G37*
G36*
X-1055104Y-280888D02*
G01*
X-1031452Y-257236D01*
X-1023108Y-265580D01*
X-1046760Y-289232D01*
G37*
G36*
X-1040962Y-295031D02*
G01*
X-1017310Y-271378D01*
X-1008966Y-279722D01*
X-1032617Y-303374D01*
G37*
G36*
X-1026820Y-309173D02*
G01*
X-1003167Y-285520D01*
X-994824Y-293864D01*
X-1018476Y-317517D01*
G37*
G36*
X-1013385Y-322608D02*
G01*
X-989731Y-298955D01*
X-981389Y-307299D01*
X-1005040Y-330952D01*
G37*
G36*
X-999243Y-336750D02*
G01*
X-975590Y-313097D01*
X-967246Y-321441D01*
X-990899Y-345094D01*
G37*
G36*
X-985101Y-350892D02*
G01*
X-961448Y-327239D01*
X-953104Y-335583D01*
X-976757Y-359236D01*
G37*
G36*
X-970959Y-365034D02*
G01*
X-947306Y-341381D01*
X-938961Y-349724D01*
X-962615Y-373378D01*
G37*
G36*
X-957524Y-378469D02*
G01*
X-933871Y-354816D01*
X-925527Y-363160D01*
X-949180Y-386813D01*
G37*
G36*
X-943382Y-392611D02*
G01*
X-919729Y-368959D01*
X-911384Y-377301D01*
X-935038Y-400955D01*
G37*
G36*
X-929239Y-406753D02*
G01*
X-905587Y-383101D01*
X-897243Y-391445D01*
X-920895Y-415097D01*
G37*
G36*
X-915804Y-420188D02*
G01*
X-892152Y-396536D01*
X-883807Y-404880D01*
X-907460Y-428532D01*
G37*
G36*
X-852518Y-428603D02*
G01*
X-876242Y-404880D01*
X-867898Y-396536D01*
X-844174Y-420259D01*
G37*
G36*
X-839083Y-415168D02*
G01*
X-862807Y-391445D01*
X-854463Y-383101D01*
X-830739Y-406824D01*
G37*
G36*
X-824941Y-401026D02*
G01*
X-848665Y-377301D01*
X-840321Y-368959D01*
X-816597Y-392682D01*
G37*
G36*
X-810799Y-386884D02*
G01*
X-834522Y-363160D01*
X-826178Y-354816D01*
X-802454Y-378540D01*
G37*
G36*
X-797364Y-373449D02*
G01*
X-821087Y-349724D01*
X-812744Y-341381D01*
X-789020Y-365105D01*
G37*
G36*
X-783222Y-359307D02*
G01*
X-806945Y-335583D01*
X-798601Y-327239D01*
X-774877Y-350963D01*
G37*
G36*
X-769080Y-345164D02*
G01*
X-792803Y-321441D01*
X-784459Y-313097D01*
X-760736Y-336821D01*
G37*
G36*
X-754937Y-331021D02*
G01*
X-778661Y-307299D01*
X-770317Y-298955D01*
X-746594Y-322678D01*
G37*
G36*
X-741503Y-317587D02*
G01*
X-765226Y-293864D01*
X-756882Y-285520D01*
X-733159Y-309243D01*
G37*
G36*
X-727360Y-303445D02*
G01*
X-751084Y-279722D01*
X-742740Y-271378D01*
X-719017Y-295101D01*
G37*
G36*
X-713218Y-289303D02*
G01*
X-736942Y-265580D01*
X-728598Y-257236D01*
X-704873Y-280959D01*
G37*
G36*
X-699783Y-275868D02*
G01*
X-723507Y-252145D01*
X-715163Y-243801D01*
X-691439Y-267524D01*
G37*
G36*
X-723507Y-227891D02*
G01*
X-699783Y-204167D01*
X-691439Y-212511D01*
X-715163Y-236235D01*
G37*
G36*
X-736942Y-214456D02*
G01*
X-713218Y-190732D01*
X-704873Y-199076D01*
X-728598Y-222800D01*
G37*
G36*
X-751084Y-200313D02*
G01*
X-727360Y-176590D01*
X-719017Y-184934D01*
X-742740Y-208657D01*
G37*
G36*
X-765226Y-186171D02*
G01*
X-741503Y-162447D01*
X-733159Y-170792D01*
X-756882Y-194515D01*
G37*
G36*
X-778661Y-172736D02*
G01*
X-754937Y-149013D01*
X-746594Y-157357D01*
X-770317Y-181080D01*
G37*
G36*
X-792803Y-158594D02*
G01*
X-769080Y-134871D01*
X-760736Y-143215D01*
X-784459Y-166938D01*
G37*
G36*
X-806945Y-144452D02*
G01*
X-783222Y-120729D01*
X-774877Y-129073D01*
X-798601Y-152796D01*
G37*
G36*
X-821087Y-130310D02*
G01*
X-797364Y-106587D01*
X-789020Y-114930D01*
X-812744Y-138654D01*
G37*
G36*
X-834522Y-116875D02*
G01*
X-810799Y-93152D01*
X-802454Y-101495D01*
X-826178Y-125219D01*
G37*
G36*
X-848665Y-102732D02*
G01*
X-824941Y-79009D01*
X-816597Y-87352D01*
X-840321Y-111077D01*
G37*
G36*
X-862807Y-88591D02*
G01*
X-839083Y-64866D01*
X-830739Y-73211D01*
X-854463Y-96935D01*
G37*
G36*
X-876242Y-75155D02*
G01*
X-852518Y-51432D01*
X-844174Y-59775D01*
X-867898Y-83500D01*
G37*
G36*
X-892152Y-83500D02*
G01*
X-915875Y-59775D01*
X-907531Y-51432D01*
X-883807Y-75155D01*
G37*
G36*
X-905587Y-96935D02*
G01*
X-929310Y-73211D01*
X-920966Y-64866D01*
X-897243Y-88591D01*
G37*
G36*
X-919729Y-111077D02*
G01*
X-943452Y-87352D01*
X-935108Y-79009D01*
X-911384Y-102732D01*
G37*
G36*
X-933871Y-125219D02*
G01*
X-957594Y-101495D01*
X-949251Y-93152D01*
X-925527Y-116875D01*
G37*
G36*
X-947306Y-138654D02*
G01*
X-971029Y-114930D01*
X-962685Y-106587D01*
X-938961Y-130310D01*
G37*
G36*
X-961448Y-152796D02*
G01*
X-985172Y-129073D01*
X-976828Y-120729D01*
X-953104Y-144452D01*
G37*
G36*
X-975590Y-166938D02*
G01*
X-999314Y-143215D01*
X-990970Y-134871D01*
X-967246Y-158594D01*
G37*
G36*
X-989731Y-181080D02*
G01*
X-1013455Y-157357D01*
X-1005112Y-149013D01*
X-981389Y-172736D01*
G37*
G36*
X-1003167Y-194515D02*
G01*
X-1026891Y-170792D01*
X-1018547Y-162447D01*
X-994824Y-186171D01*
G37*
G36*
X-1017310Y-208657D02*
G01*
X-1041032Y-184934D01*
X-1032689Y-176590D01*
X-1008966Y-200313D01*
G37*
G36*
X-1031452Y-222800D02*
G01*
X-1055175Y-199076D01*
X-1046831Y-190732D01*
X-1023108Y-214456D01*
G37*
G36*
X-1044887Y-236235D02*
G01*
X-1068610Y-212511D01*
X-1060266Y-204167D01*
X-1036543Y-227891D01*
G37*
G36*
X-1023426Y-240018D02*
G01*
X-880025Y-96616D01*
X-736623Y-240018D01*
X-880025Y-383419D01*
G37*
G36*
X-107323Y-294961D02*
G01*
X-84290Y-294961D01*
X-84290Y-305984D01*
X-107323Y-305984D01*
G37*
G36*
X-107323Y-314646D02*
G01*
X-84290Y-314646D01*
X-84290Y-325669D01*
X-107323Y-325669D01*
G37*
G36*
X-107323Y-334330D02*
G01*
X-84290Y-334330D01*
X-84290Y-345354D01*
X-107323Y-345354D01*
G37*
G36*
X-107323Y-354016D02*
G01*
X-84290Y-354016D01*
X-84290Y-365039D01*
X-107323Y-365039D01*
G37*
G36*
X27323Y-354016D02*
G01*
X4290Y-354016D01*
X4290Y-365039D01*
X27323Y-365039D01*
G37*
G36*
X27323Y-334330D02*
G01*
X4290Y-334330D01*
X4290Y-345354D01*
X27323Y-345354D01*
G37*
G36*
X27323Y-314646D02*
G01*
X4290Y-314646D01*
X4290Y-325669D01*
X27323Y-325669D01*
G37*
G36*
X27323Y-294961D02*
G01*
X4290Y-294961D01*
X4290Y-305984D01*
X27323Y-305984D01*
G37*
G36*
X-70512Y-300472D02*
G01*
X-9487Y-300472D01*
X-9487Y-359527D01*
X-70512Y-359527D01*
G37*
G36*
X-941658Y149842D02*
G01*
X-955241Y149842D01*
X-955241Y158661D01*
X-941658Y158661D01*
G37*
G36*
X-941658Y165591D02*
G01*
X-955241Y165591D01*
X-955241Y174409D01*
X-941658Y174409D01*
G37*
G36*
X-941658Y181338D02*
G01*
X-955241Y181338D01*
X-955241Y190157D01*
X-941658Y190157D01*
G37*
G36*
X-998351Y181338D02*
G01*
X-984769Y181338D01*
X-984769Y190157D01*
X-998351Y190157D01*
G37*
G36*
X-998351Y165591D02*
G01*
X-984769Y165591D01*
X-984769Y174409D01*
X-998351Y174409D01*
G37*
G36*
X-998351Y149842D02*
G01*
X-984769Y149842D01*
X-984769Y158661D01*
X-998351Y158661D01*
G37*
G36*
X-964098Y151496D02*
G01*
X-975911Y151496D01*
X-975911Y188504D01*
X-964098Y188504D01*
G37*
D39*
G01*
X-440000Y-729000D03*
G01*
X-440000Y-611000D03*
D40*
G01*
X-1186000Y-100000D03*
G01*
X-1254000Y-100000D03*
G01*
X-1176000Y210000D03*
G01*
X-1244000Y210000D03*
G36*
X-1114649Y61250D02*
G01*
X-1073350Y61250D01*
X-1073350Y18750D01*
X-1114649Y18750D01*
G37*
G36*
X-1046649Y61250D02*
G01*
X-1005351Y61250D01*
X-1005351Y18750D01*
X-1046649Y18750D01*
G37*
D41*
G01*
X-1210000Y-504000D03*
G01*
X-1210000Y-436000D03*
G01*
X-1130000Y-504000D03*
G01*
X-1130000Y-436000D03*
G36*
X-874650Y11250D02*
G01*
X-833350Y11250D01*
X-833350Y-31250D01*
X-874650Y-31250D01*
G37*
G36*
X-806649Y11250D02*
G01*
X-765350Y11250D01*
X-765350Y-31250D01*
X-806649Y-31250D01*
G37*
D39*
G01*
X-1120000Y-729000D03*
G01*
X-1120000Y-611000D03*
G36*
X-354650Y401250D02*
G01*
X-313350Y401250D01*
X-313350Y358750D01*
X-354650Y358750D01*
G37*
G36*
X-286650Y401250D02*
G01*
X-245350Y401250D01*
X-245350Y358750D01*
X-286650Y358750D01*
G37*
D41*
G01*
X170000Y-126000D03*
G01*
X170000Y-194000D03*
D39*
G01*
X-1210000Y-729000D03*
G01*
X-1210000Y-611000D03*
G01*
X-190000Y-729000D03*
G01*
X-190000Y-611000D03*
G01*
X-90000Y-729000D03*
G01*
X-90000Y-611000D03*
G01*
X-350000Y-729000D03*
G01*
X-350000Y-611000D03*
G01*
X-1300000Y-729000D03*
G01*
X-1300000Y-611000D03*
G01*
X160000Y-611000D03*
G01*
X160000Y-729000D03*
D42*
G01*
X-1131000Y-180000D03*
G01*
X-1249000Y-180000D03*
D40*
G01*
X-426000Y-460000D03*
G01*
X-494000Y-460000D03*
D41*
G01*
X-850000Y146000D03*
G01*
X-850000Y214000D03*
G01*
X-770000Y146000D03*
G01*
X-770000Y214000D03*
G36*
X-44650Y411250D02*
G01*
X-3350Y411250D01*
X-3350Y368750D01*
X-44650Y368750D01*
G37*
G36*
X23350Y411250D02*
G01*
X64650Y411250D01*
X64650Y368750D01*
X23350Y368750D01*
G37*
G01*
X110000Y-126000D03*
G01*
X110000Y-194000D03*
G01*
X-480000Y-103999D03*
G01*
X-480000Y-36000D03*
G01*
X100000Y-364000D03*
G01*
X100000Y-296000D03*
G01*
X-180000Y-364000D03*
G01*
X-180000Y-296000D03*
G01*
X140000Y186000D03*
G01*
X140000Y254000D03*
G36*
X-1140000Y-3000D02*
G01*
X-1106000Y-3000D01*
X-1106000Y-36999D01*
X-1140000Y-36999D01*
G37*
G36*
X-1274000Y-3000D02*
G01*
X-1240000Y-3000D01*
X-1240000Y-36999D01*
X-1274000Y-36999D01*
G37*
G01*
X-1080000Y146000D03*
G01*
X-1080000Y214000D03*
G36*
X-1233780Y-262992D02*
G01*
X-1233780Y-297008D01*
X-1265531Y-297008D01*
X-1265531Y-262992D01*
G37*
G36*
X-1206220Y-262992D02*
G01*
X-1206220Y-297008D01*
X-1174469Y-297008D01*
X-1174469Y-262992D01*
G37*
G36*
X-1206221Y-357008D02*
G01*
X-1206221Y-322992D01*
X-1174469Y-322992D01*
X-1174469Y-357008D01*
G37*
G36*
X-1233779Y-357008D02*
G01*
X-1233779Y-322992D01*
X-1265531Y-322992D01*
X-1265531Y-357008D01*
G37*
G36*
X-647008Y136220D02*
G01*
X-612992Y136220D01*
X-612992Y104469D01*
X-647008Y104469D01*
G37*
D26*
G01*
X-630000Y179660D03*
G36*
X-683780Y377008D02*
G01*
X-683780Y342992D01*
X-715531Y342992D01*
X-715531Y377008D01*
G37*
G36*
X-656220Y377008D02*
G01*
X-656220Y342992D01*
X-624469Y342992D01*
X-624469Y377008D01*
G37*
D41*
G01*
X-620000Y-176000D03*
G01*
X-620000Y-244000D03*
D44*
G01*
X-910000Y-1180000D03*
G01*
X-550000Y-1180000D03*
G01*
X-190000Y-1180000D03*
D45*
G01*
X323160Y-508430D03*
G01*
X323160Y-311580D03*
D46*
G01*
X716860Y-193470D03*
G01*
X716860Y-626540D03*
D14*
G01*
X-800000Y-460000D03*
G01*
X-740000Y-490000D03*
G01*
X-660000Y-380000D03*
G01*
X-1320000Y-560000D03*
G01*
X-1290000Y-560000D03*
G01*
X-1250000Y-560000D03*
G01*
X-1210000Y-560000D03*
G01*
X-1170000Y-560000D03*
G01*
X-1130000Y-560000D03*
G01*
X-1090000Y-560000D03*
G01*
X-1300000Y-610000D03*
G01*
X-1210000Y-610000D03*
G01*
X-1120000Y-610000D03*
G01*
X-900000Y-611780D03*
G01*
X-960000Y-590000D03*
G01*
X-960000Y-630000D03*
G01*
X-830000Y-630000D03*
G01*
X-830000Y-590000D03*
G01*
X-960000Y-560000D03*
G01*
X-930000Y-560000D03*
G01*
X-900000Y-560000D03*
G01*
X-870000Y-560000D03*
G01*
X-840000Y-560000D03*
G01*
X-660000Y-560000D03*
G01*
X-630000Y-560000D03*
G01*
X-560000Y-570000D03*
G01*
X-590000Y-570000D03*
G01*
X-560000Y-600000D03*
G01*
X-560000Y-630000D03*
G01*
X-630000Y-611780D03*
G01*
X-440000Y-611000D03*
G01*
X-350000Y-611000D03*
G01*
X-490000Y-570000D03*
G01*
X-450000Y-570000D03*
G01*
X-410000Y-570000D03*
G01*
X-370000Y-570000D03*
G01*
X-330000Y-570000D03*
G01*
X-490000Y-600000D03*
G01*
X-490000Y-630000D03*
G01*
X-230000Y-630000D03*
G01*
X-230000Y-600000D03*
G01*
X-190000Y-610000D03*
G01*
X-90000Y-611000D03*
G01*
X-40000Y-630000D03*
G01*
X-140000Y-630000D03*
G01*
X-140000Y-600000D03*
G01*
X-40000Y-600000D03*
G01*
X-880020Y-240020D03*
G01*
X-882200Y-344560D03*
G01*
X-825699Y-289560D03*
G01*
X-938199Y-284560D03*
G01*
X-988700Y-240060D03*
G01*
X-934700Y-187060D03*
G01*
X-880699Y-136560D03*
G01*
X-830699Y-188560D03*
G01*
X-783700Y-241560D03*
D15*
G01*
X-858940Y-983420D03*
G01*
X-882560Y-983420D03*
G01*
X-906180Y-983420D03*
G01*
X-929799Y-983420D03*
G01*
X-953420Y-983420D03*
G01*
X-977050Y-983420D03*
G01*
X-1000670Y-983420D03*
G01*
X-882560Y-865310D03*
G01*
X-882560Y-888930D03*
G01*
X-882560Y-912550D03*
G01*
X-882560Y-936170D03*
G01*
X-882560Y-959790D03*
G01*
X-906180Y-865310D03*
G01*
X-906180Y-888930D03*
G01*
X-906180Y-912550D03*
G01*
X-906180Y-936170D03*
G01*
X-906180Y-959790D03*
G01*
X-929799Y-865310D03*
G01*
X-929799Y-888930D03*
G01*
X-929799Y-912550D03*
G01*
X-929799Y-936170D03*
G01*
X-929799Y-959790D03*
G01*
X-953420Y-865310D03*
G01*
X-953420Y-888930D03*
G01*
X-953420Y-912550D03*
G01*
X-953420Y-936170D03*
G01*
X-953420Y-959790D03*
G01*
X-977050Y-865310D03*
G01*
X-977050Y-888930D03*
G01*
X-977050Y-912550D03*
G01*
X-977050Y-936170D03*
G01*
X-977050Y-959790D03*
G01*
X-1000670Y-865310D03*
G01*
X-1000670Y-888930D03*
G01*
X-1000670Y-912550D03*
G01*
X-1000670Y-936170D03*
G01*
X-1000670Y-959790D03*
G01*
X-858940Y-865310D03*
G01*
X-858940Y-888930D03*
G01*
X-858940Y-912550D03*
G01*
X-858940Y-936170D03*
G01*
X-858940Y-959790D03*
G01*
X-858940Y-1030669D03*
G01*
X-882560Y-1030669D03*
G01*
X-906180Y-1030669D03*
G01*
X-929799Y-1030669D03*
G01*
X-953420Y-1030669D03*
G01*
X-977050Y-1030669D03*
G01*
X-1000670Y-1030669D03*
G01*
X-882560Y-1007039D03*
G01*
X-906180Y-1007039D03*
G01*
X-929799Y-1007039D03*
G01*
X-953420Y-1007039D03*
G01*
X-977050Y-1007039D03*
G01*
X-1000670Y-1007039D03*
G01*
X-858940Y-1007039D03*
G01*
X-587340Y-979020D03*
G01*
X-610960Y-979020D03*
G01*
X-634580Y-979020D03*
G01*
X-658199Y-979020D03*
G01*
X-681820Y-979020D03*
G01*
X-705450Y-979020D03*
G01*
X-729070Y-979020D03*
G01*
X-610960Y-860910D03*
G01*
X-610960Y-884530D03*
G01*
X-610960Y-908150D03*
G01*
X-610960Y-931770D03*
G01*
X-610960Y-955390D03*
G01*
X-634580Y-860910D03*
G01*
X-634580Y-884530D03*
G01*
X-634580Y-908150D03*
G01*
X-634580Y-931770D03*
G01*
X-634580Y-955390D03*
G01*
X-658199Y-860910D03*
G01*
X-658199Y-884530D03*
G01*
X-658199Y-908150D03*
G01*
X-658199Y-931770D03*
G01*
X-658199Y-955390D03*
G01*
X-681820Y-860910D03*
G01*
X-681820Y-884530D03*
G01*
X-681820Y-908150D03*
G01*
X-681820Y-931770D03*
G01*
X-681820Y-955390D03*
G01*
X-705450Y-860910D03*
G01*
X-705450Y-884530D03*
G01*
X-705450Y-908150D03*
G01*
X-705450Y-931770D03*
G01*
X-705450Y-955390D03*
G01*
X-729070Y-860910D03*
G01*
X-729070Y-884530D03*
G01*
X-729070Y-908150D03*
G01*
X-729070Y-931770D03*
G01*
X-729070Y-955390D03*
G01*
X-587340Y-860910D03*
G01*
X-587340Y-884530D03*
G01*
X-587340Y-908150D03*
G01*
X-587340Y-931770D03*
G01*
X-587340Y-955390D03*
G01*
X-587340Y-1026270D03*
G01*
X-610960Y-1026270D03*
G01*
X-634580Y-1026270D03*
G01*
X-658199Y-1026270D03*
G01*
X-681820Y-1026270D03*
G01*
X-705450Y-1026270D03*
G01*
X-729070Y-1026270D03*
G01*
X-610960Y-1002640D03*
G01*
X-634580Y-1002640D03*
G01*
X-658199Y-1002640D03*
G01*
X-681820Y-1002640D03*
G01*
X-705450Y-1002640D03*
G01*
X-729070Y-1002640D03*
G01*
X-587340Y-1002640D03*
G01*
X200969Y-982140D03*
G01*
X177350Y-982140D03*
G01*
X153730Y-982140D03*
G01*
X130109Y-982140D03*
G01*
X106490Y-982140D03*
G01*
X82860Y-982140D03*
G01*
X59239Y-982140D03*
G01*
X177350Y-864029D03*
G01*
X177350Y-887650D03*
G01*
X177350Y-911270D03*
G01*
X177350Y-934890D03*
G01*
X177350Y-958510D03*
G01*
X153730Y-864029D03*
G01*
X153730Y-887650D03*
G01*
X153730Y-911270D03*
G01*
X153730Y-934890D03*
G01*
X153730Y-958510D03*
G01*
X130109Y-864029D03*
G01*
X130109Y-887650D03*
G01*
X130109Y-911270D03*
G01*
X130109Y-934890D03*
G01*
X130109Y-958510D03*
G01*
X106490Y-864029D03*
G01*
X106490Y-887650D03*
G01*
X106490Y-911270D03*
G01*
X106490Y-934890D03*
G01*
X106490Y-958510D03*
G01*
X82860Y-864029D03*
G01*
X82860Y-887650D03*
G01*
X82860Y-911270D03*
G01*
X82860Y-934890D03*
G01*
X82860Y-958510D03*
G01*
X59239Y-864029D03*
G01*
X59239Y-887650D03*
G01*
X59239Y-911270D03*
G01*
X59239Y-934890D03*
G01*
X59239Y-958510D03*
G01*
X200969Y-864029D03*
G01*
X200969Y-887650D03*
G01*
X200969Y-911270D03*
G01*
X200969Y-934890D03*
G01*
X200969Y-958510D03*
G01*
X200969Y-1029389D03*
G01*
X177350Y-1029389D03*
G01*
X153730Y-1029389D03*
G01*
X130109Y-1029389D03*
G01*
X106490Y-1029389D03*
G01*
X82860Y-1029389D03*
G01*
X59239Y-1029389D03*
G01*
X177350Y-1005759D03*
G01*
X153730Y-1005759D03*
G01*
X130109Y-1005759D03*
G01*
X106490Y-1005759D03*
G01*
X82860Y-1005759D03*
G01*
X59239Y-1005759D03*
G01*
X200969Y-1005759D03*
G01*
X-1128340Y-899180D03*
G01*
X-1151960Y-899180D03*
G01*
X-1175580Y-899180D03*
G01*
X-1199200Y-899180D03*
G01*
X-1222820Y-899180D03*
G01*
X-1246450Y-899180D03*
G01*
X-1270070Y-899180D03*
G01*
X-1151960Y-781070D03*
G01*
X-1151960Y-804689D03*
G01*
X-1151960Y-828310D03*
G01*
X-1151960Y-851930D03*
G01*
X-1151960Y-875550D03*
G01*
X-1175580Y-781070D03*
G01*
X-1175580Y-804689D03*
G01*
X-1175580Y-828310D03*
G01*
X-1175580Y-851930D03*
G01*
X-1175580Y-875550D03*
G01*
X-1199200Y-781070D03*
G01*
X-1199200Y-804689D03*
G01*
X-1199200Y-828310D03*
G01*
X-1199200Y-851930D03*
G01*
X-1199200Y-875550D03*
G01*
X-1222820Y-781070D03*
G01*
X-1222820Y-804689D03*
G01*
X-1222820Y-828310D03*
G01*
X-1222820Y-851930D03*
G01*
X-1222820Y-875550D03*
G01*
X-1246450Y-781070D03*
G01*
X-1246450Y-804689D03*
G01*
X-1246450Y-828310D03*
G01*
X-1246450Y-851930D03*
G01*
X-1246450Y-875550D03*
G01*
X-1270070Y-781070D03*
G01*
X-1270070Y-804689D03*
G01*
X-1270070Y-828310D03*
G01*
X-1270070Y-851930D03*
G01*
X-1270070Y-875550D03*
G01*
X-1128340Y-781070D03*
G01*
X-1128340Y-804689D03*
G01*
X-1128340Y-828310D03*
G01*
X-1128340Y-851930D03*
G01*
X-1128340Y-875550D03*
G01*
X-1128340Y-946430D03*
G01*
X-1151960Y-946430D03*
G01*
X-1175580Y-946430D03*
G01*
X-1199200Y-946430D03*
G01*
X-1222820Y-946430D03*
G01*
X-1246450Y-946430D03*
G01*
X-1270070Y-946430D03*
G01*
X-1151960Y-922800D03*
G01*
X-1175580Y-922800D03*
G01*
X-1199200Y-922800D03*
G01*
X-1222820Y-922800D03*
G01*
X-1246450Y-922800D03*
G01*
X-1270070Y-922800D03*
G01*
X-1128340Y-922800D03*
G01*
X-326530Y-900989D03*
G01*
X-350150Y-900989D03*
G01*
X-373769Y-900989D03*
G01*
X-397390Y-900989D03*
G01*
X-421010Y-900989D03*
G01*
X-444640Y-900989D03*
G01*
X-468260Y-900989D03*
G01*
X-350150Y-782880D03*
G01*
X-350150Y-806500D03*
G01*
X-350150Y-830120D03*
G01*
X-350150Y-853740D03*
G01*
X-350150Y-877359D03*
G01*
X-373769Y-782880D03*
G01*
X-373769Y-806500D03*
G01*
X-373769Y-830120D03*
G01*
X-373769Y-853740D03*
G01*
X-373769Y-877359D03*
G01*
X-397390Y-782880D03*
G01*
X-397390Y-806500D03*
G01*
X-397390Y-830120D03*
G01*
X-397390Y-853740D03*
G01*
X-397390Y-877359D03*
G01*
X-421010Y-782880D03*
G01*
X-421010Y-806500D03*
G01*
X-421010Y-830120D03*
G01*
X-421010Y-853740D03*
G01*
X-421010Y-877359D03*
G01*
X-444640Y-782880D03*
G01*
X-444640Y-806500D03*
G01*
X-444640Y-830120D03*
G01*
X-444640Y-853740D03*
G01*
X-444640Y-877359D03*
G01*
X-468260Y-782880D03*
G01*
X-468260Y-806500D03*
G01*
X-468260Y-830120D03*
G01*
X-468260Y-853740D03*
G01*
X-468260Y-877359D03*
G01*
X-326530Y-782880D03*
G01*
X-326530Y-806500D03*
G01*
X-326530Y-830120D03*
G01*
X-326530Y-853740D03*
G01*
X-326530Y-877359D03*
G01*
X-326530Y-948240D03*
G01*
X-350150Y-948240D03*
G01*
X-373769Y-948240D03*
G01*
X-397390Y-948240D03*
G01*
X-421010Y-948240D03*
G01*
X-444640Y-948240D03*
G01*
X-468260Y-948240D03*
G01*
X-350150Y-924610D03*
G01*
X-373769Y-924610D03*
G01*
X-397390Y-924610D03*
G01*
X-421010Y-924610D03*
G01*
X-444640Y-924610D03*
G01*
X-468260Y-924610D03*
G01*
X-326530Y-924610D03*
G01*
X-69140Y-897830D03*
G01*
X-92760Y-897830D03*
G01*
X-116379Y-897830D03*
G01*
X-140000Y-897830D03*
G01*
X-163620Y-897830D03*
G01*
X-187250Y-897830D03*
G01*
X-210870Y-897830D03*
G01*
X-92760Y-779720D03*
G01*
X-92760Y-803340D03*
G01*
X-92760Y-826960D03*
G01*
X-92760Y-850579D03*
G01*
X-92760Y-874200D03*
G01*
X-116379Y-779720D03*
G01*
X-116379Y-803340D03*
G01*
X-116379Y-826960D03*
G01*
X-116379Y-850579D03*
G01*
X-116379Y-874200D03*
G01*
X-140000Y-779720D03*
G01*
X-140000Y-803340D03*
G01*
X-140000Y-826960D03*
G01*
X-140000Y-850579D03*
G01*
X-140000Y-874200D03*
G01*
X-163620Y-779720D03*
G01*
X-163620Y-803340D03*
G01*
X-163620Y-826960D03*
G01*
X-163620Y-850579D03*
G01*
X-163620Y-874200D03*
G01*
X-187250Y-779720D03*
G01*
X-187250Y-803340D03*
G01*
X-187250Y-826960D03*
G01*
X-187250Y-850579D03*
G01*
X-187250Y-874200D03*
G01*
X-210870Y-779720D03*
G01*
X-210870Y-803340D03*
G01*
X-210870Y-826960D03*
G01*
X-210870Y-850579D03*
G01*
X-210870Y-874200D03*
G01*
X-69140Y-779720D03*
G01*
X-69140Y-803340D03*
G01*
X-69140Y-826960D03*
G01*
X-69140Y-850579D03*
G01*
X-69140Y-874200D03*
G01*
X-69140Y-945080D03*
G01*
X-92760Y-945080D03*
G01*
X-116379Y-945080D03*
G01*
X-140000Y-945080D03*
G01*
X-163620Y-945080D03*
G01*
X-187250Y-945080D03*
G01*
X-210870Y-945080D03*
G01*
X-92760Y-921450D03*
G01*
X-116379Y-921450D03*
G01*
X-140000Y-921450D03*
G01*
X-163620Y-921450D03*
G01*
X-187250Y-921450D03*
G01*
X-210870Y-921450D03*
G01*
X-69140Y-921450D03*
G01*
X-377650Y-1030000D03*
G01*
X-401270Y-1030000D03*
G01*
X-424890Y-1030000D03*
G01*
X-448510Y-1030000D03*
G01*
X-472140Y-1030000D03*
G01*
X-377650Y-1006380D03*
G01*
X-401270Y-1006380D03*
G01*
X-424890Y-1006380D03*
G01*
X-448510Y-1006380D03*
G01*
X-472140Y-1006380D03*
G01*
X-115510Y-1030710D03*
G01*
X-139129Y-1030710D03*
G01*
X-162750Y-1030710D03*
G01*
X-186370Y-1030710D03*
G01*
X-210000Y-1030710D03*
G01*
X-115510Y-1007090D03*
G01*
X-139129Y-1007090D03*
G01*
X-162750Y-1007090D03*
G01*
X-186370Y-1007090D03*
G01*
X-210000Y-1007090D03*
G01*
X-1177650Y-1029290D03*
G01*
X-1201270Y-1029290D03*
G01*
X-1224890Y-1029290D03*
G01*
X-1248510Y-1029290D03*
G01*
X-1272140Y-1029290D03*
G01*
X-1177650Y-1005669D03*
G01*
X-1201270Y-1005669D03*
G01*
X-1224890Y-1005669D03*
G01*
X-1248510Y-1005669D03*
G01*
X-1272140Y-1005669D03*
G01*
X-859509Y-803500D03*
G01*
X-883130Y-803500D03*
G01*
X-906750Y-803500D03*
G01*
X-930370Y-803500D03*
G01*
X-954000Y-803500D03*
G01*
X-859509Y-779880D03*
G01*
X-883130Y-779880D03*
G01*
X-906750Y-779880D03*
G01*
X-930370Y-779880D03*
G01*
X-954000Y-779880D03*
G01*
X-586870Y-805790D03*
G01*
X-610490Y-805790D03*
G01*
X-634110Y-805790D03*
G01*
X-657730Y-805790D03*
G01*
X-681360Y-805790D03*
G01*
X-586870Y-782170D03*
G01*
X-610490Y-782170D03*
G01*
X-634110Y-782170D03*
G01*
X-657730Y-782170D03*
G01*
X-681360Y-782170D03*
G01*
X202049Y-804670D03*
G01*
X178430Y-804670D03*
G01*
X154809Y-804670D03*
G01*
X131190Y-804670D03*
G01*
X107560Y-804670D03*
G01*
X202049Y-781049D03*
G01*
X178430Y-781049D03*
G01*
X154809Y-781049D03*
G01*
X131190Y-781049D03*
G01*
X107560Y-781049D03*
D14*
G01*
X-1220000Y-240000D03*
G01*
X-1190000Y-210000D03*
G01*
X-1290000Y-243969D03*
G01*
X-1280000Y110000D03*
G01*
X-900000Y150000D03*
G01*
X-904080Y250000D03*
G01*
X-1063580Y250000D03*
G01*
X-1178080Y250000D03*
G01*
X-1020000Y-90000D03*
G01*
X-1020000Y-60000D03*
G01*
X-1010000Y-30000D03*
G01*
X-980000Y0D03*
G01*
X-940000Y30000D03*
G01*
X-910000Y30000D03*
G01*
X-770000Y-50000D03*
G01*
X-740000Y-60000D03*
G01*
X-720000Y-90000D03*
G01*
X-670000Y-100000D03*
G01*
X-710000Y-130000D03*
G01*
X-260000Y80000D03*
G01*
X-230000Y70000D03*
G01*
X-200000Y60000D03*
G01*
X-170000Y50000D03*
G01*
X-160000Y210000D03*
G01*
X-130000Y190000D03*
G01*
X-100000Y170000D03*
G01*
X-70499Y160000D03*
G01*
X-220000Y-230000D03*
G01*
X-250000Y-280000D03*
G01*
X-280000Y-230000D03*
G01*
X-480000Y-180000D03*
G01*
X140000Y300000D03*
G01*
X210000Y300000D03*
G01*
X180000Y20000D03*
G01*
X80000Y-200000D03*
G01*
X-110000Y140000D03*
G01*
X-60000Y0D03*
G01*
X-30000Y0D03*
G01*
X70000Y-130000D03*
G01*
X-590000Y-380000D03*
G01*
X-650000Y-290000D03*
G01*
X110000Y100000D03*
G01*
X-120000Y-400000D03*
G01*
X-90000Y-240000D03*
G01*
X-40000Y-330000D03*
G01*
X100000Y-300000D03*
G01*
X50000Y-310000D03*
G01*
X50000Y-350000D03*
G01*
X340000Y30000D03*
G01*
X340000Y-10000D03*
G01*
X340000Y70000D03*
G01*
X60499Y250000D03*
G01*
X30000Y290000D03*
G01*
X-710000Y410000D03*
G01*
X-670000Y410000D03*
G01*
X-630000Y410000D03*
G01*
X-549660Y250000D03*
G01*
X-360000Y-160000D03*
G01*
X-700000Y90000D03*
G01*
X-390000Y-440000D03*
G01*
X-120000Y100000D03*
G01*
X-400000Y280000D03*
G01*
X-160000Y100000D03*
G01*
X-370000Y260000D03*
G01*
X-330000Y-330000D03*
G01*
X-660000Y-230000D03*
G01*
X-530000Y-70000D03*
G01*
X-620000Y-176000D03*
G01*
X-770000Y214000D03*
G01*
X-610000Y310000D03*
G01*
X-450000Y440000D03*
G01*
X-334000Y430000D03*
G01*
X-23999Y390000D03*
G01*
X43999Y390000D03*
G01*
X-280000Y210000D03*
G01*
X-90499Y-90000D03*
G01*
X-180000Y-296000D03*
G01*
X-1091270Y-465409D03*
G01*
X-1190000Y140000D03*
G01*
X10000Y177500D03*
G01*
X-650650Y310989D03*
D16*
G01*
X-1260000Y620000D03*
G01*
X160000Y620000D03*
G01*
X-1260000Y-1160000D03*
G01*
X160000Y-1160000D03*
D14*
G01*
X180000Y-80000D03*
G01*
X390000Y-470000D03*
G01*
X390000Y-500000D03*
G01*
X390000Y-530000D03*
G01*
X390000Y-560000D03*
G01*
X420000Y-560000D03*
G01*
X420000Y-530000D03*
G01*
X420000Y-500000D03*
G01*
X420000Y-470000D03*
G01*
X390000Y-400000D03*
G01*
X420000Y-400000D03*
G01*
X420000Y-370000D03*
G01*
X390000Y-370000D03*
G01*
X390000Y-340000D03*
G01*
X420000Y-340000D03*
G01*
X390000Y-310000D03*
G01*
X420000Y-310000D03*
G01*
X420000Y-280000D03*
G01*
X390000Y-280000D03*
D17*
G01*
X-528300Y-248299D03*
G01*
X-571700Y-248299D03*
G01*
X-528300Y-291700D03*
G01*
X-571700Y-291700D03*
M02*
