G04 Layer: BottomSolderMaskLayer*
G04 EasyEDA v6.4.17, 2021-03-02T09:49:47--3:00*
G04 75982556833f470fbfa1e054b907e15e,59636247558045d2802cba280e4ac9d9,10*
G04 Gerber Generator version 0.2*
G04 Scale: 100 percent, Rotated: No, Reflected: No *
G04 Dimensions in inches *
G04 leading zeros omitted , absolute positions ,3 integer and 6 decimal *
%FSLAX36Y36*%
%MOIN*%

%ADD81C,0.0907*%
%ADD87C,0.1064*%
%ADD88C,0.0789*%

%LPD*%
G36*
X-505199Y-250200D02*
G01*
X-505199Y-231700D01*
X-470700Y-231700D01*
X-470700Y-250200D01*
G37*
G36*
X-505199Y-269200D02*
G01*
X-505199Y-250700D01*
X-470700Y-250700D01*
X-470700Y-269200D01*
G37*
G36*
X-505199Y-289300D02*
G01*
X-505199Y-270800D01*
X-470700Y-270800D01*
X-470700Y-289300D01*
G37*
G36*
X-505199Y-309300D02*
G01*
X-505199Y-290800D01*
X-470700Y-290800D01*
X-470700Y-309300D01*
G37*
G36*
X-530200Y-349300D02*
G01*
X-530200Y-314800D01*
X-511700Y-314800D01*
X-511700Y-349300D01*
G37*
G36*
X-549200Y-349300D02*
G01*
X-549200Y-314800D01*
X-530700Y-314800D01*
X-530700Y-349300D01*
G37*
G36*
X-569300Y-349300D02*
G01*
X-569300Y-314800D01*
X-550800Y-314800D01*
X-550800Y-349300D01*
G37*
G36*
X-589300Y-349300D02*
G01*
X-589300Y-314800D01*
X-570800Y-314800D01*
X-570800Y-349300D01*
G37*
G36*
X-629300Y-309300D02*
G01*
X-629300Y-290800D01*
X-594800Y-290800D01*
X-594800Y-309300D01*
G37*
G36*
X-629300Y-289300D02*
G01*
X-629300Y-270800D01*
X-594800Y-270800D01*
X-594800Y-289300D01*
G37*
G36*
X-629300Y-269200D02*
G01*
X-629300Y-250700D01*
X-594800Y-250700D01*
X-594800Y-269200D01*
G37*
G36*
X-629300Y-250200D02*
G01*
X-629300Y-231700D01*
X-594800Y-231700D01*
X-594800Y-250200D01*
G37*
G36*
X-589300Y-225200D02*
G01*
X-589300Y-190700D01*
X-570800Y-190700D01*
X-570800Y-225200D01*
G37*
G36*
X-569300Y-225200D02*
G01*
X-569300Y-190700D01*
X-550800Y-190700D01*
X-550800Y-225200D01*
G37*
G36*
X-549200Y-225200D02*
G01*
X-549200Y-190700D01*
X-530700Y-190700D01*
X-530700Y-225200D01*
G37*
G36*
X-530200Y-225200D02*
G01*
X-530200Y-190700D01*
X-511700Y-190700D01*
X-511700Y-225200D01*
G37*
G36*
X-593800Y-313800D02*
G01*
X-593800Y-226200D01*
X-506200Y-226200D01*
X-506200Y-313800D01*
G37*
D81*
G01*
X-910000Y-1180000D03*
G01*
X-550000Y-1180000D03*
G01*
X-190000Y-1180000D03*
D87*
G01*
X323160Y-508430D03*
G01*
X323160Y-311580D03*
D88*
G01*
X716860Y-193470D03*
G01*
X716860Y-626540D03*
M02*
